<!-- Generated by IcoMoon.io -->
<svg version="1.1" xmlns="http://www.w3.org/2000/svg" width="32" height="32" viewBox="0 0 32 32">
<title>Icons_Cyber-Security</title>
<path d="M13.454 14.896c-0.227 0-0.413-0.186-0.413-0.413v-2.418c0-1.762 1.325-3.198 2.959-3.198 0.796 0 1.547 0.338 2.105 0.949 0.549 0.602 0.854 1.399 0.854 2.249v0.834c0 0.227-0.186 0.413-0.413 0.413s-0.413-0.186-0.413-0.413v-0.834c0-0.64-0.227-1.242-0.64-1.692-0.4-0.437-0.933-0.681-1.494-0.681-1.176 0-2.133 1.065-2.133 2.373v2.418c0 0.227-0.186 0.413-0.413 0.413z"></path>
<path d="M20.37 21.374h-8.736c-0.227 0-0.413-0.186-0.413-0.413v-6.479c0-0.227 0.186-0.413 0.413-0.413h8.736c0.227 0 0.413 0.186 0.413 0.413v6.479c0 0.227-0.186 0.413-0.413 0.413zM12.047 20.549h7.91v-5.653h-7.91v5.653z"></path>
<path d="M16 32c-0.021 0-0.041 0-0.062-0.004-9.763-1.486-14.872-14.265-14.872-26.121 0-0.227 0.182-0.413 0.409-0.413 5.509-0.041 10.172-1.795 14.257-5.36 0.157-0.136 0.388-0.136 0.541 0 4.085 3.565 8.748 5.319 14.253 5.36 0.227 0 0.409 0.186 0.409 0.413 0 11.855-5.109 24.635-14.872 26.121-0.021 0-0.041 0.004-0.062 0.004zM1.891 6.284c0.111 11.36 4.956 23.443 14.109 24.887 6.961-1.106 13.981-9.982 14.109-24.887-5.414-0.124-10.036-1.865-14.109-5.323-4.073 3.458-8.694 5.199-14.109 5.323z"></path>
<path d="M15.917 19.134c-0.116 0-0.223-0.045-0.301-0.132l-1.242-1.329c-0.157-0.165-0.149-0.429 0.021-0.582 0.165-0.157 0.429-0.149 0.582 0.021l0.924 0.986 1.77-2.125c0.144-0.173 0.404-0.198 0.582-0.054 0.173 0.144 0.198 0.404 0.054 0.582l-2.071 2.484c-0.074 0.091-0.186 0.144-0.305 0.149h-0.012z"></path>
</svg>
