<!-- Generated by IcoMoon.io -->
<svg version="1.1" xmlns="http://www.w3.org/2000/svg" width="32" height="32" viewBox="0 0 32 32">
<title>Icons_Data-Migration</title>
<path d="M26.205 32c-0.244 0-0.443-0.2-0.443-0.443v-0.692h-1.711c-0.244 0-0.443-0.2-0.443-0.443s0.2-0.443 0.443-0.443h2.895c0.213 0 0.381-0.071 0.528-0.217s0.217-0.315 0.217-0.528v-1.68h-5.409v1.68c0 0.452-0.16 0.838-0.474 1.153s-0.705 0.474-1.153 0.474h-0.297v0.692c0 0.244-0.2 0.443-0.443 0.443s-0.443-0.2-0.443-0.443v-0.692h-6.96v0.692c0 0.244-0.2 0.443-0.443 0.443s-0.443-0.2-0.443-0.443v-0.692h-0.297c-0.452 0-0.838-0.16-1.153-0.474s-0.474-0.701-0.474-1.153v-1.68h-5.409v1.68c0 0.213 0.071 0.381 0.217 0.528s0.315 0.217 0.528 0.217h2.895c0.244 0 0.443 0.2 0.443 0.443s-0.2 0.443-0.443 0.443h-1.711v0.692c0 0.244-0.2 0.443-0.443 0.443s-0.443-0.2-0.443-0.443v-0.692h-0.297c-0.448 0-0.838-0.16-1.153-0.474s-0.474-0.705-0.474-1.153v-15.481c0.009-0.443 0.168-0.82 0.474-1.126s0.705-0.474 1.153-0.474h4.668v-1.334c0-0.448 0.16-0.838 0.479-1.153 0.315-0.315 0.705-0.474 1.153-0.474h9.332c0.448 0 0.838 0.16 1.153 0.474v0c0.315 0.315 0.474 0.705 0.474 1.153v1.334h4.668c0.448 0 0.838 0.16 1.153 0.474s0.465 0.678 0.474 1.113v15.49c0 0.448-0.16 0.838-0.474 1.153s-0.705 0.474-1.153 0.474h-0.297v0.692c0 0.244-0.2 0.443-0.443 0.443zM19.91 29.978h0.74c0.213 0 0.381-0.071 0.528-0.217s0.217-0.315 0.217-0.528v-1.68h-10.817v1.68c0 0.213 0.066 0.381 0.217 0.528 0.146 0.146 0.315 0.217 0.528 0.217h8.592zM22.282 26.667h5.409v-12.91c-0.004-0.195-0.075-0.355-0.217-0.496-0.146-0.146-0.315-0.217-0.528-0.217h-4.668v13.624zM10.578 26.667h10.817v-15.845c0-0.213-0.067-0.381-0.217-0.528-0.146-0.146-0.315-0.217-0.528-0.217h-9.332c-0.213 0-0.377 0.071-0.528 0.217s-0.217 0.315-0.217 0.528v15.845zM4.282 26.667h5.409v-13.624h-4.668c-0.213 0-0.381 0.071-0.528 0.217-0.142 0.142-0.213 0.306-0.217 0.505v12.901zM25.367 24.587h-1.317c-0.244 0-0.443-0.2-0.443-0.443s0.2-0.443 0.443-0.443h1.317c0.244 0 0.443 0.2 0.443 0.443s-0.2 0.443-0.443 0.443zM19.072 24.587h-6.167c-0.244 0-0.443-0.2-0.443-0.443s0.2-0.443 0.443-0.443h6.167c0.244 0 0.443 0.2 0.443 0.443s-0.2 0.443-0.443 0.443zM7.922 24.587h-1.317c-0.244 0-0.443-0.2-0.443-0.443s0.199-0.443 0.443-0.443h1.317c0.244 0 0.443 0.2 0.443 0.443s-0.2 0.443-0.443 0.443zM25.367 22.286h-1.317c-0.244 0-0.443-0.2-0.443-0.443s0.2-0.443 0.443-0.443h1.317c0.244 0 0.443 0.2 0.443 0.443s-0.2 0.443-0.443 0.443zM19.072 22.286h-6.167c-0.244 0-0.443-0.2-0.443-0.443s0.2-0.443 0.443-0.443h6.167c0.244 0 0.443 0.2 0.443 0.443s-0.2 0.443-0.443 0.443zM7.922 22.286h-1.317c-0.244 0-0.443-0.2-0.443-0.443s0.199-0.443 0.443-0.443h1.317c0.244 0 0.443 0.2 0.443 0.443s-0.2 0.443-0.443 0.443zM25.367 19.981h-1.317c-0.244 0-0.443-0.2-0.443-0.443s0.2-0.443 0.443-0.443h1.317c0.244 0 0.443 0.2 0.443 0.443s-0.2 0.443-0.443 0.443zM19.054 19.981h-6.154c-0.244 0-0.443-0.2-0.443-0.443s0.2-0.443 0.443-0.443h6.154c0.244 0 0.443 0.2 0.443 0.443s-0.2 0.443-0.443 0.443zM7.918 19.981h-1.317c-0.244 0-0.443-0.2-0.443-0.443s0.2-0.443 0.443-0.443h1.317c0.244 0 0.443 0.2 0.443 0.443s-0.2 0.443-0.443 0.443zM25.363 17.667h-1.317c-0.244 0-0.443-0.2-0.443-0.443s0.2-0.443 0.443-0.443h1.317c0.244 0 0.443 0.2 0.443 0.443s-0.2 0.443-0.443 0.443zM19.050 17.667h-6.154c-0.244 0-0.443-0.2-0.443-0.443s0.2-0.443 0.443-0.443h6.154c0.244 0 0.443 0.2 0.443 0.443s-0.2 0.443-0.443 0.443zM7.913 17.667h-1.317c-0.244 0-0.443-0.2-0.443-0.443s0.2-0.443 0.443-0.443h1.317c0.244 0 0.443 0.2 0.443 0.443s-0.2 0.443-0.443 0.443zM25.358 15.353h-1.317c-0.244 0-0.443-0.2-0.443-0.443s0.2-0.443 0.443-0.443h1.317c0.244 0 0.443 0.2 0.443 0.443s-0.2 0.443-0.443 0.443zM19.045 15.353h-6.154c-0.244 0-0.443-0.2-0.443-0.443s0.2-0.443 0.443-0.443h6.154c0.244 0 0.443 0.2 0.443 0.443s-0.2 0.443-0.443 0.443zM7.909 15.353h-1.317c-0.244 0-0.443-0.2-0.443-0.443s0.2-0.443 0.443-0.443h1.317c0.244 0 0.443 0.2 0.443 0.443s-0.2 0.443-0.443 0.443zM19.045 13.039h-6.154c-0.244 0-0.443-0.2-0.443-0.443s0.2-0.443 0.443-0.443h6.154c0.244 0 0.443 0.2 0.443 0.443s-0.2 0.443-0.443 0.443zM4.659 10.826s-0.013 0-0.018 0c-0.244-0.009-0.434-0.217-0.426-0.461 0.053-1.264 0.536-2.358 1.445-3.267 0.802-0.802 1.76-1.277 2.846-1.405 0.040-1.53 0.616-2.864 1.711-3.959 1.144-1.148 2.545-1.729 4.163-1.733 1.623 0 3.024 0.585 4.172 1.733 0.275 0.275 0.519 0.567 0.727 0.869 0.461-0.266 0.98-0.399 1.547-0.399 0.873 0 1.627 0.315 2.243 0.931 0.616 0.612 0.927 1.365 0.927 2.234 0 0.137-0.004 0.275-0.022 0.408 0.869 0.204 1.649 0.647 2.319 1.321 0.904 0.904 1.392 2.004 1.445 3.267 0.009 0.244-0.182 0.452-0.426 0.461-0.222 0.018-0.452-0.182-0.461-0.426-0.044-1.046-0.43-1.92-1.184-2.673-0.656-0.656-1.401-1.033-2.274-1.153-0.129-0.018-0.239-0.089-0.31-0.195s-0.093-0.239-0.058-0.364c0.058-0.2 0.084-0.412 0.084-0.638 0-0.638-0.217-1.162-0.665-1.609-0.452-0.452-0.98-0.669-1.614-0.669-0.541 0-0.997 0.155-1.401 0.479-0.102 0.084-0.235 0.115-0.359 0.089s-0.239-0.102-0.302-0.217c-0.217-0.381-0.501-0.749-0.838-1.086-0.989-0.989-2.146-1.467-3.542-1.472-1.392 0-2.549 0.483-3.533 1.472-0.984 0.984-1.459 2.141-1.459 3.529 0 0.075 0 0.142 0 0.204 0 0.239-0.186 0.443-0.426 0.452-1.046 0.040-1.924 0.426-2.678 1.179s-1.144 1.627-1.184 2.678c-0.009 0.239-0.204 0.426-0.443 0.426z"></path>
</svg>
