<!-- Generated by IcoMoon.io -->
<svg version="1.1" xmlns="http://www.w3.org/2000/svg" width="32" height="32" viewBox="0 0 32 32">
<title>Icons_Growth</title>
<path d="M2.558 26.538c-1.411 0-2.558-1.147-2.558-2.558s1.147-2.558 2.558-2.558 2.558 1.147 2.558 2.558-1.147 2.558-2.558 2.558zM2.558 22.237c-0.961 0-1.747 0.782-1.747 1.747s0.782 1.747 1.747 1.747 1.747-0.782 1.747-1.747-0.782-1.747-1.747-1.747z"></path>
<path d="M18.427 23.615c-1.411 0-2.558-1.147-2.558-2.558s1.147-2.558 2.558-2.558 2.558 1.147 2.558 2.558-1.147 2.558-2.558 2.558zM18.427 19.314c-0.965 0-1.747 0.782-1.747 1.747s0.782 1.747 1.747 1.747 1.747-0.782 1.747-1.747-0.782-1.747-1.747-1.747z"></path>
<path d="M9.896 18.742c-1.983 0-3.592-1.61-3.592-3.592s1.609-3.592 3.592-3.592 3.592 1.61 3.592 3.592-1.61 3.592-3.592 3.592zM9.896 12.369c-1.533 0-2.781 1.249-2.781 2.781s1.249 2.781 2.781 2.781 2.781-1.249 2.781-2.781-1.249-2.781-2.781-2.781z"></path>
<path d="M16.395 20.489c-0.085 0-0.174-0.028-0.251-0.085l-3.847-3.008c-0.174-0.138-0.207-0.393-0.069-0.568s0.393-0.207 0.568-0.069l3.847 3.008c0.174 0.138 0.207 0.393 0.069 0.568-0.081 0.101-0.199 0.154-0.32 0.154z"></path>
<path d="M4.302 22.585c-0.089 0-0.178-0.028-0.251-0.089-0.174-0.142-0.203-0.393-0.061-0.572l3.556-4.427c0.142-0.174 0.397-0.203 0.572-0.061s0.203 0.393 0.061 0.572l-3.556 4.427c-0.081 0.101-0.199 0.15-0.316 0.15z"></path>
<path d="M20.117 19.561c-0.093 0-0.186-0.032-0.264-0.097-0.17-0.146-0.186-0.401-0.041-0.572l0.576-0.665c0.146-0.17 0.401-0.186 0.572-0.041s0.186 0.401 0.041 0.572l-0.576 0.665c-0.081 0.093-0.195 0.142-0.308 0.142z"></path>
<path d="M21.581 17.866c-0.093 0-0.186-0.032-0.264-0.097-0.17-0.146-0.186-0.401-0.041-0.572l0.632-0.734c0.146-0.17 0.401-0.186 0.572-0.041s0.186 0.401 0.041 0.572l-0.632 0.734c-0.081 0.093-0.195 0.142-0.308 0.142zM23.101 16.107c-0.093 0-0.186-0.032-0.264-0.097-0.17-0.146-0.186-0.401-0.041-0.572l0.636-0.734c0.146-0.17 0.401-0.186 0.572-0.041s0.186 0.401 0.041 0.572l-0.636 0.734c-0.081 0.093-0.195 0.142-0.308 0.142z"></path>
<path d="M24.625 14.347c-0.093 0-0.186-0.032-0.264-0.097-0.17-0.146-0.186-0.401-0.041-0.572l0.632-0.734c0.146-0.17 0.401-0.186 0.572-0.041s0.186 0.401 0.041 0.572l-0.632 0.734c-0.081 0.093-0.195 0.142-0.308 0.142zM26.146 12.588c-0.093 0-0.186-0.032-0.264-0.097-0.17-0.146-0.186-0.401-0.041-0.572l0.632-0.734c0.146-0.17 0.401-0.186 0.572-0.041s0.186 0.401 0.041 0.572l-0.632 0.734c-0.081 0.093-0.195 0.142-0.308 0.142zM27.666 10.828c-0.093 0-0.186-0.032-0.264-0.097-0.17-0.146-0.186-0.401-0.041-0.572l0.636-0.734c0.146-0.17 0.401-0.186 0.572-0.041s0.186 0.401 0.041 0.572l-0.636 0.734c-0.081 0.093-0.195 0.142-0.308 0.142z"></path>
<path d="M29.19 9.065c-0.093 0-0.186-0.032-0.264-0.097-0.17-0.146-0.186-0.401-0.041-0.572l0.576-0.665c0.146-0.17 0.401-0.186 0.572-0.041s0.186 0.401 0.041 0.572l-0.576 0.665c-0.081 0.093-0.195 0.142-0.308 0.142z"></path>
<path d="M31.591 11.112c-0.223 0-0.405-0.178-0.405-0.401l-0.032-4.334-4.456 1.042c-0.219 0.049-0.438-0.085-0.486-0.304-0.053-0.219 0.085-0.438 0.304-0.487l4.95-1.155c0.122-0.028 0.247 0 0.345 0.077s0.154 0.191 0.154 0.316l0.037 4.841c0 0.223-0.178 0.405-0.401 0.409v0z"></path>
</svg>
