<!-- Generated by IcoMoon.io -->
<svg version="1.1" xmlns="http://www.w3.org/2000/svg" width="32" height="32" viewBox="0 0 32 32">
<title>Icons_Threat</title>
<path d="M17.837 29.304h-3.979c-0.275 0-0.499-0.225-0.499-0.499s0.225-0.499 0.499-0.499h3.979c0.275 0 0.499 0.225 0.499 0.499s-0.225 0.499-0.499 0.499z"></path>
<path d="M29.479 32h-26.958c-1.388 0-2.521-1.133-2.521-2.521v-0.674c0-0.275 0.225-0.499 0.499-0.499h11.457c0.275 0 0.499 0.225 0.499 0.499s-0.225 0.499-0.499 0.499h-10.958v0.175c0 0.839 0.684 1.523 1.523 1.523h26.958c0.839 0 1.523-0.684 1.523-1.523v-0.175h-10.958c-0.275 0-0.499-0.225-0.499-0.499s0.225-0.499 0.499-0.499h11.457c0.275 0 0.499 0.225 0.499 0.499v0.674c0 1.388-1.133 2.521-2.521 2.521z"></path>
<path d="M1.847 28.81c-0.275 0-0.499-0.225-0.499-0.499v-17.702c0-1.388 1.133-2.521 2.521-2.521h2.536c0.275 0 0.499 0.225 0.499 0.499s-0.225 0.499-0.499 0.499h-2.536c-0.839 0-1.523 0.684-1.523 1.523v17.702c0 0.275-0.225 0.499-0.499 0.499z"></path>
<path d="M30.153 29.085c-0.275 0-0.499-0.225-0.499-0.499v-17.977c0-0.839-0.684-1.523-1.523-1.523h-2.601c-0.275 0-0.499-0.225-0.499-0.499s0.225-0.499 0.499-0.499h2.601c1.393 0 2.521 1.133 2.521 2.521v17.977c0 0.275-0.225 0.499-0.499 0.499z"></path>
<path d="M6.295 11.782h-4.448c-0.275 0-0.499-0.225-0.499-0.499s0.225-0.499 0.499-0.499h4.448c0.275 0 0.499 0.225 0.499 0.499s-0.225 0.499-0.499 0.499z"></path>
<path d="M30.153 11.782h-4.458c-0.275 0-0.499-0.225-0.499-0.499s0.225-0.499 0.499-0.499h4.458c0.275 0 0.499 0.225 0.499 0.499s-0.225 0.499-0.499 0.499z"></path>
<path d="M20.044 23.913h-8.087c-1.018 0-1.847-0.829-1.847-1.847v-1.548c-2.271-0.25-4.044-2.182-4.044-4.518v-6.066c0-5.476 4.458-9.934 9.934-9.934s9.934 4.458 9.934 9.934v6.066c0 2.336-1.772 4.268-4.044 4.518v1.548c0 1.018-0.829 1.847-1.847 1.847zM16 0.998c-4.927 0-8.936 4.009-8.936 8.936v6.066c0 1.957 1.588 3.544 3.544 3.544 0.275 0 0.499 0.225 0.499 0.499v2.022c0 0.469 0.379 0.849 0.849 0.849h8.087c0.469 0 0.849-0.379 0.849-0.849v-2.022c0-0.275 0.225-0.499 0.499-0.499 1.957 0 3.544-1.593 3.544-3.544v-6.066c0-4.927-4.009-8.936-8.936-8.936z"></path>
<path d="M16 23.913c-0.275 0-0.499-0.225-0.499-0.499v-2.696c0-0.275 0.225-0.499 0.499-0.499s0.499 0.225 0.499 0.499v2.696c0 0.275-0.225 0.499-0.499 0.499z"></path>
<path d="M18.696 23.913c-0.275 0-0.499-0.225-0.499-0.499v-2.696c0-0.275 0.225-0.499 0.499-0.499s0.499 0.225 0.499 0.499v2.696c0 0.275-0.225 0.499-0.499 0.499z"></path>
<path d="M13.304 23.913c-0.275 0-0.499-0.225-0.499-0.499v-2.696c0-0.275 0.225-0.499 0.499-0.499s0.499 0.225 0.499 0.499v2.696c0 0.275-0.225 0.499-0.499 0.499z"></path>
<path d="M18.022 18.521c-0.185 0-0.359-0.1-0.449-0.275l-1.048-2.092c-0.1-0.2-0.305-0.325-0.529-0.325s-0.429 0.125-0.529 0.325l-1.048 2.092c-0.125 0.245-0.424 0.344-0.669 0.225-0.245-0.125-0.344-0.424-0.225-0.669l1.048-2.092c0.27-0.544 0.814-0.879 1.423-0.879s1.148 0.334 1.423 0.879l1.048 2.092c0.125 0.245 0.025 0.544-0.225 0.669-0.070 0.035-0.15 0.055-0.225 0.055z"></path>
<path d="M10.608 20.543c-0.275 0-0.499-0.225-0.499-0.499v-2.022c0-0.275 0.225-0.499 0.499-0.499s0.499 0.225 0.499 0.499v2.022c0 0.275-0.225 0.499-0.499 0.499z"></path>
<path d="M21.392 20.543c-0.275 0-0.499-0.225-0.499-0.499v-2.022c0-0.275 0.225-0.499 0.499-0.499s0.499 0.225 0.499 0.499v2.022c0 0.275-0.225 0.499-0.499 0.499z"></path>
<path d="M20.718 15.151c-0.394 0-0.774-0.090-1.128-0.265l-1.348-0.674c-1.243-0.624-1.747-2.137-1.128-3.385 0.624-1.243 2.142-1.747 3.385-1.128l1.348 0.674c1.243 0.624 1.747 2.137 1.128 3.38-0.429 0.859-1.293 1.393-2.256 1.393zM19.375 10.434c-0.559 0-1.098 0.309-1.368 0.839-0.374 0.749-0.070 1.667 0.679 2.042l1.348 0.674c0.215 0.105 0.444 0.16 0.679 0.16 0.579 0 1.103-0.325 1.363-0.844 0.374-0.749 0.070-1.667-0.679-2.042l-1.348-0.674c-0.22-0.11-0.449-0.16-0.679-0.16z"></path>
<path d="M11.287 15.151c-0.964 0-1.827-0.534-2.256-1.393-0.619-1.243-0.115-2.761 1.128-3.385l1.348-0.674c1.243-0.619 2.761-0.115 3.385 1.128 0.619 1.243 0.115 2.761-1.128 3.385l-1.348 0.674c-0.354 0.175-0.734 0.265-1.128 0.265zM12.63 10.434c-0.23 0-0.459 0.050-0.679 0.16l-1.348 0.674c-0.749 0.374-1.058 1.293-0.679 2.042 0.26 0.519 0.784 0.844 1.363 0.844 0.24 0 0.464-0.055 0.679-0.16l1.348-0.674c0.749-0.374 1.058-1.293 0.679-2.042-0.265-0.534-0.809-0.839-1.368-0.839z"></path>
</svg>
