<!-- Generated by IcoMoon.io -->
<svg version="1.1" xmlns="http://www.w3.org/2000/svg" width="32" height="32" viewBox="0 0 32 32">
<title>Icons_Medical-Device</title>
<path d="M23.572 15.232h-18.205c-0.27 0-0.491-0.221-0.491-0.491v-14.104c0-0.27 0.221-0.491 0.491-0.491h18.205c0.27 0 0.491 0.221 0.491 0.491v14.104c0 0.27-0.221 0.491-0.491 0.491zM5.857 14.251h17.224v-13.123h-17.224v13.123z"></path>
<path d="M23.572 13.039h-18.205c-0.27 0-0.491-0.221-0.491-0.491s0.221-0.491 0.491-0.491h18.205c0.27 0 0.491 0.221 0.491 0.491s-0.221 0.491-0.491 0.491z"></path>
<path d="M16.483 18.239h-4.023c-0.27 0-0.491-0.221-0.491-0.491v-3.007c0-0.27 0.221-0.491 0.491-0.491h4.023c0.27 0 0.491 0.221 0.491 0.491v3.007c0 0.27-0.221 0.491-0.491 0.491zM12.951 17.258h3.042v-2.026h-3.042v2.026z"></path>
<path d="M26.035 23.567c-0.123 0-0.245-0.044-0.343-0.137l-5.338-5.19h-11.769l-5.338 5.19c-0.196 0.191-0.505 0.186-0.692-0.010s-0.186-0.505 0.010-0.692l5.48-5.328c0.093-0.088 0.216-0.137 0.343-0.137h12.166c0.128 0 0.25 0.049 0.343 0.137l5.48 5.328c0.196 0.186 0.196 0.5 0.010 0.692-0.098 0.098-0.226 0.147-0.353 0.147z"></path>
<path d="M26.035 28.257h-23.126c-0.27 0-0.491-0.221-0.491-0.491v-4.69c0-0.27 0.221-0.491 0.491-0.491h23.126c0.27 0 0.491 0.221 0.491 0.491v4.69c0 0.27-0.221 0.491-0.491 0.491zM3.4 27.276h22.145v-3.709h-22.145v3.709z"></path>
<path d="M19.343 19.481h-9.743c-0.27 0-0.491-0.221-0.491-0.491s0.221-0.491 0.491-0.491h9.743c0.27 0 0.491 0.221 0.491 0.491s-0.221 0.491-0.491 0.491z"></path>
<path d="M16.106 22.198h-3.272c-0.27 0-0.491-0.221-0.491-0.491s0.221-0.491 0.491-0.491h3.272c0.27 0 0.491 0.221 0.491 0.491s-0.221 0.491-0.491 0.491z"></path>
<path d="M16.106 20.815h-3.272c-0.27 0-0.491-0.221-0.491-0.491s0.221-0.491 0.491-0.491h3.272c0.27 0 0.491 0.221 0.491 0.491s-0.221 0.491-0.491 0.491z"></path>
<path d="M8.894 22.252c-1.168 0-2.428-0.402-2.428-1.285s1.261-1.285 2.428-1.285 2.428 0.402 2.428 1.285-1.261 1.285-2.428 1.285zM7.501 20.967c0.177 0.123 0.662 0.304 1.393 0.304s1.217-0.181 1.393-0.304c-0.181-0.123-0.662-0.304-1.393-0.304s-1.217 0.181-1.393 0.304zM10.356 21.031v0z"></path>
<path d="M20.163 22.331c-1.168 0-2.428-0.402-2.428-1.285s1.261-1.285 2.428-1.285 2.428 0.402 2.428 1.285-1.261 1.285-2.428 1.285zM18.769 21.046c0.177 0.123 0.662 0.304 1.393 0.304s1.217-0.181 1.393-0.304c-0.181-0.123-0.662-0.304-1.393-0.304s-1.217 0.181-1.393 0.304zM21.625 21.109v0z"></path>
<path d="M31.5 9.429h-5.544c-0.27 0-0.491-0.221-0.491-0.491v-1.148c0-0.878 1.776-1.064 3.262-1.064s3.262 0.186 3.262 1.064v1.148c0 0.27-0.221 0.491-0.491 0.491zM26.447 8.448h4.562v-0.466c-0.289-0.118-1.089-0.275-2.281-0.275s-1.992 0.157-2.281 0.275v0.466z"></path>
<path d="M28.684 19.917c-0.525 0-0.947-0.378-1.001-0.883l-0.908-8.423c-0.034-0.186-0.373-0.471-0.623-0.682-0.353-0.299-0.687-0.584-0.687-0.991 0-0.27 0.221-0.491 0.491-0.491 0.245 0 0.446 0.181 0.486 0.412 0.059 0.078 0.231 0.221 0.348 0.319 0.383 0.324 0.858 0.726 0.962 1.29l0.912 8.458c0.093 0.010 0.147-0.044 0.152-0.108l0.898-8.315c0.108-0.598 0.584-1.001 0.962-1.329 0.118-0.098 0.285-0.245 0.348-0.319 0.039-0.236 0.24-0.412 0.486-0.412 0.27 0 0.491 0.221 0.491 0.491 0 0.407-0.334 0.692-0.687 0.991-0.25 0.211-0.589 0.5-0.628 0.716l-0.893 8.281c-0.059 0.564-0.535 0.991-1.104 0.991z"></path>
<path d="M14.771 10.415c-0.103 0-0.206 0-0.309 0-2.144 0.044-4.371-0.334-6.991-1.172-0.132-0.044-0.245-0.142-0.299-0.27-0.059-0.128-0.054-0.275 0.005-0.407l2.836-6.010c0.103-0.216 0.343-0.329 0.569-0.265l0.461 0.123c1.119 0.304 2.173 0.594 3.424 0.598 1.251-0.005 2.306-0.294 3.424-0.598l0.456-0.123c0.226-0.064 0.471 0.049 0.569 0.265l2.836 6.010c0.059 0.128 0.064 0.275 0.005 0.407-0.059 0.128-0.167 0.231-0.299 0.27-2.497 0.8-4.636 1.172-6.701 1.172zM14.462 9.429c1.918 0.039 3.89-0.27 6.171-0.957l-2.419-5.127-0.059 0.015c-1.133 0.309-2.301 0.628-3.684 0.633v0c-1.383-0.005-2.551-0.324-3.684-0.633l-0.059-0.015-2.419 5.127c2.286 0.687 4.243 0.996 6.157 0.957z"></path>
<path d="M27.418 31.853h-25.618c-0.996 0-1.8-0.809-1.8-1.8v-3.385c0-1.020 0.829-1.854 1.854-1.854h1.060c0.27 0 0.491 0.221 0.491 0.491s-0.221 0.491-0.491 0.491h-1.060c-0.481 0-0.873 0.392-0.873 0.873v3.385c0 0.451 0.368 0.819 0.819 0.819h25.618c0.451 0 0.824-0.368 0.824-0.824v-10.626c0-0.27 0.221-0.491 0.491-0.491s0.491 0.221 0.491 0.491v10.626c0 0.996-0.809 1.805-1.805 1.805z"></path>
</svg>
