<!-- Generated by IcoMoon.io -->
<svg version="1.1" xmlns="http://www.w3.org/2000/svg" width="32" height="32" viewBox="0 0 32 32">
<title>Icons_Directory</title>
<path d="M30.716 19.591h-10.489c-0.71 0-1.284-0.578-1.284-1.284v-8.069c0-0.71 0.578-1.284 1.284-1.284h10.489c0.71 0 1.284 0.578 1.284 1.284v8.069c0 0.71-0.578 1.284-1.284 1.284zM20.228 9.93c-0.167 0-0.304 0.137-0.304 0.304v8.069c0 0.167 0.137 0.304 0.304 0.304h10.489c0.167 0 0.304-0.137 0.304-0.304v-8.069c0-0.167-0.137-0.304-0.304-0.304h-10.489z"></path>
<path d="M21.57 9.847c-0.269 0-0.49-0.22-0.49-0.49v-3.263c0-2.425 1.969-4.394 4.394-4.394s4.394 1.969 4.394 4.394c0 0.269-0.22 0.49-0.49 0.49s-0.49-0.22-0.49-0.49c0-1.881-1.528-3.415-3.415-3.415s-3.415 1.533-3.415 3.415v3.263c0 0.269-0.22 0.49-0.49 0.49z"></path>
<path d="M25.474 15.603c-0.269 0-0.49-0.22-0.49-0.49v-1.484c0-0.269 0.22-0.49 0.49-0.49s0.49 0.22 0.49 0.49v1.484c0 0.269-0.22 0.49-0.49 0.49z"></path>
<path d="M25.44 30.3h-24.946c-0.269 0-0.49-0.22-0.49-0.49v-18.161c0-0.269 0.22-0.49 0.49-0.49h18.881c0.269 0 0.49 0.22 0.49 0.49s-0.22 0.49-0.49 0.49h-18.391v17.181h23.966v-10.053c0-0.269 0.22-0.49 0.49-0.49s0.49 0.22 0.49 0.49v10.543c0 0.269-0.22 0.49-0.49 0.49z"></path>
<path d="M11.855 12.14s-0.024 0-0.034 0c-0.269-0.020-0.47-0.255-0.451-0.524 0.059-0.828-0.034-2.19-0.426-2.616-0.073-0.078-0.137-0.108-0.23-0.108h-9.063c-0.093 0-0.157 0.029-0.23 0.108-0.397 0.426-0.49 1.783-0.426 2.616 0.020 0.269-0.181 0.505-0.451 0.524-0.265 0.020-0.505-0.181-0.524-0.451-0.020-0.25-0.152-2.45 0.686-3.356 0.255-0.274 0.583-0.421 0.946-0.421h9.063c0.363 0 0.691 0.147 0.95 0.421 0.843 0.906 0.706 3.106 0.686 3.356-0.020 0.26-0.235 0.456-0.49 0.456z"></path>
</svg>
