<!-- Generated by IcoMoon.io -->
<svg version="1.1" xmlns="http://www.w3.org/2000/svg" width="32" height="32" viewBox="0 0 32 32">
<title>Icons_Shared-Mailbox</title>
<path d="M20.667 23.684h-9.298c-0.498 0-0.9-0.405-0.9-0.9v-5.981c0-0.498 0.405-0.9 0.9-0.9h9.298c0.498 0 0.9 0.405 0.9 0.9v5.981c0 0.498-0.405 0.9-0.9 0.9zM11.368 16.672c-0.070 0-0.127 0.058-0.127 0.127v5.981c0 0.070 0.058 0.127 0.127 0.127h9.298c0.070 0 0.127-0.058 0.127-0.127v-5.981c0-0.070-0.058-0.127-0.127-0.127h-9.298z"></path>
<path d="M16.072 21.476c-0.247 0-0.475-0.1-0.599-0.185-0.015-0.012-0.031-0.023-0.042-0.035l-4.726-4.421c-0.154-0.147-0.162-0.39-0.019-0.544 0.147-0.154 0.39-0.162 0.544-0.019l4.696 4.394c0.039 0.019 0.139 0.070 0.197 0.019 0.297-0.259 4.657-4.298 4.699-4.336 0.154-0.147 0.402-0.135 0.544 0.019 0.147 0.158 0.135 0.402-0.019 0.544-0.181 0.166-4.41 4.085-4.715 4.352-0.178 0.158-0.378 0.212-0.564 0.212z"></path>
<path d="M11.009 23.53c-0.124 0-0.243-0.058-0.317-0.166-0.124-0.174-0.077-0.417 0.097-0.537l3.973-2.765c0.174-0.124 0.417-0.077 0.537 0.097 0.124 0.174 0.077 0.417-0.097 0.537l-3.973 2.765c-0.066 0.046-0.143 0.070-0.22 0.070z"></path>
<path d="M20.987 23.406c-0.077 0-0.154-0.023-0.224-0.070l-3.842-2.734c-0.174-0.124-0.216-0.367-0.093-0.537 0.124-0.174 0.363-0.216 0.537-0.093l3.842 2.734c0.174 0.124 0.216 0.367 0.093 0.537-0.077 0.104-0.193 0.162-0.317 0.162z"></path>
<path d="M16.346 8.022c-1.483 0-2.688-1.205-2.688-2.688s1.205-2.688 2.688-2.688 2.688 1.205 2.688 2.688-1.205 2.688-2.688 2.688zM16.346 3.419c-1.054 0-1.915 0.857-1.915 1.915s0.857 1.915 1.915 1.915 1.915-0.857 1.915-1.915-0.857-1.915-1.915-1.915z"></path>
<path d="M20.91 13.173c-0.212 0-0.386-0.174-0.386-0.386 0-1.981-1.614-3.595-3.595-3.595h-1.166c-1.981 0-3.595 1.614-3.595 3.595 0 0.212-0.174 0.386-0.386 0.386s-0.386-0.174-0.386-0.386c0-2.41 1.962-4.367 4.367-4.367h1.166c2.41 0 4.367 1.958 4.367 4.367 0 0.212-0.174 0.386-0.386 0.386z"></path>
<path d="M27.046 23.765c-1.483 0-2.688-1.205-2.688-2.688s1.205-2.688 2.688-2.688 2.688 1.205 2.688 2.688-1.205 2.688-2.688 2.688zM27.046 19.163c-1.054 0-1.915 0.857-1.915 1.915s0.857 1.915 1.915 1.915 1.915-0.857 1.915-1.915-0.857-1.915-1.915-1.915z"></path>
<path d="M31.614 28.917c-0.212 0-0.386-0.174-0.386-0.386 0-1.981-1.614-3.595-3.595-3.595h-1.166c-1.981 0-3.595 1.614-3.595 3.595 0 0.212-0.174 0.386-0.386 0.386s-0.386-0.174-0.386-0.386c0-2.41 1.962-4.367 4.367-4.367h1.166c2.41 0 4.367 1.958 4.367 4.367 0 0.212-0.174 0.386-0.386 0.386z"></path>
<path d="M4.95 24.202c-1.483 0-2.688-1.205-2.688-2.688s1.205-2.688 2.688-2.688 2.688 1.205 2.688 2.688-1.205 2.688-2.688 2.688zM4.95 19.599c-1.054 0-1.915 0.857-1.915 1.915s0.857 1.915 1.915 1.915 1.915-0.857 1.915-1.915-0.857-1.915-1.915-1.915z"></path>
<path d="M9.515 29.353c-0.212 0-0.386-0.174-0.386-0.386 0-1.981-1.614-3.595-3.595-3.595h-1.166c-1.981 0-3.595 1.614-3.595 3.595 0 0.212-0.174 0.386-0.386 0.386s-0.386-0.174-0.386-0.386c0-2.41 1.962-4.367 4.367-4.367h1.166c2.41 0 4.367 1.958 4.367 4.367 0 0.212-0.174 0.386-0.386 0.386z"></path>
</svg>
