<!-- Generated by IcoMoon.io -->
<svg version="1.1" xmlns="http://www.w3.org/2000/svg" width="32" height="32" viewBox="0 0 32 32">
<title>Icons_vCIO</title>
<path d="M11.585 8.559c-2.127 0-3.858-1.731-3.858-3.858s1.731-3.858 3.858-3.858 3.858 1.731 3.858 3.858c0 0.213-0.175 0.388-0.388 0.388s-0.388-0.175-0.388-0.388c0-1.7-1.382-3.082-3.082-3.082s-3.082 1.382-3.082 3.082 1.382 3.082 3.082 3.082c0.213 0 0.388 0.175 0.388 0.388s-0.175 0.388-0.388 0.388z"></path>
<path d="M20.512 9.793c-0.070 0-0.144-0.019-0.206-0.058-0.182-0.113-0.237-0.353-0.12-0.536l4.553-7.22c0.113-0.182 0.353-0.237 0.536-0.12 0.182 0.113 0.237 0.353 0.12 0.536l-4.553 7.22c-0.074 0.116-0.198 0.182-0.33 0.182z"></path>
<path d="M13.735 9.467c-0.144 0-0.279-0.082-0.349-0.217l-2.15-4.378c-0.093-0.194-0.016-0.427 0.179-0.52 0.19-0.093 0.423-0.016 0.52 0.179l2.15 4.378c0.093 0.194 0.016 0.427-0.179 0.52-0.054 0.027-0.113 0.039-0.171 0.039z"></path>
<path d="M11.585 6.886c-1.203 0-2.185-0.982-2.185-2.185s0.982-2.185 2.185-2.185 2.185 0.982 2.185 2.185-0.982 2.185-2.185 2.185zM11.585 3.292c-0.776 0-1.409 0.633-1.409 1.409s0.633 1.409 1.409 1.409 1.409-0.633 1.409-1.409-0.633-1.409-1.409-1.409z"></path>
<path d="M25.065 4.371c-1.203 0-2.185-0.982-2.185-2.185s0.982-2.185 2.185-2.185 2.185 0.982 2.185 2.185-0.982 2.185-2.185 2.185zM25.065 0.776c-0.776 0-1.409 0.633-1.409 1.409s0.633 1.409 1.409 1.409 1.409-0.633 1.409-1.409-0.633-1.409-1.409-1.409z"></path>
<path d="M23.482 13.822c-0.171 0-0.326-0.113-0.373-0.283-0.058-0.206 0.062-0.419 0.268-0.477l3.827-1.067c0.206-0.058 0.419 0.062 0.477 0.268s-0.062 0.419-0.268 0.477l-3.827 1.067c-0.035 0.012-0.070 0.016-0.105 0.016z"></path>
<path d="M3.022 19.532c-0.171 0-0.326-0.113-0.373-0.283-0.058-0.206 0.062-0.419 0.268-0.477l6.979-1.949c0.206-0.058 0.419 0.062 0.477 0.268s-0.062 0.419-0.268 0.477l-6.979 1.949c-0.035 0.012-0.070 0.016-0.105 0.016z"></path>
<path d="M27.309 14.711c-1.296 0-2.348-1.052-2.348-2.348s1.052-2.348 2.348-2.348 2.348 1.052 2.348 2.348-1.052 2.348-2.348 2.348zM27.309 10.791c-0.866 0-1.572 0.706-1.572 1.572s0.706 1.572 1.572 1.572 1.572-0.706 1.572-1.572-0.706-1.572-1.572-1.572z"></path>
<path d="M22.069 26.457c-0.144 0-0.283-0.081-0.349-0.217l-2.193-4.491c-0.093-0.194-0.016-0.423 0.179-0.52 0.194-0.093 0.427-0.016 0.52 0.179l2.193 4.491c0.093 0.194 0.016 0.423-0.179 0.52-0.054 0.027-0.113 0.039-0.171 0.039z"></path>
<path d="M3.022 20.821c-0.924 0-1.677-0.753-1.677-1.677s0.753-1.677 1.677-1.677 1.677 0.753 1.677 1.677-0.753 1.677-1.677 1.677zM3.022 18.244c-0.497 0-0.901 0.404-0.901 0.901s0.404 0.901 0.901 0.901 0.901-0.404 0.901-0.901-0.404-0.901-0.901-0.901z"></path>
<path d="M16.794 22.641c-4.049 0-7.34-3.292-7.34-7.34s3.292-7.34 7.34-7.34 7.34 3.292 7.34 7.34-3.292 7.34-7.34 7.34zM16.794 8.738c-3.618 0-6.564 2.942-6.564 6.564s2.942 6.564 6.564 6.564 6.564-2.942 6.564-6.564-2.942-6.564-6.564-6.564z"></path>
<path d="M19.088 20.258h-4.522c-0.827 0-1.522-0.543-1.723-1.347s0.151-1.607 0.881-1.999c0.12-0.066 0.248-0.124 0.369-0.182 0.575-0.268 0.831-0.411 0.831-0.982 0-0.213 0.175-0.388 0.388-0.388s0.388 0.175 0.388 0.388c0 1.091-0.71 1.421-1.281 1.685-0.109 0.050-0.221 0.101-0.33 0.163-0.505 0.272-0.586 0.757-0.497 1.126 0.089 0.349 0.396 0.761 0.97 0.761h4.522c0.575 0 0.881-0.408 0.967-0.757 0.089-0.349 0.012-0.854-0.497-1.126-0.12-0.066-0.252-0.12-0.38-0.175-0.54-0.225-1.281-0.536-1.281-1.607 0-0.213 0.175-0.388 0.388-0.388s0.388 0.175 0.388 0.388c0 0.536 0.245 0.66 0.803 0.893 0.151 0.062 0.307 0.128 0.45 0.206 0.73 0.392 1.083 1.196 0.881 1.999s-0.893 1.347-1.72 1.347z"></path>
<path d="M16.829 16.881h-0.008c-0.652 0-1.246-0.283-1.723-0.811-0.967-1.075-1.25-2.942-0.644-4.254 0.45-0.978 1.324-1.498 2.449-1.471 1.615 0.043 2.64 1.246 2.612 3.066-0.023 1.708-1.036 3.47-2.69 3.47zM16.825 16.105v0c1.157 0 1.894-1.401 1.914-2.705 0.016-1.075-0.462-2.24-1.855-2.278-1.029-0.023-1.502 0.54-1.723 1.021-0.47 1.017-0.233 2.577 0.516 3.412 0.33 0.365 0.714 0.551 1.145 0.555v0z"></path>
<path d="M23.373 32c-1.82 0-3.303-1.483-3.303-3.303s1.483-3.303 3.303-3.303 3.303 1.483 3.303 3.303-1.483 3.303-3.303 3.303zM23.373 26.17c-1.393 0-2.527 1.133-2.527 2.527s1.133 2.527 2.527 2.527 2.527-1.133 2.527-2.527-1.133-2.527-2.527-2.527z"></path>
<path d="M16.825 18.919c-0.213 0-0.388-0.175-0.388-0.388v-2.038c0-0.213 0.175-0.388 0.388-0.388s0.388 0.175 0.388 0.388v2.038c0 0.213-0.175 0.388-0.388 0.388z"></path>
<path d="M27.309 15.709c-0.213 0-0.388-0.175-0.388-0.388s0.175-0.388 0.388-0.388c1.417 0 2.57-1.153 2.57-2.57s-1.153-2.57-2.57-2.57c-0.213 0-0.388-0.175-0.388-0.388s0.175-0.388 0.388-0.388c1.844 0 3.346 1.502 3.346 3.346s-1.502 3.346-3.346 3.346z"></path>
<path d="M15.416 13.764c-0.547 0-0.908-0.058-0.947-0.062-0.21-0.035-0.353-0.233-0.318-0.446 0.035-0.21 0.233-0.353 0.446-0.322 0.023 0.004 2.337 0.361 4.184-0.893 0.179-0.12 0.419-0.074 0.54 0.105s0.074 0.419-0.105 0.54c-1.339 0.904-2.845 1.079-3.796 1.079z"></path>
<path d="M24.324 28.324h-1.898c-0.213 0-0.388-0.175-0.388-0.388s0.175-0.388 0.388-0.388h1.898c0.213 0 0.388 0.175 0.388 0.388s-0.175 0.388-0.388 0.388z"></path>
<path d="M24.324 29.846h-1.898c-0.213 0-0.388-0.175-0.388-0.388s0.175-0.388 0.388-0.388h1.898c0.213 0 0.388 0.175 0.388 0.388s-0.175 0.388-0.388 0.388z"></path>
</svg>
