<!-- Generated by IcoMoon.io -->
<svg version="1.1" xmlns="http://www.w3.org/2000/svg" width="32" height="32" viewBox="0 0 32 32">
<title>Icons_Install</title>
<path d="M26.439 19.427v0c-0.159 0-0.307-0.082-0.399-0.211l-3.732-5.518c-0.101-0.149-0.11-0.336-0.024-0.495 0.082-0.159 0.245-0.255 0.423-0.255h2.32c0.053 0 0.101 0.010 0.149 0.024 0.048-0.014 0.096-0.024 0.149-0.024h4.851c0.178 0 0.341 0.096 0.423 0.255s0.072 0.346-0.024 0.495l-3.736 5.518c-0.091 0.13-0.24 0.211-0.399 0.211zM23.61 13.908l2.829 4.183 2.829-4.183h-3.943c-0.053 0-0.101-0.010-0.149-0.024-0.048 0.014-0.096 0.024-0.149 0.024h-1.417z"></path>
<path d="M12.127 22.957c-0.408 0-0.778-0.303-0.86-0.706l-0.471-2.238c-0.010-0.038-0.062-0.11-0.096-0.125l-1.47-0.845c-0.067-0.038-0.154-0.053-0.187-0.043l-2.185 0.711c-0.384 0.13-0.831-0.038-1.037-0.394l-1.297-2.243c-0.207-0.355-0.125-0.826 0.183-1.095l1.7-1.527c0.029-0.029 0.062-0.111 0.062-0.149v-1.695c0-0.077-0.034-0.159-0.058-0.187l-1.705-1.537c-0.303-0.264-0.379-0.735-0.178-1.095l1.292-2.243c0.207-0.355 0.653-0.524 1.042-0.389l2.176 0.701c0.038 0.010 0.125 0 0.159-0.019l1.47-0.85c0.067-0.038 0.12-0.106 0.13-0.139l0.475-2.248c0.077-0.394 0.447-0.701 0.855-0.701h2.598c0.408 0 0.778 0.303 0.86 0.701l0.475 2.238c0.010 0.038 0.062 0.111 0.096 0.125l1.47 0.845c0.062 0.038 0.154 0.053 0.187 0.043l2.185-0.711c0.379-0.13 0.831 0.038 1.033 0.394l1.297 2.248c0.207 0.355 0.125 0.826-0.183 1.1l-1.7 1.527c-0.029 0.029-0.062 0.111-0.062 0.149v1.695c0 0.077 0.034 0.159 0.058 0.183l1.705 1.537c0.303 0.264 0.379 0.74 0.178 1.095l-1.292 2.243c-0.207 0.355-0.648 0.523-1.042 0.389l-2.176-0.701c-0.043-0.010-0.13 0-0.159 0.019l-1.47 0.85c-0.067 0.038-0.12 0.106-0.13 0.139l-0.475 2.243c-0.077 0.399-0.447 0.701-0.86 0.701h-2.598zM14.643 22.058v0zM12.208 22.058v0zM9.072 18.039c0.24 0 0.49 0.072 0.672 0.197l1.398 0.802c0.264 0.12 0.528 0.461 0.591 0.783l0.461 2.176h2.459l0.461-2.18c0.062-0.317 0.327-0.658 0.629-0.797l1.398-0.807c0.24-0.168 0.663-0.231 0.975-0.12l2.113 0.682 1.225-2.123-1.657-1.494c-0.245-0.216-0.403-0.615-0.375-0.941v-1.614c-0.029-0.288 0.13-0.687 0.379-0.903l1.652-1.489-1.229-2.128-2.123 0.687c-0.307 0.106-0.73 0.043-1.004-0.144l-1.402-0.807c-0.264-0.12-0.528-0.461-0.591-0.783l-0.461-2.176h-2.459l-0.461 2.18c-0.062 0.317-0.327 0.658-0.629 0.797l-1.398 0.807c-0.235 0.168-0.663 0.226-0.975 0.12l-2.113-0.682-1.225 2.123 1.657 1.494c0.245 0.216 0.403 0.615 0.375 0.941v1.614c0.029 0.288-0.13 0.687-0.379 0.908l-1.652 1.484 1.229 2.128 2.123-0.687c0.101-0.034 0.216-0.053 0.331-0.053zM6.656 18.836v0zM6.56 18.798v0zM20.291 18.798v0zM21.511 16.699v0zM5.355 16.694v0zM21.511 10.172v0zM5.345 10.167v0zM6.565 8.073v0zM20.305 8.073v0zM12.218 4.807v0z"></path>
<path d="M28.6 32h-25.199c-1.873 0-3.4-1.522-3.4-3.4s1.522-3.4 3.4-3.4h25.199c1.873 0 3.4 1.522 3.4 3.4s-1.522 3.4-3.4 3.4zM3.4 26.16c-1.345 0-2.44 1.095-2.44 2.44s1.095 2.44 2.44 2.44h25.199c1.345 0 2.44-1.095 2.44-2.44s-1.095-2.44-2.44-2.44h-25.199z"></path>
<path d="M21.521 29.085h-18.125c-0.264 0-0.48-0.216-0.48-0.48s0.216-0.48 0.48-0.48h18.125c0.264 0 0.48 0.216 0.48 0.48s-0.216 0.48-0.48 0.48z"></path>
<path d="M4.164 22.957c-0.125 0-0.25-0.048-0.341-0.144-2.464-2.521-3.823-5.854-3.823-9.384 0-7.401 6.023-13.428 13.428-13.428s13.428 6.023 13.428 13.428c0 0.264-0.216 0.48-0.48 0.48s-0.48-0.216-0.48-0.48c0-6.873-5.59-12.468-12.468-12.468s-12.468 5.59-12.468 12.468c0 3.275 1.258 6.368 3.549 8.712 0.187 0.192 0.183 0.495-0.010 0.677-0.091 0.091-0.216 0.139-0.336 0.139z"></path>
<path d="M13.375 17.112c-2.041 0-3.698-1.657-3.698-3.698s1.662-3.698 3.698-3.698 3.698 1.662 3.698 3.698-1.662 3.698-3.698 3.698zM13.375 10.676c-1.508 0-2.737 1.229-2.737 2.738s1.229 2.738 2.738 2.738 2.738-1.229 2.738-2.738-1.229-2.738-2.738-2.738z"></path>
</svg>
