<!-- Generated by IcoMoon.io -->
<svg version="1.1" xmlns="http://www.w3.org/2000/svg" width="32" height="32" viewBox="0 0 32 32">
<title>Icons_Quote2</title>
<path d="M10.976 21.94c-0.057 0-0.114-0.012-0.171-0.037-0.143-0.065-0.237-0.212-0.237-0.372v-3.131c-1.976-0.204-3.519-1.878-3.519-3.907 0-2.168 1.764-3.928 3.928-3.928 2.315 0 3.928 1.821 3.928 4.43 0 3.666-3.515 6.72-3.662 6.847-0.074 0.065-0.171 0.098-0.265 0.098zM10.976 11.378c-1.715 0-3.111 1.396-3.111 3.111s1.396 3.111 3.111 3.111c0.225 0 0.408 0.184 0.408 0.408v2.548c0.984-1.045 2.703-3.209 2.703-5.569 0-2.127-1.278-3.613-3.111-3.613z"></path>
<path d="M21.036 21.94c-0.057 0-0.114-0.012-0.171-0.037-0.143-0.065-0.237-0.212-0.237-0.372v-3.131c-1.976-0.204-3.519-1.878-3.519-3.907 0-2.168 1.764-3.928 3.928-3.928 2.352 0 3.928 1.78 3.928 4.43 0 3.666-3.515 6.72-3.662 6.847-0.074 0.065-0.171 0.098-0.265 0.098zM21.036 11.378c-1.715 0-3.111 1.396-3.111 3.111s1.396 3.111 3.111 3.111c0.225 0 0.408 0.184 0.408 0.408v2.548c0.984-1.045 2.703-3.209 2.703-5.569 0-2.197-1.221-3.613-3.111-3.613z"></path>
<path d="M0.414 32c-0.106 0-0.212-0.041-0.29-0.118-0.102-0.102-0.143-0.253-0.106-0.396l2.050-7.655c-1.702-3.013-2.372-6.426-1.935-9.876 0.923-7.304 6.904-13.138 14.22-13.873 4.83-0.482 9.55 1.196 12.959 4.601 3.409 3.409 5.087 8.133 4.605 12.959-0.731 7.32-6.565 13.302-13.869 14.224-3.45 0.437-6.867-0.233-9.88-1.935l-7.655 2.049c-0.037 0.008-0.069 0.012-0.106 0.012zM8.228 29.089c0.069 0 0.143 0.020 0.204 0.053 2.895 1.674 6.185 2.335 9.517 1.915 6.933-0.878 12.465-6.553 13.159-13.497 0.457-4.585-1.135-9.068-4.369-12.301s-7.72-4.826-12.301-4.369c-6.945 0.694-12.62 6.23-13.493 13.163-0.421 3.332 0.241 6.618 1.915 9.513 0.053 0.094 0.069 0.204 0.041 0.31l-1.911 7.133 7.132-1.911c0.033-0.008 0.069-0.012 0.106-0.012z"></path>
</svg>
