<!-- Generated by IcoMoon.io -->
<svg version="1.1" xmlns="http://www.w3.org/2000/svg" width="32" height="32" viewBox="0 0 32 32">
<title>Icons_Computer-Chip</title>
<path d="M4.512 9.977h-4.098c-0.228 0-0.414-0.186-0.414-0.414s0.186-0.414 0.414-0.414h4.098c0.228 0 0.414 0.186 0.414 0.414s-0.186 0.414-0.414 0.414z"></path>
<path d="M4.512 14.27h-4.098c-0.228 0-0.414-0.186-0.414-0.414s0.186-0.414 0.414-0.414h4.098c0.228 0 0.414 0.186 0.414 0.414s-0.186 0.414-0.414 0.414z"></path>
<path d="M4.512 18.558h-4.098c-0.228 0-0.414-0.186-0.414-0.414s0.186-0.414 0.414-0.414h4.098c0.228 0 0.414 0.186 0.414 0.414s-0.186 0.414-0.414 0.414z"></path>
<path d="M4.512 22.851h-4.098c-0.228 0-0.414-0.186-0.414-0.414s0.186-0.414 0.414-0.414h4.098c0.228 0 0.414 0.186 0.414 0.414s-0.186 0.414-0.414 0.414z"></path>
<path d="M31.586 9.977h-4.098c-0.228 0-0.414-0.186-0.414-0.414s0.186-0.414 0.414-0.414h4.098c0.228 0 0.414 0.186 0.414 0.414s-0.186 0.414-0.414 0.414z"></path>
<path d="M31.586 14.27h-4.098c-0.228 0-0.414-0.186-0.414-0.414s0.186-0.414 0.414-0.414h4.098c0.228 0 0.414 0.186 0.414 0.414s-0.186 0.414-0.414 0.414z"></path>
<path d="M31.586 18.558h-4.098c-0.228 0-0.414-0.186-0.414-0.414s0.186-0.414 0.414-0.414h4.098c0.228 0 0.414 0.186 0.414 0.414s-0.186 0.414-0.414 0.414z"></path>
<path d="M31.586 22.851h-4.098c-0.228 0-0.414-0.186-0.414-0.414s0.186-0.414 0.414-0.414h4.098c0.228 0 0.414 0.186 0.414 0.414s-0.186 0.414-0.414 0.414z"></path>
<path d="M9.563 32c-0.228 0-0.414-0.186-0.414-0.414v-4.098c0-0.228 0.186-0.414 0.414-0.414s0.414 0.186 0.414 0.414v4.098c0 0.228-0.186 0.414-0.414 0.414z"></path>
<path d="M13.856 32c-0.228 0-0.414-0.186-0.414-0.414v-4.098c0-0.228 0.186-0.414 0.414-0.414s0.414 0.186 0.414 0.414v4.098c0 0.228-0.186 0.414-0.414 0.414z"></path>
<path d="M18.144 32c-0.228 0-0.414-0.186-0.414-0.414v-4.098c0-0.228 0.186-0.414 0.414-0.414s0.414 0.186 0.414 0.414v4.098c0 0.228-0.186 0.414-0.414 0.414z"></path>
<path d="M22.437 32c-0.228 0-0.414-0.186-0.414-0.414v-4.098c0-0.228 0.186-0.414 0.414-0.414s0.414 0.186 0.414 0.414v4.098c0 0.228-0.186 0.414-0.414 0.414z"></path>
<path d="M9.563 4.926c-0.228 0-0.414-0.186-0.414-0.414v-4.098c0-0.228 0.186-0.414 0.414-0.414s0.414 0.186 0.414 0.414v4.098c0 0.228-0.186 0.414-0.414 0.414z"></path>
<path d="M13.856 4.926c-0.228 0-0.414-0.186-0.414-0.414v-4.098c0-0.228 0.186-0.414 0.414-0.414s0.414 0.186 0.414 0.414v4.098c0 0.228-0.186 0.414-0.414 0.414z"></path>
<path d="M18.144 4.926c-0.228 0-0.414-0.186-0.414-0.414v-4.098c0-0.228 0.186-0.414 0.414-0.414s0.414 0.186 0.414 0.414v4.098c0 0.228-0.186 0.414-0.414 0.414z"></path>
<path d="M22.437 4.926c-0.228 0-0.414-0.186-0.414-0.414v-4.098c0-0.228 0.186-0.414 0.414-0.414s0.414 0.186 0.414 0.414v4.098c0 0.228-0.186 0.414-0.414 0.414z"></path>
<path d="M27.488 27.902h-22.98c-0.228 0-0.414-0.186-0.414-0.414v-22.98c0-0.228 0.186-0.414 0.414-0.414h22.98c0.228 0 0.414 0.186 0.414 0.414v22.98c0 0.228-0.186 0.414-0.414 0.414zM4.922 27.074h22.152v-22.152h-22.152v22.152z"></path>
<path d="M22.528 22.942h-13.057c-0.228 0-0.414-0.186-0.414-0.414v-13.057c0-0.228 0.186-0.414 0.414-0.414h13.057c0.228 0 0.414 0.186 0.414 0.414v13.057c0 0.228-0.186 0.414-0.414 0.414zM9.886 22.114h12.229v-12.229h-12.229v12.229z"></path>
</svg>
