<!-- Generated by IcoMoon.io -->
<svg version="1.1" xmlns="http://www.w3.org/2000/svg" width="32" height="32" viewBox="0 0 32 32">
<title>Icons_Telehealth</title>
<path d="M17.715 32h-13.003c-1.663 0-3.018-1.355-3.018-3.018v-25.964c0-1.663 1.355-3.018 3.018-3.018h13.003c1.663 0 3.018 1.355 3.018 3.018v4.176c0 0.236-0.193 0.429-0.429 0.429s-0.429-0.193-0.429-0.429v-4.176c0-1.192-0.969-2.161-2.161-2.161h-13.003c-1.192 0-2.161 0.969-2.161 2.161v25.964c0 1.192 0.969 2.161 2.161 2.161h13.003c1.192 0 2.161-0.969 2.161-2.161v-10.109c0-0.236 0.193-0.429 0.429-0.429s0.429 0.193 0.429 0.429v10.109c0 1.663-1.355 3.018-3.018 3.018z"></path>
<path d="M20.305 29.119h-18.178c-0.236 0-0.429-0.193-0.429-0.429s0.193-0.429 0.429-0.429h18.178c0.236 0 0.429 0.193 0.429 0.429s-0.193 0.429-0.429 0.429z"></path>
<path d="M20.305 4.604h-18.178c-0.236 0-0.429-0.193-0.429-0.429s0.193-0.429 0.429-0.429h18.178c0.236 0 0.429 0.193 0.429 0.429s-0.193 0.429-0.429 0.429z"></path>
<path d="M12.6 2.632h-2.774c-0.236 0-0.429-0.193-0.429-0.429s0.193-0.429 0.429-0.429h2.774c0.236 0 0.429 0.193 0.429 0.429s-0.193 0.429-0.429 0.429z"></path>
<path d="M11.216 20.382c-1.458 0-2.834-1.179-3.721-3.173-0.099-0.017-0.21-0.060-0.33-0.137-0.463-0.313-0.78-1.080-0.892-1.698-0.167-0.922 0.116-1.466 0.476-1.711 0.214-0.592 0.815-1.449 1.981-1.449 2.358 0 3.477-1.136 3.524-1.183 0.116-0.12 0.296-0.163 0.454-0.107s0.27 0.201 0.283 0.373c0.004 0.064 0.167 1.659 2.444 2.251 0.472 0.15 0.922 0.716 0.725 1.826-0.111 0.617-0.429 1.38-0.892 1.698-0.12 0.081-0.232 0.12-0.33 0.137-0.892 1.994-2.264 3.173-3.721 3.173zM7.76 16.322c0.047 0 0.090 0.009 0.133 0.021 0.12 0.039 0.219 0.124 0.266 0.24 0.733 1.814 1.908 2.941 3.057 2.941s2.319-1.128 3.057-2.941c0.047-0.116 0.146-0.21 0.266-0.249 0.090-0.030 0.189-0.026 0.274 0.004 0.142-0.12 0.399-0.544 0.502-1.119 0.099-0.544-0.030-0.823-0.12-0.853-1.861-0.485-2.594-1.569-2.877-2.298-0.639 0.429-1.822 1.003-3.588 1.003-0.93 0-1.179 0.887-1.205 0.99-0.034 0.142-0.146 0.261-0.283 0.304-0.090 0.030-0.219 0.309-0.12 0.853 0.103 0.579 0.364 1.008 0.502 1.123 0.047-0.013 0.094-0.021 0.141-0.021zM7.533 16.386v0zM7.661 16.373v0zM7.108 13.964v0z"></path>
<path d="M6.092 21.723c-0.176 0-0.339-0.107-0.403-0.283-0.476-1.329-0.729-2.834-0.729-4.356 0-2.911 0.892-5.595 2.448-7.353 0.159-0.176 0.429-0.193 0.604-0.039 0.176 0.159 0.193 0.429 0.039 0.604-1.398 1.582-2.234 4.12-2.234 6.787 0 1.423 0.236 2.825 0.682 4.064 0.081 0.223-0.034 0.467-0.257 0.549-0.047 0.017-0.099 0.026-0.146 0.026z"></path>
<path d="M16.335 21.723c-0.047 0-0.099-0.009-0.146-0.026-0.223-0.081-0.339-0.326-0.257-0.549 0.446-1.239 0.682-2.641 0.682-4.064 0-2.667-0.836-5.205-2.234-6.787-0.159-0.176-0.142-0.446 0.039-0.604 0.176-0.154 0.45-0.142 0.604 0.039 1.556 1.762 2.452 4.442 2.452 7.353 0 1.518-0.253 3.027-0.729 4.356-0.064 0.176-0.227 0.283-0.403 0.283z"></path>
<path d="M3.781 27.653s-0.017 0-0.030 0c-0.236-0.017-0.416-0.219-0.399-0.454 0.261-3.91 1.072-5.775 2.709-6.221l2.667-0.733 0.043-1.239c0.009-0.236 0.219-0.424 0.442-0.416 0.236 0.009 0.42 0.206 0.416 0.442l-0.051 1.556c-0.004 0.189-0.133 0.352-0.313 0.399l-2.975 0.819c-1.209 0.334-1.852 2.015-2.084 5.453-0.017 0.227-0.206 0.399-0.429 0.399z"></path>
<path d="M18.65 27.653c-0.223 0-0.412-0.176-0.429-0.399-0.232-3.438-0.875-5.119-2.084-5.453l-2.971-0.819c-0.189-0.051-0.317-0.223-0.317-0.42l0.021-1.629c0-0.236 0.193-0.424 0.429-0.424h0.004c0.236 0 0.424 0.197 0.424 0.433l-0.017 1.295 2.654 0.729c1.638 0.45 2.448 2.311 2.709 6.221 0.017 0.236-0.163 0.442-0.399 0.454-0.009 0-0.017 0-0.030 0z"></path>
<path d="M11.216 24.562c-0.785 0-1.895-1.188-3.301-3.533-0.12-0.201-0.056-0.467 0.146-0.587 0.201-0.124 0.467-0.056 0.587 0.146 1.363 2.272 2.298 3.117 2.568 3.117s1.205-0.845 2.568-3.117c0.12-0.201 0.386-0.27 0.587-0.146 0.201 0.12 0.27 0.386 0.146 0.587-1.406 2.345-2.517 3.533-3.301 3.533z"></path>
<path d="M14.294 11.117c-0.073 0-0.146-0.017-0.21-0.056-0.763-0.429-1.779-0.922-2.872-0.922s-2.105 0.493-2.872 0.922c-0.111 0.064-0.253 0.073-0.373 0.021s-0.214-0.15-0.249-0.279l-0.866-2.984c-0.064-0.214 0.051-0.442 0.257-0.519 0.352-0.137 0.694-0.334 1.050-0.549 0.797-0.472 1.702-1.003 3.048-1.003s2.251 0.532 3.048 1.003c0.36 0.214 0.699 0.412 1.050 0.549 0.21 0.081 0.322 0.304 0.257 0.519l-0.866 2.984c-0.034 0.124-0.129 0.227-0.249 0.279-0.051 0.021-0.107 0.030-0.163 0.030zM7.781 7.949l0.613 2.114c0.785-0.403 1.754-0.776 2.817-0.776s2.032 0.377 2.817 0.776l0.613-2.114c-0.283-0.137-0.553-0.296-0.819-0.45-0.737-0.433-1.501-0.883-2.615-0.883s-1.878 0.45-2.615 0.883c-0.266 0.154-0.536 0.313-0.819 0.45z"></path>
<path d="M16.24 26.186c-0.236 0-0.429-0.193-0.429-0.429 0-2.607-1.115-4.459-1.128-4.48-0.124-0.201-0.060-0.467 0.142-0.592s0.463-0.060 0.587 0.142c0.051 0.081 1.256 2.066 1.256 4.926 0 0.236-0.193 0.429-0.429 0.429z"></path>
<path d="M16.24 27.653c-0.639 0-1.162-0.519-1.162-1.162s0.519-1.162 1.162-1.162 1.162 0.519 1.162 1.162-0.519 1.162-1.162 1.162zM16.24 26.186c-0.167 0-0.304 0.137-0.304 0.304s0.137 0.304 0.304 0.304 0.304-0.137 0.304-0.304-0.137-0.304-0.304-0.304z"></path>
<path d="M6.933 22.89s-0.026 0-0.043 0c-0.236-0.021-0.407-0.232-0.386-0.467 0.064-0.682 0.266-1.205 0.407-1.535 0.094-0.219 0.347-0.317 0.562-0.223 0.219 0.094 0.317 0.347 0.223 0.562-0.129 0.304-0.287 0.72-0.339 1.278-0.021 0.223-0.21 0.386-0.424 0.386z"></path>
<path d="M8.043 27.653c-0.236 0-0.429-0.193-0.429-0.429s0.193-0.429 0.429-0.429c0.107-0.347 0.159-0.716 0.159-1.098 0-1.466-0.943-2.624-1.265-2.795-0.326 0.172-1.265 1.329-1.265 2.795 0 0.382 0.051 0.75 0.154 1.098 0.236 0 0.429 0.193 0.429 0.429s-0.189 0.429-0.424 0.429c-0.382 0-0.72-0.253-0.827-0.617-0.124-0.424-0.189-0.875-0.189-1.338 0-1.891 1.325-3.666 2.122-3.666s2.122 1.775 2.122 3.666c0 0.463-0.064 0.909-0.189 1.338-0.107 0.364-0.446 0.617-0.827 0.617z"></path>
<path d="M11.216 9.132c-0.236 0-0.429-0.193-0.429-0.429v-1.458c0-0.236 0.193-0.429 0.429-0.429s0.429 0.193 0.429 0.429v1.458c0 0.236-0.193 0.429-0.429 0.429z"></path>
<path d="M11.944 8.403h-1.458c-0.236 0-0.429-0.193-0.429-0.429s0.193-0.429 0.429-0.429h1.458c0.236 0 0.429 0.193 0.429 0.429s-0.193 0.429-0.429 0.429z"></path>
<path d="M19.558 17.175c-0.077 0-0.154-0.021-0.227-0.064-0.159-0.099-0.236-0.287-0.189-0.472l0.536-2.105c-0.99-0.24-1.723-1.132-1.723-2.195v-2.933c0-1.248 1.016-2.259 2.259-2.259h7.833c1.248 0 2.259 1.016 2.259 2.259v2.933c0 1.248-1.016 2.259-2.259 2.259h-5.351l-2.86 2.474c-0.081 0.069-0.18 0.103-0.279 0.103zM20.21 8.004c-0.772 0-1.402 0.63-1.402 1.402v2.932c0 0.772 0.63 1.402 1.402 1.402 0.133 0 0.257 0.060 0.339 0.167s0.111 0.24 0.077 0.369l-0.317 1.256 1.946-1.685c0.077-0.069 0.176-0.103 0.279-0.103h5.509c0.772 0 1.402-0.63 1.402-1.402v-2.933c0-0.772-0.63-1.402-1.402-1.402h-7.833z"></path>
</svg>
