<!-- Generated by IcoMoon.io -->
<svg version="1.1" xmlns="http://www.w3.org/2000/svg" width="32" height="32" viewBox="0 0 32 32">
<title>Icons_Magnifying-Glass</title>
<path d="M10.352 20.702c-2.65 0-5.305-1.011-7.322-3.028-4.039-4.039-4.039-10.606 0-14.645s10.606-4.039 14.645 0v0c4.039 4.039 4.039 10.606 0 14.645-2.017 2.017-4.672 3.028-7.322 3.028zM10.352 0.84c-2.437 0-4.873 0.927-6.731 2.785-3.712 3.712-3.712 9.746 0 13.458s9.751 3.712 13.458 0c3.712-3.712 3.712-9.746 0-13.458-1.854-1.854-4.294-2.785-6.731-2.785z"></path>
<path d="M29.568 32c-0.26 0-0.503-0.092-0.688-0.277l-10.342-10.342c-0.176-0.176-0.273-0.419-0.273-0.684 0-0.34 0.155-0.688 0.424-0.956l1.048-1.048c0.222-0.222 0.507-0.369 0.793-0.411 0.331-0.046 0.637 0.050 0.851 0.26l10.342 10.342c0.419 0.419 0.352 1.141-0.151 1.644l-1.048 1.048c-0.281 0.281-0.629 0.424-0.956 0.424zM20.694 19.108s-0.029 0-0.046 0c-0.109 0.017-0.222 0.080-0.319 0.172l-1.048 1.048c-0.13 0.13-0.176 0.273-0.176 0.365 0 0.025 0 0.067 0.025 0.092l10.342 10.342c0.055 0.055 0.268 0.038 0.457-0.151l1.048-1.048c0.189-0.189 0.206-0.403 0.151-0.457l-10.342-10.342s-0.050-0.025-0.092-0.025z"></path>
<path d="M19.512 19.93c-0.109 0-0.214-0.042-0.298-0.122l-2.135-2.135c-0.164-0.164-0.164-0.428 0-0.591s0.428-0.164 0.591 0l2.135 2.135c0.164 0.164 0.164 0.428 0 0.591-0.084 0.084-0.189 0.122-0.298 0.122z"></path>
<path d="M2.803 10.771c-0.231 0-0.419-0.189-0.419-0.419 0-4.395 3.577-7.972 7.972-7.972 0.231 0 0.419 0.189 0.419 0.419s-0.189 0.419-0.419 0.419c-3.934 0-7.134 3.2-7.134 7.134 0 0.231-0.189 0.419-0.419 0.419z"></path>
</svg>
