<!-- Generated by IcoMoon.io -->
<svg version="1.1" xmlns="http://www.w3.org/2000/svg" width="32" height="32" viewBox="0 0 32 32">
<title>Icons_API-Integration</title>
<path d="M17.762 25.775h-3.453c-0.185 0-0.333-0.148-0.337-0.333l-0.017-1.39-2.070-0.868-0.976 0.966c-0.064 0.064-0.151 0.087-0.239 0.098-0.091 0-0.175-0.037-0.239-0.101l-2.44-2.474c-0.128-0.131-0.128-0.34 0-0.471l0.959-0.993-0.858-2.104-1.367-0.017c-0.185 0-0.333-0.151-0.333-0.337v-3.501c0-0.185 0.148-0.333 0.333-0.337l1.367-0.017 0.858-2.104-0.959-0.993c-0.128-0.131-0.125-0.34 0-0.471l2.44-2.474c0.064-0.064 0.148-0.101 0.239-0.101 0.091-0.010 0.175 0.034 0.239 0.098l0.976 0.966 2.070-0.868 0.017-1.39c0-0.185 0.151-0.333 0.337-0.333h3.453c0.185 0 0.333 0.148 0.337 0.333l0.017 1.39 2.070 0.868 0.976-0.966c0.064-0.064 0.151-0.111 0.239-0.098 0.091 0 0.175 0.037 0.239 0.101l2.44 2.474c0.128 0.131 0.128 0.34 0 0.471l-0.959 0.993 0.858 2.104 1.367 0.017c0.185 0 0.333 0.151 0.333 0.337v3.501c0 0.185-0.148 0.333-0.333 0.337l-1.367 0.017-0.858 2.104 0.959 0.993c0.128 0.131 0.125 0.34 0 0.471l-2.44 2.474c-0.064 0.064-0.148 0.101-0.239 0.101-0.084-0.007-0.175-0.034-0.239-0.098l-0.976-0.966-2.070 0.868-0.017 1.39c0 0.185-0.151 0.333-0.337 0.333zM14.642 25.102h2.787l0.013-1.279c0-0.135 0.084-0.256 0.205-0.306l2.481-1.040c0.125-0.054 0.269-0.024 0.367 0.071l0.899 0.889 1.976-2.003-0.882-0.916c-0.094-0.098-0.121-0.239-0.071-0.36l1.027-2.514c0.050-0.125 0.172-0.209 0.306-0.209l1.256-0.013v-2.834l-1.256-0.013c-0.135 0-0.256-0.084-0.306-0.209l-1.027-2.514c-0.050-0.124-0.024-0.266 0.071-0.36l0.882-0.915-1.976-2.003-0.899 0.889c-0.098 0.094-0.242 0.124-0.367 0.071l-2.481-1.040c-0.125-0.050-0.205-0.172-0.205-0.306l-0.013-1.279h-2.787l-0.013 1.279c0 0.135-0.084 0.256-0.205 0.306l-2.481 1.040c-0.124 0.054-0.269 0.024-0.367-0.071l-0.895-0.889-1.976 1.999 0.882 0.915c0.094 0.098 0.121 0.239 0.071 0.36l-1.027 2.514c-0.050 0.124-0.172 0.209-0.306 0.209l-1.256 0.013v2.834l1.256 0.013c0.135 0 0.256 0.084 0.306 0.209l1.027 2.514c0.050 0.125 0.024 0.266-0.071 0.36l-0.882 0.916 1.976 1.999 0.895-0.889c0.098-0.094 0.242-0.125 0.367-0.071l2.481 1.040c0.124 0.050 0.205 0.172 0.205 0.306l0.013 1.279zM14.292 8.178v0z"></path>
<path d="M16.035 22.257c-3.403 0-6.173-2.804-6.173-6.254s2.77-6.254 6.173-6.254c0.185 0 0.337 0.151 0.337 0.337s-0.151 0.337-0.337 0.337c-3.033 0-5.5 2.504-5.5 5.581s2.467 5.581 5.5 5.581 5.5-2.504 5.5-5.581c0-0.185 0.151-0.337 0.337-0.337s0.337 0.151 0.337 0.337c0 3.45-2.77 6.254-6.173 6.254z"></path>
<path d="M14.898 17.511c-0.135 0-0.259-0.081-0.313-0.212l-0.882-2.195-0.882 2.195c-0.071 0.172-0.263 0.256-0.438 0.185-0.172-0.071-0.256-0.266-0.185-0.438l1.192-2.972c0.050-0.128 0.175-0.212 0.313-0.212s0.263 0.084 0.313 0.212l1.192 2.972c0.071 0.172-0.013 0.37-0.185 0.438-0.040 0.017-0.084 0.024-0.124 0.024z"></path>
<path d="M14.544 16.636h-1.68c-0.185 0-0.337-0.151-0.337-0.337s0.151-0.337 0.337-0.337h1.68c0.185 0 0.337 0.151 0.337 0.337s-0.151 0.337-0.337 0.337z"></path>
<path d="M16.157 17.596c-0.185 0-0.337-0.151-0.337-0.337v-2.976c0-0.185 0.151-0.337 0.337-0.337h0.845c0.673 0 1.218 0.505 1.218 1.124s-0.549 1.124-1.218 1.124h-0.508v1.064c0 0.185-0.151 0.337-0.337 0.337zM16.493 15.522h0.508c0.303 0 0.545-0.202 0.545-0.451s-0.246-0.451-0.545-0.451h-0.508v0.902z"></path>
<path d="M19.183 17.602c-0.185 0-0.337-0.151-0.337-0.337v-3.13c0-0.185 0.151-0.337 0.337-0.337s0.337 0.151 0.337 0.337v3.13c0 0.185-0.151 0.337-0.337 0.337z"></path>
<path d="M21.872 16.34c-0.185 0-0.337-0.151-0.337-0.337 0-3.076-2.467-5.581-5.5-5.581-0.185 0-0.337-0.151-0.337-0.337s0.151-0.337 0.337-0.337c3.406 0 6.173 2.804 6.173 6.254 0 0.185-0.151 0.337-0.337 0.337z"></path>
<path d="M27.537 18.45c-0.050 0-0.098-0.010-0.145-0.034-0.118-0.057-0.192-0.175-0.192-0.303v-1.363h-0.394c-0.185 0-0.337-0.151-0.337-0.337s0.151-0.337 0.337-0.337h0.73c0.185 0 0.337 0.151 0.337 0.337v0.986l3.262-2.686-3.262-2.686v0.744c0 0.185-0.151 0.337-0.337 0.337h-4.319c-0.185 0-0.337-0.151-0.337-0.337s0.151-0.337 0.337-0.337h3.982v-1.121c0-0.131 0.074-0.249 0.192-0.303s0.256-0.037 0.357 0.044l4.13 3.4c0.077 0.064 0.121 0.158 0.121 0.259s-0.044 0.195-0.121 0.259l-4.13 3.4c-0.061 0.050-0.138 0.077-0.215 0.077z"></path>
<path d="M4.467 21.399c-0.077 0-0.151-0.027-0.215-0.077l-4.13-3.4c-0.077-0.064-0.121-0.158-0.121-0.259s0.044-0.195 0.121-0.259l4.13-3.4c0.101-0.084 0.239-0.101 0.357-0.044s0.192 0.175 0.192 0.303v1.363h0.394c0.185 0 0.337 0.151 0.337 0.337s-0.151 0.337-0.337 0.337h-0.73c-0.185 0-0.337-0.151-0.337-0.337v-0.986l-3.262 2.686 3.262 2.686v-0.744c0-0.185 0.151-0.337 0.337-0.337h4.615c0.185 0 0.337 0.151 0.337 0.337s-0.151 0.337-0.337 0.337h-4.278v1.121c0 0.131-0.074 0.249-0.192 0.303-0.047 0.020-0.094 0.034-0.145 0.034z"></path>
</svg>
