<!-- Generated by IcoMoon.io -->
<svg version="1.1" xmlns="http://www.w3.org/2000/svg" width="32" height="32" viewBox="0 0 32 32">
<title>Icons_Network</title>
<path d="M9.209 31.047c-0.854 0-1.596-0.309-2.203-0.916-0.603-0.603-0.912-1.341-0.912-2.199 0-0.259 0.027-0.514 0.085-0.757 0.131-0.545 0.41-1.028 0.827-1.445 0.607-0.607 1.349-0.912 2.203-0.912 0.429 0 0.827 0.077 1.194 0.228l2.094-3.629c-0.332-0.228-0.653-0.495-0.954-0.796-0.062-0.062-0.128-0.124-0.189-0.189-0.097-0.104-0.185-0.205-0.267-0.305l-0.012-0.015c-0.842-1.032-1.302-2.241-1.376-3.605h-2.245c-0.081 0.869-0.444 1.627-1.078 2.261-0.726 0.727-1.615 1.094-2.639 1.094s-1.913-0.367-2.639-1.097c-0.727-0.727-1.097-1.615-1.097-2.643s0.371-1.917 1.097-2.643c0.727-0.726 1.615-1.097 2.639-1.097s1.913 0.371 2.639 1.097c0.634 0.634 0.997 1.387 1.078 2.249h2.249c0.077-1.341 0.541-2.535 1.38-3.555l0.008-0.008c0.081-0.1 0.17-0.205 0.263-0.305 0.062-0.070 0.128-0.139 0.197-0.205 0.305-0.305 0.634-0.58 0.974-0.812l-0.893-1.55c-0.464 0.209-0.974 0.317-1.519 0.317-1.028 0-1.921-0.367-2.647-1.097-0.726-0.726-1.094-1.615-1.090-2.643 0-0.317 0.039-0.626 0.108-0.912 0.155-0.645 0.483-1.225 0.982-1.727 0.236-0.236 0.495-0.437 0.765-0.595 0.556-0.332 1.19-0.498 1.882-0.502 1.028 0 1.917 0.371 2.643 1.097 0.498 0.498 0.835 1.082 0.989 1.731 0.070 0.29 0.104 0.595 0.104 0.912 0 1.028-0.367 1.917-1.094 2.643-0.143 0.143-0.298 0.274-0.452 0.39l0.893 1.546c0.854-0.429 1.809-0.645 2.836-0.645s1.959 0.216 2.809 0.638l2.249-3.895c-0.108-0.081-0.209-0.174-0.305-0.271-0.607-0.607-0.912-1.349-0.912-2.206s0.305-1.596 0.912-2.203c0.607-0.607 1.349-0.916 2.206-0.916v0c0.858 0 1.6 0.309 2.206 0.916 0.607 0.603 0.916 1.345 0.916 2.203s-0.309 1.604-0.916 2.206c-0.607 0.607-1.349 0.916-2.206 0.916-0.444 0-0.858-0.085-1.24-0.247l-2.241 3.887c0.348 0.232 0.68 0.51 0.997 0.827 0.066 0.062 0.131 0.131 0.193 0.201 0.093 0.097 0.182 0.201 0.267 0.305v0c0.839 1.024 1.298 2.222 1.38 3.563h1.503c0.015-0.209 0.050-0.413 0.097-0.614 0.17-0.707 0.529-1.345 1.074-1.893 0.8-0.792 1.774-1.194 2.898-1.194s2.094 0.402 2.887 1.194c0.549 0.549 0.916 1.186 1.086 1.893 0.073 0.317 0.108 0.649 0.108 0.997 0 1.121-0.402 2.091-1.194 2.887-0.792 0.792-1.762 1.194-2.883 1.194h-0.012c-1.121 0-2.094-0.402-2.89-1.194-0.699-0.703-1.090-1.538-1.175-2.496h-1.503c-0.070 1.372-0.533 2.577-1.376 3.605l-0.012 0.012c-0.085 0.1-0.174 0.201-0.263 0.301-0.066 0.070-0.128 0.128-0.189 0.189-0.313 0.313-0.641 0.587-0.985 0.819l0.881 1.526c0.468-0.213 0.989-0.321 1.546-0.321 1.024 0 1.913 0.371 2.635 1.097 0.502 0.498 0.835 1.078 0.993 1.727 0.070 0.294 0.1 0.599 0.1 0.916 0 1.020-0.363 1.913-1.094 2.639-0.236 0.236-0.491 0.441-0.761 0.603-0.56 0.328-1.179 0.51-1.874 0.495-1.024 0-1.917-0.367-2.647-1.094-0.727-0.727-1.094-1.619-1.090-2.643 0-0.309 0.031-0.614 0.1-0.908 0.158-0.653 0.491-1.233 0.989-1.731 0.139-0.139 0.286-0.267 0.437-0.383l-0.881-1.526c-0.854 0.429-1.805 0.645-2.833 0.645s-2.006-0.224-2.867-0.665l-2.091 3.621c0.116 0.089 0.232 0.189 0.34 0.298 0.417 0.413 0.696 0.9 0.827 1.441 0.058 0.243 0.089 0.498 0.089 0.761 0 0.854-0.309 1.596-0.916 2.199-0.603 0.607-1.345 0.916-2.203 0.916zM9.209 25.591c-0.653 0-1.194 0.224-1.658 0.688-0.321 0.321-0.526 0.672-0.622 1.078-0.043 0.182-0.062 0.371-0.062 0.576 0 0.653 0.224 1.194 0.684 1.654 0.464 0.464 1.005 0.692 1.658 0.692s1.194-0.224 1.654-0.688c0.464-0.46 0.692-1.001 0.692-1.65 0-0.201-0.023-0.394-0.066-0.58-0.097-0.406-0.301-0.757-0.622-1.078-0.155-0.155-0.317-0.282-0.491-0.383-0.012-0.008-0.019-0.012-0.031-0.019-0.332-0.189-0.715-0.286-1.136-0.286zM20.446 23.81c-0.209 0.128-0.41 0.286-0.595 0.471-0.398 0.398-0.661 0.858-0.784 1.364-0.054 0.232-0.081 0.479-0.081 0.73 0 0.827 0.282 1.511 0.866 2.098 0.587 0.584 1.275 0.869 2.102 0.869h0.008c0.545 0 1.040-0.128 1.472-0.386 0.216-0.131 0.417-0.29 0.607-0.483 0.587-0.587 0.869-1.271 0.866-2.094 0-0.259-0.023-0.502-0.077-0.734-0.124-0.506-0.386-0.962-0.788-1.36-0.584-0.587-1.268-0.869-2.091-0.873-0.549 0-1.051 0.131-1.488 0.39-0.004 0-0.012 0.008-0.015 0.008zM13.22 20.962s0.012 0.008 0.015 0.012c0.711 0.421 1.519 0.665 2.404 0.719v-3.636c-0.885 0.054-1.693 0.298-2.411 0.723-0.406 0.24-0.788 0.541-1.136 0.893-0.066 0.066-0.124 0.124-0.182 0.182-0.008 0.008-0.012 0.015-0.019 0.019 0.008 0.008 0.015 0.019 0.027 0.027 0.054 0.054 0.112 0.112 0.17 0.17 0.355 0.355 0.734 0.653 1.128 0.889h0.004zM16.415 18.060v3.636c0.866-0.054 1.658-0.286 2.365-0.696 0.012-0.008 0.019-0.015 0.031-0.023 0.402-0.24 0.788-0.541 1.144-0.896 0.070-0.066 0.124-0.124 0.178-0.178l0.019-0.023s-0.015-0.019-0.027-0.027c-0.050-0.050-0.112-0.112-0.17-0.17-0.359-0.359-0.746-0.661-1.148-0.9-0.715-0.425-1.519-0.665-2.4-0.719zM27.916 19.428c0.927-0.015 1.689-0.317 2.342-0.966 0.653-0.653 0.966-1.418 0.966-2.338 0-0.29-0.027-0.564-0.089-0.819-0.135-0.564-0.433-1.082-0.881-1.526-0.653-0.649-1.418-0.966-2.342-0.966s-1.693 0.317-2.349 0.97c-0.441 0.444-0.734 0.958-0.869 1.526-0.062 0.259-0.093 0.533-0.089 0.815v0 0.008c0 0.92 0.313 1.685 0.962 2.334 0.653 0.649 1.422 0.966 2.346 0.966h0.004zM16.415 17.287c1.020 0.054 1.955 0.332 2.794 0.827 0.456 0.27 0.893 0.614 1.295 1.016 0.046 0.046 0.093 0.093 0.143 0.139 0.626-0.904 0.939-1.951 0.939-3.118 0-0.004 0-0.008 0-0.015 0-0.004 0-0.008 0-0.012-0.004-1.159-0.321-2.199-0.943-3.099-0.046 0.046-0.093 0.097-0.143 0.139-0.398 0.398-0.835 0.742-1.291 1.012-0.835 0.495-1.774 0.773-2.794 0.827v2.276zM10.464 16.128v0c0 1.179 0.317 2.237 0.939 3.142 0.050-0.050 0.097-0.097 0.147-0.143 0.39-0.394 0.827-0.734 1.287-1.005 0.839-0.498 1.781-0.777 2.805-0.835v-2.276c-1.024-0.054-1.967-0.336-2.805-0.835-0.46-0.271-0.893-0.611-1.291-1.009-0.043-0.043-0.089-0.089-0.135-0.135-0.626 0.9-0.943 1.94-0.943 3.095zM3.737 13.167c-0.823 0-1.507 0.286-2.094 0.869s-0.869 1.271-0.869 2.094 0.286 1.511 0.869 2.094c0.587 0.584 1.271 0.869 2.094 0.869s1.511-0.286 2.094-0.869c0.587-0.584 0.869-1.271 0.869-2.094v0c0-0.827-0.286-1.511-0.869-2.094-0.587-0.587-1.271-0.869-2.094-0.869zM11.894 12.426s0.015 0.015 0.023 0.023c0.054 0.054 0.112 0.112 0.17 0.17 0.355 0.359 0.738 0.657 1.144 0.896 0.719 0.425 1.53 0.669 2.411 0.723v-3.636c-0.877 0.054-1.685 0.294-2.4 0.715v0c-0.402 0.236-0.788 0.541-1.152 0.9-0.062 0.062-0.12 0.12-0.174 0.178-0.008 0.008-0.015 0.015-0.023 0.027zM16.415 10.605v3.636c0.877-0.054 1.681-0.294 2.4-0.719 0.402-0.24 0.788-0.541 1.144-0.896 0.062-0.062 0.124-0.12 0.178-0.182 0.008-0.008 0.012-0.012 0.019-0.019l-0.023-0.023c-0.058-0.062-0.116-0.12-0.174-0.178-0.363-0.363-0.754-0.669-1.159-0.904-0.008-0.004-0.019-0.012-0.027-0.019-0.707-0.41-1.499-0.645-2.361-0.696zM10.109 2.923c-0.556 0-1.043 0.131-1.488 0.394-0.216 0.128-0.425 0.29-0.614 0.479-0.402 0.402-0.657 0.85-0.777 1.36-0.054 0.232-0.085 0.475-0.085 0.734 0 0.823 0.282 1.511 0.866 2.094 0.587 0.584 1.271 0.869 2.102 0.869 0.553 0 1.032-0.128 1.472-0.39 0.012-0.008 0.027-0.015 0.039-0.019 0.205-0.124 0.398-0.278 0.584-0.46 0.584-0.583 0.866-1.268 0.866-2.094 0-0.259-0.027-0.502-0.081-0.734-0.124-0.514-0.379-0.958-0.784-1.364-0.584-0.583-1.271-0.869-2.094-0.869zM21.872 6.162c0.328 0.182 0.703 0.274 1.113 0.274 0.653 0 1.198-0.228 1.662-0.692s0.688-1.005 0.692-1.662c0-0.653-0.228-1.194-0.688-1.654-0.464-0.464-1.009-0.688-1.662-0.692-0.653 0-1.198 0.228-1.662 0.692-0.464 0.46-0.688 1.001-0.684 1.658 0 0.657 0.224 1.198 0.684 1.662 0.131 0.131 0.274 0.247 0.421 0.34 0.008 0 0.019 0.008 0.027 0.012 0.039 0.015 0.070 0.039 0.1 0.066zM9.209 29.069c-0.213 0-0.386-0.174-0.386-0.386v-0.363h-0.363c-0.213 0-0.386-0.174-0.386-0.386s0.174-0.386 0.386-0.386h0.363v-0.363c0-0.213 0.174-0.386 0.386-0.386s0.386 0.174 0.386 0.386v0.363h0.363c0.213 0 0.386 0.174 0.386 0.386s-0.174 0.386-0.386 0.386h-0.363v0.363c0 0.213-0.174 0.386-0.386 0.386zM21.941 27.701c-0.213 0-0.386-0.174-0.386-0.386v-0.553h-0.553c-0.213 0-0.386-0.174-0.386-0.386s0.174-0.386 0.386-0.386h0.553v-0.545c0-0.213 0.174-0.386 0.386-0.386s0.386 0.174 0.386 0.386v0.545h0.545c0.213 0 0.386 0.174 0.386 0.386s-0.174 0.386-0.386 0.386h-0.545v0.553c0 0.213-0.174 0.386-0.386 0.386zM27.919 17.627c-0.213 0-0.386-0.174-0.386-0.386v-0.734h-0.734c-0.213 0-0.386-0.174-0.386-0.386s0.174-0.386 0.386-0.386h0.734v-0.734c0-0.213 0.174-0.386 0.386-0.386s0.386 0.174 0.386 0.386v0.734h0.738c0.213 0 0.386 0.174 0.386 0.386s-0.174 0.386-0.386 0.386h-0.738v0.734c0 0.213-0.174 0.386-0.386 0.386zM3.725 17.441c-0.213 0-0.386-0.174-0.386-0.386v-0.553h-0.549c-0.213 0-0.386-0.174-0.386-0.386s0.174-0.386 0.386-0.386h0.549v-0.545c0-0.213 0.174-0.386 0.386-0.386s0.386 0.174 0.386 0.386v0.545h0.545c0.213 0 0.386 0.174 0.386 0.386s-0.174 0.386-0.386 0.386h-0.545v0.553c0 0.213-0.174 0.386-0.386 0.386zM10.105 7.201c-0.213 0-0.386-0.174-0.386-0.386v-0.553h-0.553c-0.213 0-0.386-0.174-0.386-0.386s0.174-0.386 0.386-0.386h0.553v-0.545c0-0.213 0.174-0.386 0.386-0.386s0.386 0.174 0.386 0.386v0.545h0.545c0.213 0 0.386 0.174 0.386 0.386s-0.174 0.386-0.386 0.386h-0.545v0.553c0 0.213-0.174 0.386-0.386 0.386zM22.985 5.207c-0.213 0-0.386-0.174-0.386-0.386v-0.363h-0.363c-0.213 0-0.386-0.174-0.386-0.386s0.174-0.386 0.386-0.386h0.363v-0.359c0-0.213 0.174-0.386 0.386-0.386s0.386 0.174 0.386 0.386v0.359h0.363c0.213 0 0.386 0.174 0.386 0.386s-0.174 0.386-0.386 0.386h-0.363v0.363c0 0.213-0.174 0.386-0.386 0.386z"></path>
</svg>
