<!-- Generated by IcoMoon.io -->
<svg version="1.1" xmlns="http://www.w3.org/2000/svg" width="32" height="32" viewBox="0 0 32 32">
<title>Icons_Platform-Access-Unknown</title>
<path d="M22.43 32c-5.176 0-9.385-4.21-9.385-9.385s4.21-9.385 9.385-9.385 9.385 4.21 9.385 9.385-4.21 9.385-9.385 9.385zM22.43 13.995c-4.752 0-8.616 3.867-8.616 8.616s3.867 8.616 8.616 8.616 8.616-3.867 8.616-8.616-3.867-8.616-8.616-8.616z"></path>
<path d="M10.536 27.352c-0.212 0-0.385-0.173-0.385-0.385v-0.993h-0.512c-0.119 0-0.239-0.012-0.35-0.031-0.046 0.019-0.096 0.031-0.15 0.031h-5.849v0.993c0 0.212-0.173 0.385-0.385 0.385s-0.385-0.173-0.385-0.385v-0.993h-0.516c-0.504 0-0.939-0.177-1.289-0.531-0.354-0.354-0.531-0.789-0.531-1.293v-18.771c0.012-0.496 0.189-0.916 0.531-1.254 0.354-0.354 0.785-0.531 1.289-0.531h5.81v-1.774c0-0.504 0.177-0.935 0.531-1.289s0.789-0.531 1.293-0.531h11.309c0.504 0 0.939 0.177 1.293 0.531s0.531 0.789 0.531 1.293v1.774h5.81c0.504 0 0.939 0.177 1.289 0.531 0.343 0.339 0.519 0.762 0.531 1.247v11.967c0 0.212-0.173 0.385-0.385 0.385s-0.385-0.173-0.385-0.385v-11.96c-0.008-0.277-0.108-0.512-0.308-0.712-0.208-0.208-0.45-0.308-0.747-0.308h-5.81v9.162c0 0.212-0.173 0.385-0.385 0.385s-0.385-0.173-0.385-0.385v-11.706c0-0.296-0.1-0.539-0.308-0.747-0.204-0.208-0.45-0.308-0.747-0.308h-11.309c-0.296 0-0.543 0.1-0.747 0.308-0.208 0.208-0.308 0.45-0.308 0.747v1.774h10.428c0.212 0 0.385 0.173 0.385 0.385s-0.173 0.385-0.385 0.385h-10.428v16.827h4.887c0.212 0 0.385 0.173 0.385 0.385s-0.173 0.385-0.385 0.385h-4.887v2.193c0 0.296 0.1 0.539 0.308 0.747 0.204 0.208 0.45 0.308 0.747 0.308h4.256c0.212 0 0.385 0.173 0.385 0.385s-0.173 0.385-0.385 0.385h-2.975v0.993c0 0.212-0.173 0.385-0.385 0.385zM2.905 25.204h5.241c-0.219-0.304-0.331-0.658-0.331-1.054v-2.193h-6.861v2.193c0 0.296 0.1 0.543 0.308 0.747 0.208 0.208 0.45 0.308 0.747 0.308h0.9zM0.954 21.191h6.861v-16.827h-5.81c-0.296 0-0.539 0.1-0.747 0.308-0.2 0.2-0.3 0.435-0.308 0.72v15.8zM14.407 18.363h-2.848c-0.212 0-0.385-0.173-0.385-0.385s0.173-0.385 0.385-0.385h2.848c0.212 0 0.385 0.173 0.385 0.385s-0.173 0.385-0.385 0.385zM5.518 18.363h-1.593c-0.212 0-0.385-0.173-0.385-0.385s0.173-0.385 0.385-0.385h1.593c0.212 0 0.385 0.173 0.385 0.385s-0.173 0.385-0.385 0.385zM17.116 15.569h-5.56c-0.212 0-0.385-0.173-0.385-0.385s0.173-0.385 0.385-0.385h5.56c0.212 0 0.385 0.173 0.385 0.385s-0.173 0.385-0.385 0.385zM5.518 15.569h-1.593c-0.212 0-0.385-0.173-0.385-0.385s0.173-0.385 0.385-0.385h1.593c0.212 0 0.385 0.173 0.385 0.385s-0.173 0.385-0.385 0.385zM26.667 12.775h-1.593c-0.212 0-0.385-0.173-0.385-0.385s0.173-0.385 0.385-0.385h1.593c0.212 0 0.385 0.173 0.385 0.385s-0.173 0.385-0.385 0.385zM19.017 12.775h-7.461c-0.212 0-0.385-0.173-0.385-0.385s0.173-0.385 0.385-0.385h7.461c0.212 0 0.385 0.173 0.385 0.385s-0.173 0.385-0.385 0.385zM5.518 12.775h-1.593c-0.212 0-0.385-0.173-0.385-0.385s0.173-0.385 0.385-0.385h1.593c0.212 0 0.385 0.173 0.385 0.385s-0.173 0.385-0.385 0.385zM26.667 9.97h-1.593c-0.212 0-0.385-0.173-0.385-0.385s0.173-0.385 0.385-0.385h1.593c0.212 0 0.385 0.173 0.385 0.385s-0.173 0.385-0.385 0.385zM19.017 9.97h-7.461c-0.212 0-0.385-0.173-0.385-0.385s0.173-0.385 0.385-0.385h7.461c0.212 0 0.385 0.173 0.385 0.385s-0.173 0.385-0.385 0.385zM5.518 9.97h-1.593c-0.212 0-0.385-0.173-0.385-0.385s0.173-0.385 0.385-0.385h1.593c0.212 0 0.385 0.173 0.385 0.385s-0.173 0.385-0.385 0.385zM26.667 7.165h-1.593c-0.212 0-0.385-0.173-0.385-0.385s0.173-0.385 0.385-0.385h1.593c0.212 0 0.385 0.173 0.385 0.385s-0.173 0.385-0.385 0.385zM19.017 7.165h-7.461c-0.212 0-0.385-0.173-0.385-0.385s0.173-0.385 0.385-0.385h7.461c0.212 0 0.385 0.173 0.385 0.385s-0.173 0.385-0.385 0.385zM5.518 7.165h-1.593c-0.212 0-0.385-0.173-0.385-0.385s0.173-0.385 0.385-0.385h1.593c0.212 0 0.385 0.173 0.385 0.385s-0.173 0.385-0.385 0.385z"></path>
<path d="M22.195 25.42c-0.212 0-0.385-0.173-0.385-0.385v-0.416c0-0.843 0.392-1.643 1.051-2.139 0.939-0.708 1.501-1.408 1.501-1.87 0-0.593-0.235-1.151-0.666-1.562-0.427-0.412-0.989-0.627-1.585-0.604-1.081 0.042-1.993 0.916-2.074 1.993-0.027 0.339 0.023 0.662 0.146 0.974 0.077 0.196-0.019 0.419-0.215 0.5-0.196 0.077-0.419-0.019-0.5-0.215-0.166-0.419-0.231-0.862-0.196-1.316 0.112-1.458 1.347-2.647 2.813-2.705 0.808-0.031 1.57 0.262 2.151 0.82s0.9 1.308 0.9 2.116c0 0.927-0.981 1.862-1.809 2.486-0.466 0.35-0.743 0.924-0.743 1.524v0.416c0 0.212-0.173 0.385-0.385 0.385z"></path>
<path d="M22.195 27.721c-0.339 0-0.616-0.277-0.616-0.616s0.277-0.616 0.616-0.616 0.616 0.277 0.616 0.616-0.277 0.616-0.616 0.616zM22.195 26.951c-0.085 0-0.154 0.069-0.154 0.154s0.069 0.154 0.154 0.154 0.154-0.069 0.154-0.154-0.069-0.154-0.154-0.154z"></path>
</svg>
