<!-- Generated by IcoMoon.io -->
<svg version="1.1" xmlns="http://www.w3.org/2000/svg" width="32" height="32" viewBox="0 0 32 32">
<title>Icons_Forward-Emails</title>
<path d="M23.039 24.471h-21.477c-0.863 0-1.561-0.702-1.561-1.561v-13.82c0-0.863 0.702-1.561 1.561-1.561h21.477c0.863 0 1.561 0.702 1.561 1.561v13.82c0 0.863-0.702 1.561-1.561 1.561zM1.561 8.276c-0.448 0-0.814 0.366-0.814 0.814v13.82c0 0.448 0.366 0.814 0.814 0.814h21.477c0.448 0 0.814-0.366 0.814-0.814v-13.82c0-0.448-0.366-0.814-0.814-0.814h-21.477z"></path>
<path d="M12.412 19.373c-0.444 0-0.852-0.183-1.076-0.34-0.015-0.011-0.030-0.022-0.041-0.034l-10.914-10.212c-0.149-0.142-0.157-0.377-0.019-0.527 0.142-0.149 0.377-0.157 0.527-0.019l10.892 10.19c0.108 0.071 0.676 0.392 1.106 0.015 0.691-0.605 10.769-9.936 10.869-10.029 0.149-0.142 0.388-0.131 0.527 0.019 0.142 0.153 0.131 0.388-0.019 0.527-0.415 0.385-10.186 9.431-10.884 10.044-0.306 0.269-0.65 0.362-0.971 0.362z"></path>
<path d="M0.725 24.12c-0.119 0-0.235-0.056-0.306-0.161-0.119-0.168-0.075-0.403 0.093-0.519l9.177-6.383c0.168-0.119 0.403-0.075 0.519 0.093s0.075 0.403-0.093 0.519l-9.177 6.383c-0.063 0.045-0.138 0.067-0.213 0.067z"></path>
<path d="M23.774 23.829c-0.075 0-0.149-0.022-0.217-0.067l-8.878-6.312c-0.168-0.119-0.209-0.355-0.090-0.519 0.12-0.168 0.351-0.209 0.519-0.090l8.878 6.312c0.168 0.119 0.209 0.355 0.090 0.519-0.075 0.101-0.187 0.157-0.306 0.157z"></path>
<path d="M31.196 16.209h-12.464c-0.205 0-0.374-0.168-0.374-0.374s0.168-0.374 0.374-0.374h12.464c0.205 0 0.374 0.168 0.374 0.374s-0.168 0.374-0.374 0.374z"></path>
<path d="M27.648 19.631c-0.105 0-0.209-0.045-0.284-0.131-0.134-0.157-0.119-0.392 0.037-0.527l3.623-3.134-4.064-2.999c-0.164-0.123-0.202-0.355-0.078-0.523s0.355-0.202 0.523-0.078l4.441 3.276c0.090 0.067 0.146 0.172 0.153 0.288s-0.045 0.224-0.127 0.299l-3.974 3.44c-0.071 0.060-0.157 0.090-0.243 0.090z"></path>
</svg>
