<!-- Generated by IcoMoon.io -->
<svg version="1.1" xmlns="http://www.w3.org/2000/svg" width="32" height="32" viewBox="0 0 32 32">
<title>Icons_Rating</title>
<path d="M9.369 27.688c-0.128 0-0.247-0.058-0.325-0.157l-2.579-3.304h-3.774c-1.483 0-2.69-1.207-2.69-2.69v-14.539c0-1.483 1.207-2.69 2.69-2.69h26.619c1.483 0 2.69 1.207 2.69 2.69v14.539c0 1.483-1.207 2.69-2.69 2.69h-17.436l-2.159 3.279c-0.074 0.111-0.194 0.181-0.325 0.185-0.004 0-0.012 0-0.017 0zM2.69 5.132c-1.030 0-1.866 0.836-1.866 1.866v14.539c0 1.030 0.836 1.866 1.866 1.866h3.976c0.128 0 0.247 0.058 0.325 0.157l2.348 3.012 1.965-2.983c0.074-0.115 0.206-0.185 0.342-0.185h17.658c1.030 0 1.866-0.836 1.866-1.866v-14.539c0-1.030-0.836-1.866-1.866-1.866h-26.615z"></path>
<path d="M6.036 21.117c-0.107 0-0.21-0.033-0.301-0.099l-0.931-0.676-0.931 0.676c-0.181 0.132-0.424 0.132-0.602 0-0.181-0.132-0.255-0.363-0.185-0.573l0.354-1.092-0.931-0.676c-0.181-0.132-0.255-0.363-0.185-0.573s0.264-0.354 0.486-0.354h1.149l0.354-1.092c0.070-0.21 0.264-0.354 0.486-0.354v0c0.223 0 0.42 0.144 0.486 0.354l0.354 1.092h1.149c0.223 0 0.42 0.14 0.486 0.354s-0.004 0.441-0.185 0.573l-0.931 0.676 0.354 1.092c0.070 0.21-0.004 0.441-0.185 0.573-0.091 0.066-0.198 0.099-0.301 0.099zM3.774 18.575l0.338 0.243c0.181 0.132 0.255 0.363 0.185 0.573l-0.128 0.395 0.338-0.243c0.181-0.132 0.42-0.132 0.601 0l0.338 0.247-0.128-0.395c-0.070-0.21 0.004-0.441 0.185-0.573l0.338-0.247h-0.416c-0.223 0-0.42-0.14-0.486-0.354l-0.128-0.395-0.128 0.395c-0.066 0.21-0.264 0.354-0.486 0.354h-0.416zM6.798 18.575v0zM3.893 17.965v0z"></path>
<path d="M11.775 21.117c-0.107 0-0.21-0.033-0.301-0.099l-0.931-0.676-0.931 0.676c-0.181 0.132-0.424 0.132-0.601 0-0.181-0.132-0.255-0.363-0.185-0.573l0.354-1.092-0.931-0.676c-0.181-0.132-0.255-0.363-0.185-0.573s0.264-0.354 0.486-0.354h1.149l0.354-1.092c0.070-0.21 0.264-0.354 0.486-0.354v0c0.223 0 0.42 0.144 0.486 0.354l0.354 1.092h1.149c0.223 0 0.42 0.14 0.486 0.354s-0.004 0.441-0.185 0.573l-0.931 0.676 0.354 1.092c0.070 0.21-0.004 0.441-0.185 0.573-0.091 0.066-0.198 0.099-0.301 0.099zM9.513 18.575l0.338 0.243c0.181 0.132 0.255 0.363 0.185 0.573l-0.128 0.395 0.338-0.243c0.181-0.132 0.42-0.132 0.601 0l0.338 0.247-0.128-0.395c-0.070-0.21 0.004-0.441 0.185-0.573l0.338-0.247h-0.416c-0.223 0-0.42-0.14-0.486-0.354l-0.128-0.395-0.128 0.395c-0.070 0.21-0.264 0.354-0.486 0.354h-0.416zM12.537 18.575v0z"></path>
<path d="M17.514 21.117c-0.107 0-0.21-0.033-0.301-0.099l-0.931-0.676-0.931 0.676c-0.181 0.132-0.424 0.132-0.601 0-0.181-0.132-0.255-0.363-0.185-0.573l0.354-1.092-0.931-0.676c-0.181-0.132-0.255-0.363-0.185-0.573s0.264-0.354 0.486-0.354h1.149l0.354-1.092c0.070-0.21 0.264-0.354 0.486-0.354s0.42 0.144 0.486 0.354l0.354 1.092h1.149c0.223 0 0.42 0.14 0.486 0.354 0.070 0.21-0.004 0.441-0.185 0.573l-0.931 0.676 0.354 1.092c0.070 0.21-0.004 0.441-0.185 0.573-0.091 0.066-0.198 0.099-0.301 0.099zM16.282 19.448c0.103 0 0.21 0.033 0.301 0.095l0.338 0.247-0.128-0.395c-0.070-0.21 0.004-0.441 0.185-0.573l0.338-0.243h-0.416c-0.223 0-0.42-0.14-0.486-0.354l-0.128-0.395-0.128 0.395c-0.070 0.21-0.264 0.354-0.486 0.354h-0.416l0.338 0.243c0.181 0.132 0.255 0.363 0.185 0.573l-0.128 0.395 0.338-0.243c0.091-0.066 0.198-0.099 0.301-0.099zM18.272 18.575v0z"></path>
<path d="M23.249 21.117c-0.107 0-0.21-0.033-0.301-0.099l-0.931-0.676-0.931 0.676c-0.181 0.132-0.424 0.132-0.602 0-0.181-0.132-0.255-0.363-0.185-0.573l0.354-1.092-0.931-0.676c-0.181-0.132-0.255-0.363-0.185-0.573s0.264-0.354 0.486-0.354h1.149l0.354-1.092c0.070-0.21 0.264-0.354 0.486-0.354s0.42 0.144 0.486 0.354l0.354 1.092h1.149c0.223 0 0.42 0.14 0.486 0.354 0.070 0.21-0.004 0.441-0.185 0.573l-0.931 0.676 0.354 1.092c0.070 0.21-0.008 0.441-0.185 0.573-0.091 0.066-0.198 0.099-0.301 0.099zM22.021 19.448c0.103 0 0.21 0.033 0.301 0.095l0.338 0.247-0.128-0.395c-0.070-0.21 0.004-0.441 0.185-0.573l0.338-0.247h-0.416c-0.223 0-0.42-0.14-0.486-0.354l-0.128-0.395-0.128 0.395c-0.070 0.21-0.264 0.354-0.486 0.354h-0.416l0.338 0.243c0.181 0.132 0.255 0.363 0.185 0.573l-0.128 0.395 0.338-0.243c0.091-0.066 0.198-0.099 0.301-0.099zM24.011 18.575v0z"></path>
<path d="M28.988 21.117c-0.107 0-0.21-0.033-0.301-0.099l-0.931-0.676-0.931 0.676c-0.181 0.132-0.424 0.132-0.602 0-0.181-0.132-0.255-0.363-0.185-0.573l0.354-1.092-0.931-0.676c-0.181-0.132-0.255-0.363-0.185-0.573s0.264-0.354 0.486-0.354h1.149l0.354-1.092c0.070-0.21 0.264-0.354 0.486-0.354v0c0.223 0 0.42 0.144 0.486 0.354l0.354 1.092h1.149c0.223 0 0.42 0.14 0.486 0.354s-0.004 0.441-0.185 0.573l-0.931 0.676 0.354 1.092c0.070 0.21-0.008 0.441-0.185 0.573-0.091 0.066-0.198 0.099-0.301 0.099zM27.76 19.448c0.103 0 0.21 0.033 0.301 0.095l0.338 0.247-0.128-0.395c-0.070-0.21 0.004-0.441 0.185-0.573l0.338-0.247h-0.416c-0.223 0-0.42-0.14-0.486-0.354l-0.128-0.395-0.128 0.395c-0.070 0.21-0.264 0.354-0.486 0.354h-0.416l0.338 0.243c0.181 0.132 0.255 0.363 0.185 0.573l-0.128 0.395 0.338-0.243c0.091-0.066 0.198-0.099 0.301-0.099zM29.75 18.575v0zM28.057 16.911v0z"></path>
<path d="M27.934 9.136h-14.445c-0.227 0-0.412-0.185-0.412-0.412s0.185-0.412 0.412-0.412h14.445c0.227 0 0.412 0.185 0.412 0.412s-0.185 0.412-0.412 0.412z"></path>
<path d="M27.934 11.509h-14.445c-0.227 0-0.412-0.185-0.412-0.412s0.185-0.412 0.412-0.412h14.445c0.227 0 0.412 0.185 0.412 0.412s-0.185 0.412-0.412 0.412z"></path>
<path d="M27.934 13.759h-14.445c-0.227 0-0.412-0.185-0.412-0.412s0.185-0.412 0.412-0.412h14.445c0.227 0 0.412 0.185 0.412 0.412s-0.185 0.412-0.412 0.412z"></path>
<path d="M10.073 14.867h-6.592c-0.482 0-0.869-0.391-0.869-0.869v-6.147c0-0.482 0.391-0.869 0.869-0.869h6.592c0.482 0 0.869 0.391 0.869 0.869v6.147c0 0.482-0.391 0.869-0.869 0.869zM3.481 7.801c-0.025 0-0.045 0.021-0.045 0.045v6.147c0 0.025 0.021 0.045 0.045 0.045h6.592c0.025 0 0.045-0.021 0.045-0.045v-6.147c0-0.025-0.021-0.045-0.045-0.045h-6.592z"></path>
<path d="M6.777 13.508c-0.227 0-0.412-0.185-0.412-0.412v-4.338c0-0.227 0.185-0.412 0.412-0.412s0.412 0.185 0.412 0.412v4.338c0 0.227-0.185 0.412-0.412 0.412z"></path>
<path d="M8.949 11.336h-4.338c-0.227 0-0.412-0.185-0.412-0.412s0.185-0.412 0.412-0.412h4.338c0.227 0 0.412 0.185 0.412 0.412s-0.185 0.412-0.412 0.412z"></path>
</svg>
