<!-- Generated by IcoMoon.io -->
<svg version="1.1" xmlns="http://www.w3.org/2000/svg" width="32" height="32" viewBox="0 0 32 32">
<title>Icons_Endpoint</title>
<path d="M14.105 23.096c-0.163 0-0.313-0.099-0.373-0.262-0.016-0.044-1.665-4.384-7.964-8.821l-1.558 2.109c-0.083 0.111-0.222 0.171-0.361 0.159-0.139-0.016-0.262-0.103-0.321-0.23l-2.882-6.283c-0.059-0.131-0.044-0.289 0.044-0.404s0.23-0.174 0.377-0.151l6.763 1.047c0.135 0.020 0.254 0.111 0.305 0.242 0.052 0.127 0.036 0.274-0.048 0.384l-1.839 2.501c6.494 4.579 8.151 8.983 8.218 9.173 0.075 0.206-0.032 0.432-0.238 0.507-0.044 0.016-0.091 0.024-0.135 0.024zM1.681 10.113l2.291 5.003 1.388-1.879c0.028-0.040 0.063-0.071 0.103-0.095l1.609-2.192-5.391-0.836z"></path>
<path d="M15.679 32c-0.21 0-0.384-0.166-0.396-0.377-0.004-0.115-0.404-11.524 9.728-17.911l-2.434-2.656c-0.099-0.107-0.131-0.258-0.083-0.396s0.163-0.238 0.305-0.262l8.127-1.439c0.143-0.028 0.281 0.028 0.373 0.135 0.091 0.111 0.115 0.258 0.067 0.392l-2.783 7.445c-0.048 0.131-0.163 0.226-0.297 0.25-0.139 0.024-0.277-0.024-0.369-0.127l-2.402-2.723c-9.816 6.125-9.447 17.146-9.443 17.257 0.008 0.218-0.159 0.404-0.377 0.412h-0.020zM26.014 13.693l2.065 2.339 2.307-6.176-6.731 1.193 2.272 2.478c0.044 0.048 0.075 0.103 0.091 0.163z"></path>
<path d="M15.897 19.302c-0.218 0-0.396-0.178-0.396-0.396v-10.993h-3.679c-0.143 0-0.27-0.075-0.341-0.198s-0.071-0.274 0-0.396l4.016-7.116c0.071-0.123 0.202-0.202 0.345-0.202v0c0.143 0 0.274 0.075 0.345 0.198l4.103 7.088c0.071 0.123 0.071 0.274 0 0.396s-0.202 0.198-0.345 0.198h-3.647v11.025c0 0.218-0.178 0.396-0.396 0.396zM12.499 7.12h3.294c0.044-0.020 0.095-0.028 0.147-0.028h3.31l-3.409-5.891-3.342 5.919z"></path>
</svg>
