<!-- Generated by IcoMoon.io -->
<svg version="1.1" xmlns="http://www.w3.org/2000/svg" width="32" height="32" viewBox="0 0 32 32">
<title>Icons_Data-Breach</title>
<path d="M17.773 29.399h-3.844c-0.265 0-0.482-0.217-0.482-0.482s0.217-0.482 0.482-0.482h3.844c0.265 0 0.482 0.217 0.482 0.482s-0.217 0.482-0.482 0.482z"></path>
<path d="M29.006 32h-26.012c-1.339 0-2.433-1.093-2.433-2.433v-0.65c0-0.265 0.217-0.482 0.482-0.482h11.055c0.265 0 0.482 0.217 0.482 0.482s-0.217 0.482-0.482 0.482h-10.574v0.169c0 0.809 0.66 1.469 1.469 1.469h26.012c0.809 0 1.469-0.66 1.469-1.469v-0.169h-10.574c-0.265 0-0.482-0.217-0.482-0.482s0.217-0.482 0.482-0.482h11.055c0.265 0 0.482 0.217 0.482 0.482v0.65c0 1.339-1.093 2.433-2.433 2.433z"></path>
<path d="M2.344 28.917c-0.265 0-0.482-0.217-0.482-0.482v-17.081c0-1.339 1.093-2.433 2.433-2.433h5.178c0.265 0 0.482 0.217 0.482 0.482s-0.217 0.482-0.482 0.482h-5.178c-0.809 0-1.469 0.66-1.469 1.469v17.081c0 0.265-0.217 0.482-0.482 0.482z"></path>
<path d="M29.656 29.182c-0.265 0-0.482-0.217-0.482-0.482v-17.346c0-0.809-0.66-1.469-1.469-1.469h-5.718c-0.265 0-0.482-0.217-0.482-0.482s0.217-0.482 0.482-0.482h5.718c1.339 0 2.433 1.093 2.433 2.433v17.346c0 0.265-0.217 0.482-0.482 0.482z"></path>
<path d="M7.989 12.491h-5.646c-0.265 0-0.482-0.217-0.482-0.482s0.217-0.482 0.482-0.482h5.646c0.265 0 0.482 0.217 0.482 0.482s-0.217 0.482-0.482 0.482z"></path>
<path d="M29.656 12.491h-5.756c-0.265 0-0.482-0.217-0.482-0.482s0.217-0.482 0.482-0.482h5.756c0.265 0 0.482 0.217 0.482 0.482s-0.217 0.482-0.482 0.482z"></path>
<path d="M5.956 20.005c-0.265 0-0.482-0.217-0.482-0.482v-2.813c0-0.265 0.217-0.482 0.482-0.482s0.482 0.217 0.482 0.482v2.813c0 0.265-0.217 0.482-0.482 0.482z"></path>
<path d="M11.809 20.005c-0.265 0-0.482-0.217-0.482-0.482v-2.813c0-0.265 0.217-0.482 0.482-0.482s0.482 0.217 0.482 0.482v2.813c0 0.265-0.217 0.482-0.482 0.482z"></path>
<path d="M8.139 20.005c-0.689 0-1.252-0.564-1.252-1.252v-1.267c0-0.689 0.564-1.252 1.252-1.252s1.252 0.564 1.252 1.252v1.267c0 0.689-0.564 1.252-1.252 1.252zM8.139 17.192c-0.159 0-0.289 0.13-0.289 0.289v1.267c0 0.159 0.13 0.289 0.289 0.289s0.289-0.13 0.289-0.289v-1.267c0-0.159-0.13-0.289-0.289-0.289z"></path>
<path d="M14.521 20.005c-0.689 0-1.252-0.564-1.252-1.252v-1.267c0-0.689 0.564-1.252 1.252-1.252s1.252 0.564 1.252 1.252v1.267c0 0.689-0.564 1.252-1.252 1.252zM14.521 17.192c-0.159 0-0.289 0.13-0.289 0.289v1.267c0 0.159 0.13 0.289 0.289 0.289s0.289-0.13 0.289-0.289v-1.267c0-0.159-0.13-0.289-0.289-0.289z"></path>
<path d="M25.933 20.005c-0.265 0-0.482-0.217-0.482-0.482v-2.813c0-0.265 0.217-0.482 0.482-0.482s0.482 0.217 0.482 0.482v2.813c0 0.265-0.217 0.482-0.482 0.482z"></path>
<path d="M21.569 20.005c-0.265 0-0.482-0.217-0.482-0.482v-2.813c0-0.265 0.217-0.482 0.482-0.482s0.482 0.217 0.482 0.482v2.813c0 0.265-0.217 0.482-0.482 0.482z"></path>
<path d="M23.751 20.005c-0.689 0-1.252-0.564-1.252-1.252v-1.267c0-0.689 0.564-1.252 1.252-1.252s1.252 0.564 1.252 1.252v1.267c0 0.689-0.564 1.252-1.252 1.252zM23.751 17.192c-0.159 0-0.289 0.13-0.289 0.289v1.267c0 0.159 0.13 0.289 0.289 0.289s0.289-0.13 0.289-0.289v-1.267c0-0.159-0.13-0.289-0.289-0.289z"></path>
<path d="M18.462 20.005c-0.689 0-1.252-0.564-1.252-1.252v-1.267c0-0.689 0.564-1.252 1.252-1.252s1.252 0.564 1.252 1.252v1.267c0 0.689-0.564 1.252-1.252 1.252zM18.462 17.192c-0.159 0-0.289 0.13-0.289 0.289v1.267c0 0.159 0.13 0.289 0.289 0.289s0.289-0.13 0.289-0.289v-1.267c0-0.159-0.13-0.289-0.289-0.289z"></path>
<path d="M6.009 25.362c-0.265 0-0.482-0.217-0.482-0.482v-2.813c0-0.265 0.217-0.482 0.482-0.482s0.482 0.217 0.482 0.482v2.813c0 0.265-0.217 0.482-0.482 0.482z"></path>
<path d="M9.935 25.362c-0.689 0-1.252-0.564-1.252-1.252v-1.267c0-0.689 0.564-1.252 1.252-1.252s1.252 0.564 1.252 1.252v1.267c0 0.689-0.564 1.252-1.252 1.252zM9.935 22.549c-0.159 0-0.289 0.13-0.289 0.289v1.267c0 0.159 0.13 0.289 0.289 0.289s0.289-0.13 0.289-0.289v-1.267c0-0.159-0.13-0.289-0.289-0.289z"></path>
<path d="M12.667 25.362c-0.689 0-1.252-0.564-1.252-1.252v-1.267c0-0.689 0.564-1.252 1.252-1.252s1.252 0.564 1.252 1.252v1.267c0 0.689-0.564 1.252-1.252 1.252zM12.667 22.549c-0.159 0-0.289 0.13-0.289 0.289v1.267c0 0.159 0.13 0.289 0.289 0.289s0.289-0.13 0.289-0.289v-1.267c0-0.159-0.13-0.289-0.289-0.289z"></path>
<path d="M26.039 25.362c-0.265 0-0.482-0.217-0.482-0.482v-2.813c0-0.265 0.217-0.482 0.482-0.482s0.482 0.217 0.482 0.482v2.813c0 0.265-0.217 0.482-0.482 0.482z"></path>
<path d="M17.363 25.362c-0.265 0-0.482-0.217-0.482-0.482v-2.813c0-0.265 0.217-0.482 0.482-0.482s0.482 0.217 0.482 0.482v2.813c0 0.265-0.217 0.482-0.482 0.482z"></path>
<path d="M24.078 25.362c-0.689 0-1.252-0.564-1.252-1.252v-1.267c0-0.689 0.564-1.252 1.252-1.252s1.252 0.564 1.252 1.252v1.267c0 0.689-0.564 1.252-1.252 1.252zM24.078 22.549c-0.159 0-0.289 0.13-0.289 0.289v1.267c0 0.159 0.13 0.289 0.289 0.289s0.289-0.13 0.289-0.289v-1.267c0-0.159-0.13-0.289-0.289-0.289z"></path>
<path d="M21.381 25.362c-0.689 0-1.252-0.564-1.252-1.252v-1.267c0-0.689 0.564-1.252 1.252-1.252s1.252 0.564 1.252 1.252v1.267c0 0.689-0.564 1.252-1.252 1.252zM21.381 22.549c-0.159 0-0.289 0.13-0.289 0.289v1.267c0 0.159 0.13 0.289 0.289 0.289s0.289-0.13 0.289-0.289v-1.267c0-0.159-0.13-0.289-0.289-0.289z"></path>
<path d="M15.403 25.362c-0.689 0-1.252-0.564-1.252-1.252v-1.267c0-0.689 0.564-1.252 1.252-1.252s1.252 0.564 1.252 1.252v1.267c0 0.689-0.564 1.252-1.252 1.252zM15.403 22.549c-0.159 0-0.289 0.13-0.289 0.289v1.267c0 0.159 0.13 0.289 0.289 0.289s0.289-0.13 0.289-0.289v-1.267c0-0.159-0.13-0.289-0.289-0.289z"></path>
<path d="M22.614 14.967h-13.541c-0.65 0-1.233-0.337-1.556-0.906s-0.318-1.238 0.019-1.802l6.768-11.383c0.328-0.549 0.901-0.877 1.541-0.877s1.214 0.328 1.541 0.877l6.773 11.383c0.332 0.559 0.342 1.233 0.019 1.802s-0.906 0.906-1.556 0.906zM15.133 1.368l-6.768 11.383c-0.154 0.26-0.159 0.568-0.010 0.833 0.149 0.26 0.419 0.419 0.718 0.419h13.541c0.303 0 0.568-0.154 0.718-0.419 0.149-0.26 0.145-0.573-0.010-0.833l-6.773-11.383c-0.149-0.255-0.419-0.405-0.713-0.405s-0.559 0.149-0.713 0.405v0z"></path>
<path d="M15.884 10.159c-0.265 0-0.482-0.217-0.482-0.482v-5.246c0-0.265 0.217-0.482 0.482-0.482s0.482 0.217 0.482 0.482v5.246c0 0.265-0.217 0.482-0.482 0.482z"></path>
<path d="M15.884 12.708c-0.265 0-0.482-0.217-0.482-0.482v-0.275c0-0.265 0.217-0.482 0.482-0.482s0.482 0.217 0.482 0.482v0.275c0 0.265-0.217 0.482-0.482 0.482z"></path>
</svg>
