<!-- Generated by IcoMoon.io -->
<svg version="1.1" xmlns="http://www.w3.org/2000/svg" width="32" height="32" viewBox="0 0 32 32">
<title>Icons_Quote-no-circle</title>
<path d="M6.502 26.084v-6.75c-3.604-0.111-6.502-3.077-6.502-6.709s3.010-6.711 6.711-6.711c3.951 0 6.711 3.142 6.711 7.641 0 6.523-6.51 12.177-6.575 12.234l-0.345 0.297zM6.711 6.33c-3.47 0-6.293 2.822-6.293 6.293s2.822 6.293 6.293 6.293h0.209v6.236c1.336-1.263 6.083-6.134 6.083-11.603 0-4.252-2.588-7.223-6.293-7.223z"></path>
<path d="M25.080 26.084v-6.75c-3.604-0.111-6.502-3.077-6.502-6.709s3.010-6.711 6.711-6.711c4.014 0 6.711 3.071 6.711 7.641 0 6.523-6.51 12.177-6.575 12.234l-0.345 0.297zM25.289 6.33c-3.47 0-6.293 2.822-6.293 6.293s2.822 6.293 6.293 6.293h0.209v6.236c1.336-1.263 6.084-6.134 6.084-11.603 0-4.319-2.53-7.223-6.293-7.223z"></path>
</svg>
