<!-- Generated by IcoMoon.io -->
<svg version="1.1" xmlns="http://www.w3.org/2000/svg" width="32" height="32" viewBox="0 0 32 32">
<title>Icons_Enterprise</title>
<path d="M25.2 32h-18.4c-0.217 0-0.394-0.177-0.394-0.394v-2.016c0-0.217 0.177-0.394 0.394-0.394h18.4c0.217 0 0.394 0.177 0.394 0.394v2.016c0 0.217-0.177 0.394-0.394 0.394zM7.194 31.212h17.612v-1.228h-17.612v1.228z"></path>
<path d="M24.227 29.984c-0.217 0-0.394-0.177-0.394-0.394v-26.917h-15.6v26.917c0 0.217-0.177 0.394-0.394 0.394s-0.394-0.177-0.394-0.394v-27.31c0-0.217 0.177-0.394 0.394-0.394h16.388c0.217 0 0.394 0.177 0.394 0.394v27.31c0 0.217-0.177 0.394-0.394 0.394z"></path>
<path d="M10.962 2.544c-0.217 0-0.394-0.177-0.394-0.394v-1.756c0-0.217 0.177-0.394 0.394-0.394h10.143c0.217 0 0.394 0.177 0.394 0.394v1.626c0 0.217-0.177 0.394-0.394 0.394s-0.394-0.177-0.394-0.394v-1.232h-9.355v1.362c0 0.217-0.177 0.394-0.394 0.394z"></path>
<path d="M11.545 8.332h-2.079c-0.217 0-0.394-0.177-0.394-0.394v-3.965c0-0.217 0.177-0.394 0.394-0.394h2.079c0.217 0 0.394 0.177 0.394 0.394v3.965c0 0.217-0.177 0.394-0.394 0.394zM9.86 7.544h1.292v-3.178h-1.292v3.178z"></path>
<path d="M15.187 8.332h-2.079c-0.217 0-0.394-0.177-0.394-0.394v-3.965c0-0.217 0.177-0.394 0.394-0.394h2.079c0.217 0 0.394 0.177 0.394 0.394v3.965c0 0.217-0.177 0.394-0.394 0.394zM13.502 7.544h1.292v-3.178h-1.292v3.178z"></path>
<path d="M18.829 8.332h-2.079c-0.217 0-0.394-0.177-0.394-0.394v-3.965c0-0.217 0.177-0.394 0.394-0.394h2.079c0.217 0 0.394 0.177 0.394 0.394v3.965c0 0.217-0.177 0.394-0.394 0.394zM17.144 7.544h1.292v-3.178h-1.292v3.178z"></path>
<path d="M22.467 8.332h-2.079c-0.217 0-0.394-0.177-0.394-0.394v-3.965c0-0.217 0.177-0.394 0.394-0.394h2.079c0.217 0 0.394 0.177 0.394 0.394v3.965c0 0.217-0.177 0.394-0.394 0.394zM20.782 7.544h1.292v-3.178h-1.292v3.178z"></path>
<path d="M11.545 13.954h-2.079c-0.217 0-0.394-0.177-0.394-0.394v-3.965c0-0.217 0.177-0.394 0.394-0.394h2.079c0.217 0 0.394 0.177 0.394 0.394v3.965c0 0.217-0.177 0.394-0.394 0.394zM9.86 13.167h1.292v-3.178h-1.292v3.178z"></path>
<path d="M15.187 13.954h-2.079c-0.217 0-0.394-0.177-0.394-0.394v-3.965c0-0.217 0.177-0.394 0.394-0.394h2.079c0.217 0 0.394 0.177 0.394 0.394v3.965c0 0.217-0.177 0.394-0.394 0.394zM13.502 13.167h1.292v-3.178h-1.292v3.178z"></path>
<path d="M18.829 13.954h-2.079c-0.217 0-0.394-0.177-0.394-0.394v-3.965c0-0.217 0.177-0.394 0.394-0.394h2.079c0.217 0 0.394 0.177 0.394 0.394v3.965c0 0.217-0.177 0.394-0.394 0.394zM17.144 13.167h1.292v-3.178h-1.292v3.178z"></path>
<path d="M22.467 13.954h-2.079c-0.217 0-0.394-0.177-0.394-0.394v-3.965c0-0.217 0.177-0.394 0.394-0.394h2.079c0.217 0 0.394 0.177 0.394 0.394v3.965c0 0.217-0.177 0.394-0.394 0.394zM20.782 13.167h1.292v-3.178h-1.292v3.178z"></path>
<path d="M11.545 19.483h-2.079c-0.217 0-0.394-0.177-0.394-0.394v-3.965c0-0.217 0.177-0.394 0.394-0.394h2.079c0.217 0 0.394 0.177 0.394 0.394v3.965c0 0.217-0.177 0.394-0.394 0.394zM9.86 18.695h1.292v-3.178h-1.292v3.178z"></path>
<path d="M15.187 19.483h-2.079c-0.217 0-0.394-0.177-0.394-0.394v-3.965c0-0.217 0.177-0.394 0.394-0.394h2.079c0.217 0 0.394 0.177 0.394 0.394v3.965c0 0.217-0.177 0.394-0.394 0.394zM13.502 18.695h1.292v-3.178h-1.292v3.178z"></path>
<path d="M18.829 19.483h-2.079c-0.217 0-0.394-0.177-0.394-0.394v-3.965c0-0.217 0.177-0.394 0.394-0.394h2.079c0.217 0 0.394 0.177 0.394 0.394v3.965c0 0.217-0.177 0.394-0.394 0.394zM17.144 18.695h1.292v-3.178h-1.292v3.178z"></path>
<path d="M22.467 19.483h-2.079c-0.217 0-0.394-0.177-0.394-0.394v-3.965c0-0.217 0.177-0.394 0.394-0.394h2.079c0.217 0 0.394 0.177 0.394 0.394v3.965c0 0.217-0.177 0.394-0.394 0.394zM20.782 18.695h1.292v-3.178h-1.292v3.178z"></path>
<path d="M11.545 24.944h-2.079c-0.217 0-0.394-0.177-0.394-0.394v-3.965c0-0.217 0.177-0.394 0.394-0.394h2.079c0.217 0 0.394 0.177 0.394 0.394v3.965c0 0.217-0.177 0.394-0.394 0.394zM9.86 24.156h1.292v-3.178h-1.292v3.178z"></path>
<path d="M15.187 24.944h-2.079c-0.217 0-0.394-0.177-0.394-0.394v-3.965c0-0.217 0.177-0.394 0.394-0.394h2.079c0.217 0 0.394 0.177 0.394 0.394v3.965c0 0.217-0.177 0.394-0.394 0.394zM13.502 24.156h1.292v-3.178h-1.292v3.178z"></path>
<path d="M18.829 24.944h-2.079c-0.217 0-0.394-0.177-0.394-0.394v-3.965c0-0.217 0.177-0.394 0.394-0.394h2.079c0.217 0 0.394 0.177 0.394 0.394v3.965c0 0.217-0.177 0.394-0.394 0.394zM17.144 24.156h1.292v-3.178h-1.292v3.178z"></path>
<path d="M22.467 24.944h-2.079c-0.217 0-0.394-0.177-0.394-0.394v-3.965c0-0.217 0.177-0.394 0.394-0.394h2.079c0.217 0 0.394 0.177 0.394 0.394v3.965c0 0.217-0.177 0.394-0.394 0.394zM20.782 24.156h1.292v-3.178h-1.292v3.178z"></path>
<path d="M14.080 29.984c-0.217 0-0.394-0.177-0.394-0.394v-3.575c0-0.217 0.177-0.394 0.394-0.394h3.772c0.217 0 0.394 0.177 0.394 0.394v3.382c0 0.217-0.177 0.394-0.394 0.394s-0.394-0.177-0.394-0.394v-2.989h-2.985v3.182c0 0.217-0.177 0.394-0.394 0.394z"></path>
</svg>
