<!-- Generated by IcoMoon.io -->
<svg version="1.1" xmlns="http://www.w3.org/2000/svg" width="32" height="32" viewBox="0 0 32 32">
<title>Icons_Supply-Chain-Mgmt</title>
<path d="M12.263 21.289c-0.113 0-0.219-0.053-0.289-0.152-1.312-1.865-1.089-4.393 0.525-6.008 1.83-1.83 4.806-1.83 6.635 0 1.513 1.513 1.812 3.854 0.726 5.698-0.099 0.169-0.314 0.222-0.483 0.123s-0.222-0.314-0.123-0.483c0.92-1.565 0.666-3.554-0.617-4.841-1.555-1.555-4.083-1.555-5.638 0-1.372 1.372-1.562 3.519-0.448 5.105 0.113 0.159 0.074 0.381-0.085 0.49-0.060 0.042-0.134 0.064-0.201 0.064z"></path>
<path d="M26.722 19.974c-0.194 0-0.353-0.159-0.353-0.353v-2.122l-2.468-1.114c-0.095-0.042-0.166-0.123-0.194-0.222-0.169-0.582-0.402-1.149-0.698-1.682-0.049-0.092-0.056-0.197-0.021-0.296l0.959-2.532-1.34-1.34-2.532 0.959c-0.095 0.035-0.205 0.028-0.296-0.021-0.536-0.296-1.104-0.529-1.682-0.698-0.099-0.028-0.18-0.099-0.222-0.194l-1.114-2.468h-1.893l-1.114 2.468c-0.042 0.095-0.123 0.166-0.222 0.194-0.582 0.166-1.146 0.402-1.682 0.698-0.092 0.049-0.197 0.056-0.296 0.021l-2.532-0.959-1.34 1.34 0.959 2.532c0.035 0.095 0.028 0.205-0.021 0.296-0.296 0.536-0.529 1.104-0.698 1.682-0.028 0.099-0.099 0.18-0.194 0.222l-2.468 1.114v2.122c0 0.194-0.159 0.353-0.353 0.353s-0.353-0.159-0.353-0.353v-2.352c0-0.138 0.081-0.264 0.208-0.321l2.528-1.139c0.162-0.525 0.374-1.037 0.631-1.527l-0.98-2.595c-0.049-0.13-0.018-0.275 0.081-0.374l1.661-1.661c0.099-0.099 0.243-0.13 0.374-0.081l2.595 0.98c0.49-0.257 1.001-0.472 1.527-0.631l1.139-2.528c0.056-0.127 0.183-0.208 0.321-0.208h2.348c0.138 0 0.264 0.081 0.321 0.208l1.139 2.528c0.525 0.162 1.037 0.374 1.527 0.631l2.595-0.98c0.13-0.049 0.275-0.018 0.374 0.081l1.661 1.661c0.099 0.099 0.13 0.243 0.081 0.374l-0.98 2.595c0.257 0.49 0.469 1.001 0.631 1.527l2.528 1.139c0.127 0.056 0.208 0.183 0.208 0.321v2.352c0 0.194-0.159 0.353-0.353 0.353z"></path>
<path d="M6.047 24.814h-3.854c-1.209 0-2.193-0.984-2.193-2.197v-1.171c0-1.209 0.984-2.193 2.193-2.193h3.854c1.209 0 2.197 0.984 2.197 2.193v1.171c0 1.209-0.984 2.197-2.197 2.197zM2.193 19.959c-0.822 0-1.488 0.67-1.488 1.488v1.171c0 0.822 0.67 1.491 1.488 1.491h3.854c0.822 0 1.491-0.67 1.491-1.491v-1.171c0-0.822-0.67-1.488-1.491-1.488h-3.854z"></path>
<path d="M17.978 24.814h-3.854c-1.209 0-2.193-0.984-2.193-2.197v-1.171c0-1.209 0.984-2.193 2.193-2.193h3.854c1.209 0 2.197 0.984 2.197 2.193v1.171c0 1.209-0.984 2.197-2.197 2.197zM14.124 19.959c-0.822 0-1.488 0.67-1.488 1.488v1.171c0 0.822 0.67 1.491 1.488 1.491h3.854c0.822 0 1.491-0.67 1.491-1.491v-1.171c0-0.822-0.67-1.488-1.491-1.488h-3.854z"></path>
<path d="M29.803 24.814h-3.854c-1.209 0-2.193-0.984-2.193-2.197v-1.171c0-1.209 0.984-2.193 2.193-2.193h3.854c1.209 0 2.197 0.984 2.197 2.193v1.171c0 1.209-0.984 2.197-2.197 2.197zM25.95 19.959c-0.822 0-1.488 0.67-1.488 1.488v1.171c0 0.822 0.67 1.491 1.488 1.491h3.854c0.822 0 1.491-0.67 1.491-1.491v-1.171c0-0.822-0.67-1.488-1.491-1.488h-3.854z"></path>
<path d="M14.293 22.385h-8.42c-0.194 0-0.353-0.159-0.353-0.353s0.159-0.353 0.353-0.353h8.42c0.194 0 0.353 0.159 0.353 0.353s-0.159 0.353-0.353 0.353z"></path>
<path d="M26.172 22.385h-8.42c-0.194 0-0.353-0.159-0.353-0.353s0.159-0.353 0.353-0.353h8.42c0.194 0 0.353 0.159 0.353 0.353s-0.159 0.353-0.353 0.353z"></path>
</svg>
