<!-- Generated by IcoMoon.io -->
<svg version="1.1" xmlns="http://www.w3.org/2000/svg" width="32" height="32" viewBox="0 0 32 32">
<title>Icons_Staffing</title>
<path d="M2.755 26.107s-0.024 0-0.036 0c-0.219-0.020-0.382-0.211-0.362-0.43 0.123-1.426 0.374-3.297 0.593-3.962 0.151-0.458 0.494-0.832 0.936-1.027l3.528-1.402c0.107-0.163 0.151-0.346 0.227-0.709l0.78 0.163c-0.096 0.454-0.163 0.78-0.446 1.127-0.044 0.052-0.1 0.092-0.163 0.119l-3.62 1.438c-0.223 0.1-0.406 0.299-0.486 0.542-0.171 0.518-0.418 2.214-0.554 3.783-0.016 0.207-0.191 0.362-0.398 0.362z"></path>
<path d="M15.82 26.107c-0.203 0-0.378-0.155-0.398-0.362-0.135-1.573-0.386-3.269-0.557-3.783-0.080-0.247-0.263-0.446-0.498-0.55l-3.608-1.434c-0.064-0.024-0.119-0.068-0.163-0.119-0.283-0.346-0.35-0.673-0.446-1.127-0.044-0.215 0.092-0.43 0.307-0.474s0.426 0.092 0.47 0.307v0c0.076 0.37 0.119 0.554 0.227 0.717l3.516 1.394c0.458 0.199 0.796 0.573 0.948 1.031 0.219 0.661 0.47 2.537 0.593 3.962 0.020 0.219-0.143 0.414-0.362 0.43-0.012 0-0.024 0-0.036 0z"></path>
<path d="M7.155 11.58c-0.076 0-0.151-0.020-0.219-0.068-0.183-0.123-0.231-0.37-0.112-0.554 0.016-0.024 0.040-0.052 0.060-0.072 0.569-0.557 1.378-0.84 2.401-0.844 1.023 0 1.832 0.283 2.397 0.836 0.004 0.004 0.012 0.012 0.016 0.016 0.155 0.155 0.155 0.406 0 0.561-0.147 0.147-0.378 0.155-0.534 0.028-0.012-0.008-0.024-0.020-0.032-0.028-0.414-0.406-1.035-0.617-1.848-0.617s-1.434 0.211-1.848 0.617v0l-0.008 0.008c-0.076 0.072-0.175 0.107-0.275 0.107z"></path>
<path d="M9.293 19.536c-0.171 0-0.275-0.016-0.41-0.036l-0.064-0.012c-0.35-0.056-0.609-0.171-0.912-0.418-1.23-1.099-1.581-2.469-1.804-4.615-0.020-0.211 0.127-0.402 0.338-0.434 1.788-0.263 3.022-0.538 3.867-1.895 0.104-0.167 0.299-0.259 0.49-0.235 0.199 0.024 0.362 0.163 0.422 0.35 0.37 1.171 0.777 1.812 1.019 1.935 0.151 0.076 0.235 0.235 0.219 0.398-0.215 2.027-0.577 3.413-1.776 4.484-0.315 0.259-0.573 0.374-0.928 0.43l-0.060 0.008c-0.076 0.012-0.135 0.020-0.195 0.028-0.064 0.008-0.127 0.008-0.207 0.012zM6.936 14.75c0.235 2.007 0.617 2.935 1.485 3.711 0.179 0.147 0.307 0.207 0.522 0.239l0.060 0.012c0.107 0.016 0.175 0.028 0.283 0.028 0.044 0 0.088 0 0.131-0.008 0.048-0.004 0.092-0.012 0.151-0.020l0.056-0.008c0.219-0.036 0.346-0.092 0.538-0.251 0.856-0.765 1.242-1.724 1.477-3.731-0.414-0.358-0.749-1.039-0.996-1.7-0.932 1.147-2.194 1.489-3.711 1.728zM10.986 12.544v0z"></path>
<path d="M11.925 19.859c0 0.22-0.178 0.398-0.398 0.398s-0.398-0.178-0.398-0.398c0-0.22 0.178-0.398 0.398-0.398s0.398 0.178 0.398 0.398z"></path>
<path d="M12.176 19.93c-0.139 0-0.275-0.072-0.346-0.199-0.107-0.191-0.044-0.434 0.147-0.542 0.35-0.199 0.394-0.299 0.39-0.374-0.020-0.247 0.048-0.589 0.135-1.063 0.311-1.645 0.828-4.396-1.346-6.268-0.167-0.143-0.187-0.394-0.044-0.561s0.394-0.183 0.561-0.044c2.521 2.17 1.927 5.324 1.609 7.016-0.068 0.366-0.135 0.717-0.123 0.86 0.048 0.649-0.538 0.984-0.788 1.127-0.064 0.036-0.131 0.052-0.195 0.052z"></path>
<path d="M7.107 20.257c-0.032 0-0.064 0-0.1-0.012 0 0-0.044-0.012-0.048-0.012-0.211-0.060-0.331-0.283-0.271-0.494s0.279-0.334 0.494-0.271c0.211 0.060 0.35 0.283 0.291 0.494-0.048 0.175-0.199 0.299-0.37 0.299z"></path>
<path d="M6.418 19.922c-0.064 0-0.131-0.016-0.191-0.048-0.259-0.139-0.86-0.47-0.812-1.119 0.012-0.143-0.056-0.49-0.123-0.86-0.319-1.692-0.912-4.846 1.609-7.016 0.167-0.143 0.418-0.123 0.561 0.044s0.123 0.418-0.044 0.561c-2.174 1.872-1.657 4.623-1.346 6.268 0.088 0.474 0.155 0.816 0.135 1.063-0.008 0.096 0.112 0.207 0.402 0.362 0.191 0.104 0.263 0.346 0.159 0.542-0.072 0.131-0.207 0.207-0.35 0.207z"></path>
<path d="M6.303 23.164c-0.159 0-0.311-0.096-0.37-0.255-0.358-0.936-0.422-1.876-0.187-2.784 0.056-0.215 0.271-0.342 0.486-0.287s0.342 0.271 0.287 0.486c-0.191 0.745-0.139 1.521 0.159 2.298 0.080 0.207-0.024 0.434-0.231 0.514-0.048 0.016-0.096 0.028-0.143 0.028z"></path>
<path d="M6.637 24.342c-0.545 0-0.992-0.466-0.992-1.039s0.446-1.039 0.992-1.039 0.992 0.466 0.992 1.039-0.446 1.039-0.992 1.039zM6.637 23.060c-0.107 0-0.195 0.112-0.195 0.243s0.088 0.243 0.195 0.243 0.195-0.112 0.195-0.243-0.088-0.243-0.195-0.243z"></path>
<path d="M12.419 22.073s-0.036 0-0.056 0c-0.219-0.032-0.37-0.231-0.338-0.45 0.064-0.45 0.048-0.972-0.040-1.33-0.052-0.215 0.076-0.43 0.291-0.482 0.215-0.056 0.43 0.076 0.482 0.291 0.135 0.542 0.119 1.203 0.056 1.637-0.028 0.199-0.199 0.342-0.394 0.342z"></path>
<path d="M12.348 25.625c-0.080 0-0.155-0.008-0.231-0.028-0.215-0.052-0.346-0.263-0.295-0.478l0.080-0.342c0.048-0.215 0.263-0.346 0.478-0.299 0.064 0.016 0.119 0.044 0.167 0.084l0.239-1.708c0.024-0.195 0.024-0.681-0.486-0.8-0.514-0.123-0.721 0.311-0.788 0.502l-0.542 1.633c0.060-0.016 0.123-0.016 0.187 0 0.215 0.052 0.346 0.263 0.299 0.478l-0.080 0.342c-0.024 0.104-0.088 0.191-0.179 0.247s-0.199 0.072-0.303 0.048c-0.267-0.064-0.51-0.243-0.649-0.482-0.127-0.215-0.159-0.458-0.096-0.685l0.609-1.84c0.279-0.792 0.972-1.203 1.724-1.019 0.753 0.179 1.191 0.852 1.091 1.676l-0.267 1.911c-0.048 0.251-0.183 0.454-0.394 0.589-0.167 0.108-0.366 0.167-0.565 0.167z"></path>
<path d="M9.281 22.638c-0.275 0-0.538-0.116-0.729-0.315-0.522-0.561-0.868-1-1.083-1.378-0.080-0.139-0.167-0.283-0.187-0.47l-0.092-0.784c-0.024-0.219 0.131-0.414 0.35-0.442 0.223-0.028 0.414 0.131 0.442 0.35l0.092 0.788c0 0.024 0.040 0.088 0.064 0.127l0.020 0.036c0.183 0.323 0.502 0.725 0.976 1.23 0.072 0.080 0.215 0.080 0.287 0 0.474-0.506 0.792-0.912 0.976-1.23 0.044-0.076 0.084-0.143 0.084-0.167l0.092-0.788c0.024-0.219 0.219-0.378 0.442-0.35 0.219 0.024 0.374 0.223 0.35 0.442l-0.092 0.792c-0.020 0.187-0.104 0.331-0.167 0.442-0.235 0.41-0.581 0.848-1.099 1.406-0.187 0.199-0.45 0.315-0.725 0.315z"></path>
<path d="M26.269 10.999v0c-0.219 0-0.398-0.179-0.398-0.398 0-0.474 0.012-1.079 0.040-1.338 0-0.673-0.147-1.199-0.434-1.605-0.454-0.641-1.29-0.968-2.477-0.968v0c-0.47 0-0.605 0.080-0.733 0.159-0.139 0.084-0.315 0.191-0.641 0.191-1.27 0-1.457 1.406-1.457 2.242 0.016 0.223 0.036 0.916 0.044 1.306 0.004 0.219-0.167 0.402-0.39 0.406-0.219 0-0.402-0.167-0.406-0.39-0.016-0.653-0.032-1.127-0.044-1.298 0-1.927 0.84-3.062 2.25-3.066 0.108 0 0.131-0.016 0.227-0.076 0.239-0.143 0.506-0.275 1.147-0.275h0.004c1.461 0 2.513 0.438 3.126 1.302 0.386 0.545 0.581 1.246 0.581 2.091 0 0.016 0 0.032 0 0.052-0.020 0.151-0.032 0.637-0.036 1.27 0 0.219-0.179 0.398-0.398 0.398z"></path>
<path d="M23.035 15.1c-0.195 0-0.311-0.012-0.458-0.032l-0.064-0.012c-0.303-0.044-0.625-0.092-0.952-0.338-0.139-0.104-0.279-0.223-0.418-0.354-0.41-0.382-0.761-0.816-0.96-1.191-0.008-0.016-0.016-0.032-0.024-0.048l-0.247-0.669c-0.45-0.41-0.729-1.095-0.653-1.605 0.048-0.311 0.219-0.554 0.486-0.677 0.112-0.052 0.243-0.048 0.35 0.008 0.231-0.263 0.382-0.538 0.518-0.916 0.068-0.183 0.119-0.386 0.159-0.601 0.040-0.203 0.195-0.358 0.414-0.41 0.167-0.040 0.346-0.004 0.482 0.104 0.394 0.307 1.828 1.29 3.675 1.011 0.263-0.036 0.51 0.131 0.565 0.39 0.032 0.139 0.084 0.267 0.163 0.386 0.084-0.016 0.171-0.008 0.251 0.028 0.267 0.123 0.442 0.362 0.486 0.677 0.088 0.581-0.267 1.254-0.645 1.593l-0.255 0.685s-0.012 0.032-0.024 0.048c-0.199 0.374-0.55 0.808-0.96 1.195-0.135 0.127-0.275 0.247-0.418 0.354-0.326 0.247-0.649 0.295-0.96 0.338l-0.060 0.008c-0.143 0.020-0.259 0.032-0.458 0.032zM20.897 12.818c0.159 0.291 0.454 0.649 0.788 0.96 0.119 0.112 0.239 0.215 0.354 0.299 0.155 0.119 0.311 0.147 0.597 0.187l0.060 0.008c0.116 0.016 0.191 0.024 0.338 0.024s0.227-0.008 0.338-0.024l0.052-0.008c0.291-0.044 0.446-0.072 0.605-0.187 0.119-0.092 0.239-0.191 0.354-0.299 0.338-0.315 0.629-0.673 0.788-0.964l0.239-0.645c0.048-0.127 0.123-0.243 0.227-0.331 0.235-0.211 0.422-0.641 0.386-0.884v-0.008c-0.191 0-0.41-0.084-0.573-0.315-0.104-0.147-0.183-0.299-0.243-0.458-1.716 0.167-3.086-0.557-3.739-0.996-0.032 0.116-0.068 0.231-0.108 0.338-0.187 0.534-0.422 0.92-0.78 1.294-0.159 0.167-0.358 0.219-0.546 0.191-0.008 0.247 0.171 0.637 0.394 0.836 0.1 0.088 0.179 0.203 0.223 0.331l0.239 0.641zM21.184 8.976v0z"></path>
<path d="M29.586 21.392c-0.203 0-0.378-0.155-0.394-0.362-0.135-1.438-0.382-2.987-0.554-3.456-0.076-0.215-0.255-0.394-0.49-0.486l-3.452-1.318c-0.123-0.048-0.215-0.151-0.243-0.279-0.096-0.39-0.123-0.904-0.151-1.398-0.012-0.219 0.155-0.426 0.374-0.438 0.227-0.008 0.406 0.139 0.418 0.358v0.036c0.020 0.354 0.040 0.749 0.092 1.051l3.253 1.242c0.45 0.179 0.796 0.53 0.952 0.96 0.219 0.613 0.47 2.337 0.593 3.652 0.020 0.219-0.139 0.414-0.358 0.434-0.012 0-0.024 0-0.040 0z"></path>
<path d="M23.035 16.565c-0.247 0-0.494-0.056-0.717-0.171l-1.262-0.641c-0.195-0.1-0.275-0.338-0.175-0.534s0.338-0.275 0.534-0.175l1.262 0.641c0.223 0.116 0.49 0.116 0.713 0l1.262-0.641c0.195-0.1 0.434-0.020 0.534 0.175s0.020 0.434-0.175 0.534l-1.262 0.641c-0.223 0.116-0.47 0.171-0.717 0.171z"></path>
<path d="M16.517 21.392s-0.024 0-0.040 0c-0.219-0.020-0.378-0.215-0.358-0.434 0.123-1.31 0.374-3.038 0.597-3.656 0.155-0.426 0.494-0.776 0.936-0.956l3.213-1.242c0.052-0.279 0.088-0.649 0.112-1.091 0.012-0.219 0.203-0.394 0.418-0.378 0.219 0.012 0.386 0.199 0.378 0.418-0.032 0.613-0.092 1.095-0.175 1.434-0.032 0.127-0.123 0.231-0.243 0.275l-3.409 1.318c-0.227 0.092-0.402 0.267-0.478 0.482-0.167 0.47-0.418 2.023-0.554 3.46-0.020 0.207-0.191 0.362-0.394 0.362z"></path>
<path d="M20.559 18.409c-0.155 0-0.303-0.092-0.366-0.243-0.358-0.856-0.426-1.708-0.203-2.541 0.056-0.211 0.275-0.338 0.486-0.283s0.338 0.275 0.283 0.486c-0.175 0.657-0.119 1.342 0.167 2.031 0.084 0.203-0.012 0.438-0.215 0.522-0.052 0.020-0.104 0.032-0.155 0.032z"></path>
<path d="M20.889 19.484c-0.546 0-0.992-0.442-0.992-0.988s0.446-0.988 0.992-0.988 0.992 0.442 0.992 0.988-0.446 0.988-0.992 0.988zM20.889 18.306c-0.108 0-0.195 0.084-0.195 0.191s0.088 0.191 0.195 0.191 0.195-0.088 0.195-0.191-0.088-0.191-0.195-0.191z"></path>
<path d="M25.779 17.533c-0.020 0-0.040 0-0.064-0.004-0.219-0.036-0.366-0.239-0.331-0.454 0.072-0.454 0.060-0.868-0.032-1.23-0.056-0.215 0.072-0.43 0.287-0.486 0.215-0.052 0.43 0.072 0.486 0.287 0.119 0.466 0.135 0.992 0.048 1.553-0.032 0.195-0.199 0.338-0.394 0.338z"></path>
<path d="M25.699 21.256c-0.084 0-0.163-0.008-0.247-0.028-0.104-0.024-0.195-0.088-0.255-0.179s-0.076-0.203-0.048-0.307l0.092-0.358c0.056-0.215 0.271-0.342 0.486-0.287 0.1 0.024 0.183 0.088 0.235 0.171l0.287-1.895c0.028-0.207 0.024-0.721-0.593-0.852-0.657-0.147-0.916 0.382-0.98 0.55l-0.637 1.76c0.084-0.044 0.183-0.060 0.283-0.032 0.215 0.056 0.342 0.271 0.287 0.482l-0.092 0.358c-0.052 0.207-0.263 0.334-0.47 0.291-0.307-0.068-0.577-0.259-0.729-0.518-0.127-0.219-0.159-0.462-0.088-0.693l0.697-1.927c0.315-0.82 1.059-1.227 1.892-1.047 0.836 0.183 1.322 0.884 1.211 1.744l-0.303 2.003c-0.048 0.247-0.191 0.45-0.402 0.585-0.183 0.119-0.41 0.183-0.637 0.183z"></path>
<path d="M2.842 8.283c-0.072 0-0.143-0.020-0.207-0.060-0.187-0.116-0.247-0.358-0.131-0.545 2.935-4.806 8.044-7.677 13.666-7.677 1.573 0 3.13 0.227 4.623 0.677 0.211 0.064 0.331 0.287 0.267 0.498s-0.287 0.331-0.498 0.267c-1.418-0.426-2.895-0.645-4.392-0.645-5.344 0-10.202 2.728-12.989 7.295-0.076 0.123-0.207 0.191-0.338 0.191z"></path>
<path d="M2.412 8.673c-0.092 0-0.179-0.032-0.251-0.092-0.092-0.076-0.147-0.187-0.147-0.307v-5.328c0-0.219 0.179-0.398 0.398-0.398s0.398 0.179 0.398 0.398v4.842l4.4-0.88c0.219-0.044 0.426 0.096 0.47 0.311s-0.096 0.426-0.311 0.47l-4.878 0.976c-0.028 0.004-0.052 0.008-0.080 0.008z"></path>
<path d="M16.17 32c-3.954 0-7.753-1.453-10.692-4.098-0.163-0.147-0.175-0.398-0.032-0.561 0.147-0.163 0.398-0.175 0.561-0.032 2.791 2.509 6.403 3.895 10.162 3.895 4.285 0 8.394-1.824 11.273-5.001 0.147-0.163 0.398-0.175 0.561-0.028s0.175 0.398 0.028 0.561c-3.030 3.345-7.351 5.264-11.863 5.264z"></path>
<path d="M27.826 31.626s-0.024 0-0.036 0c-0.219-0.020-0.378-0.215-0.358-0.434l0.45-4.822-4.464 0.466c-0.227 0.020-0.414-0.135-0.438-0.354s0.135-0.414 0.354-0.438l4.95-0.518c0.119-0.016 0.235 0.028 0.323 0.112 0.084 0.084 0.127 0.203 0.116 0.319l-0.494 5.304c-0.020 0.207-0.191 0.362-0.398 0.362z"></path>
</svg>
