<!-- Generated by IcoMoon.io -->
<svg version="1.1" xmlns="http://www.w3.org/2000/svg" width="32" height="32" viewBox="0 0 32 32">
<title>Icons_Cloud</title>
<path d="M4.986 17.698c-0.139 0-0.267-0.077-0.333-0.208-0.519-1.097-0.782-2.277-0.782-3.498 0-4.525 3.681-8.206 8.206-8.206 3.64 0 6.886 2.442 7.888 5.939 0.055 0.194-0.055 0.395-0.252 0.453-0.194 0.055-0.395-0.058-0.453-0.252-0.914-3.184-3.867-5.41-7.186-5.41-4.123 0-7.475 3.352-7.475 7.475 0 1.115 0.241 2.186 0.713 3.187 0.088 0.183 0.007 0.402-0.175 0.486-0.051 0.022-0.102 0.037-0.157 0.037z"></path>
<path d="M26.751 17.844c-0.058 0-0.117-0.015-0.168-0.040-0.179-0.095-0.249-0.314-0.153-0.493 0.395-0.749 0.599-1.597 0.599-2.449 0-2.906-2.365-5.274-5.274-5.274-0.936 0-1.857 0.249-2.661 0.72-0.175 0.102-0.398 0.044-0.501-0.132s-0.044-0.398 0.132-0.501c0.914-0.537 1.963-0.819 3.030-0.819 3.311 0 6.005 2.694 6.005 6.005 0 0.969-0.238 1.934-0.683 2.789-0.066 0.124-0.194 0.197-0.325 0.197z"></path>
<path d="M26.459 26.214h-20.918c-3.056 0-5.541-2.485-5.541-5.541 0-2.548 1.722-4.759 4.192-5.377 0.197-0.048 0.395 0.069 0.442 0.267s-0.069 0.395-0.267 0.442c-2.142 0.537-3.637 2.456-3.637 4.668 0 2.654 2.156 4.81 4.81 4.81h20.922c2.654 0 4.81-2.157 4.81-4.81 0-2.252-1.594-4.229-3.794-4.704-0.197-0.044-0.322-0.238-0.281-0.435s0.238-0.322 0.435-0.281c2.533 0.545 4.368 2.825 4.368 5.417 0 3.056-2.485 5.541-5.541 5.541z"></path>
</svg>
