<!-- Generated by IcoMoon.io -->
<svg version="1.1" xmlns="http://www.w3.org/2000/svg" width="32" height="32" viewBox="0 0 32 32">
<title>Icons_Magnify-Glass-Web-Only</title>
<path d="M31.246 27.596l-6.198-6.198c-0.402-0.402-1.012-0.466-1.482-0.195l-1.898-1.898c3.567-4.72 3.201-11.484-1.099-15.781-4.699-4.699-12.345-4.699-17.045 0s-4.699 12.345 0 17.045c2.35 2.35 5.436 3.525 8.521 3.525 2.561 0 5.121-0.809 7.26-2.426l1.898 1.898c-0.271 0.47-0.207 1.081 0.195 1.482l6.198 6.198c1.006 1.006 2.639 1.006 3.647 0 1.006-1.006 1.006-2.639 0-3.647zM18.024 17.834c-1.625 1.625-3.756 2.436-5.89 2.436-2.133 0-4.266-0.811-5.89-2.436-3.247-3.247-3.247-8.531 0-11.779 1.625-1.625 3.758-2.436 5.89-2.436s4.266 0.811 5.89 2.436c3.247 3.247 3.247 8.531 0 11.779z"></path>
</svg>
