<!-- Generated by IcoMoon.io -->
<svg version="1.1" xmlns="http://www.w3.org/2000/svg" width="32" height="32" viewBox="0 0 32 32">
<title>Icons_IT-Support</title>
<path d="M5.582 21.852h-2.281c-1.822 0-3.301-1.484-3.301-3.301v-2.584c0-1.822 1.484-3.301 3.301-3.301h2.281c0.245 0 0.446 0.2 0.446 0.445v8.295c0 0.245-0.2 0.445-0.446 0.445zM3.301 13.556c-1.328 0-2.41 1.083-2.41 2.41v2.584c0 1.328 1.083 2.41 2.41 2.41h1.835v-7.404h-1.835z"></path>
<path d="M28.699 21.852h-2.281c-0.245 0-0.445-0.2-0.445-0.445v-8.295c0-0.245 0.2-0.446 0.445-0.446h2.281c1.822 0 3.301 1.484 3.301 3.301v2.584c0 1.822-1.484 3.301-3.301 3.301zM26.863 20.961h1.835c1.328 0 2.41-1.083 2.41-2.41v-2.584c0-1.328-1.083-2.41-2.41-2.41h-1.835v7.404z"></path>
<path d="M17.29 32h-2.575c-1.328 0-2.41-1.083-2.41-2.41s1.083-2.41 2.41-2.41h2.575c1.328 0 2.41 1.083 2.41 2.41s-1.083 2.41-2.41 2.41zM14.715 28.071c-0.838 0-1.519 0.682-1.519 1.519s0.682 1.519 1.519 1.519h2.575c0.838 0 1.519-0.682 1.519-1.519s-0.682-1.519-1.519-1.519h-2.575z"></path>
<path d="M28.44 13.556c-0.245 0-0.445-0.2-0.445-0.446v-0.227c0-6.611-5.382-11.993-11.993-11.993s-11.993 5.382-11.993 11.993v0.227c0 0.245-0.2 0.445-0.446 0.445s-0.446-0.2-0.446-0.445v-0.227c0-7.106 5.778-12.884 12.884-12.884s12.884 5.778 12.884 12.884v0.227c0 0.245-0.2 0.445-0.445 0.445z"></path>
<path d="M22.382 30.035h-3.127c-0.245 0-0.445-0.2-0.445-0.445s0.2-0.445 0.445-0.445h3.127c3.096 0 5.613-2.517 5.613-5.613v-2.125c0-0.245 0.2-0.445 0.445-0.445s0.445 0.2 0.445 0.445v2.125c0 3.586-2.918 6.504-6.504 6.504z"></path>
<path d="M16.002 18.657c-1.492 0-2.709-1.216-2.709-2.709s1.216-2.709 2.709-2.709 2.709 1.216 2.709 2.709-1.216 2.709-2.709 2.709zM16.002 14.136c-1.002 0-1.818 0.815-1.818 1.818s0.815 1.818 1.818 1.818 1.818-0.815 1.818-1.818-0.815-1.818-1.818-1.818z"></path>
<path d="M16.773 23.54h-1.541c-0.174 0-0.334-0.102-0.405-0.263l-0.708-1.568c-0.294-0.098-0.584-0.214-0.855-0.356l-1.608 0.61c-0.165 0.062-0.348 0.022-0.472-0.102l-1.087-1.087c-0.125-0.125-0.165-0.307-0.102-0.472l0.61-1.608c-0.138-0.276-0.258-0.561-0.356-0.855l-1.568-0.708c-0.16-0.071-0.263-0.232-0.263-0.405v-1.541c0-0.174 0.102-0.334 0.263-0.405l1.568-0.708c0.098-0.294 0.214-0.584 0.356-0.855l-0.61-1.608c-0.062-0.165-0.022-0.348 0.102-0.472l1.087-1.087c0.125-0.125 0.307-0.165 0.472-0.102l1.608 0.61c0.276-0.138 0.561-0.258 0.855-0.356l0.708-1.568c0.071-0.16 0.232-0.263 0.405-0.263h1.541c0.174 0 0.334 0.102 0.405 0.263l0.708 1.568c0.294 0.098 0.584 0.214 0.855 0.356l1.608-0.61c0.165-0.062 0.348-0.022 0.472 0.102l1.087 1.087c0.125 0.125 0.165 0.307 0.102 0.472l-0.61 1.608c0.138 0.276 0.258 0.561 0.356 0.855l1.568 0.708c0.16 0.071 0.263 0.232 0.263 0.405v1.541c0 0.174-0.102 0.334-0.263 0.405l-1.568 0.708c-0.098 0.294-0.214 0.584-0.356 0.855l0.61 1.608c0.062 0.165 0.022 0.348-0.102 0.472l-1.087 1.087c-0.125 0.125-0.307 0.165-0.472 0.102l-1.608-0.61c-0.276 0.138-0.561 0.258-0.855 0.356l-0.708 1.568c-0.071 0.16-0.232 0.263-0.405 0.263zM15.521 22.649h0.962l0.673-1.488c0.053-0.12 0.156-0.209 0.281-0.245 0.37-0.107 0.726-0.254 1.060-0.437 0.116-0.062 0.249-0.071 0.374-0.027l1.528 0.579 0.682-0.682-0.579-1.528c-0.045-0.12-0.036-0.258 0.027-0.374 0.183-0.334 0.33-0.691 0.437-1.060 0.036-0.125 0.125-0.227 0.245-0.281l1.488-0.673v-0.962l-1.488-0.673c-0.12-0.053-0.209-0.156-0.245-0.281-0.107-0.37-0.254-0.726-0.437-1.060-0.062-0.116-0.071-0.249-0.027-0.374l0.579-1.528-0.682-0.682-1.528 0.579c-0.125 0.045-0.258 0.036-0.374-0.027-0.334-0.183-0.691-0.33-1.060-0.437-0.125-0.036-0.227-0.125-0.281-0.245l-0.673-1.488h-0.962l-0.673 1.488c-0.053 0.12-0.156 0.209-0.281 0.245-0.37 0.107-0.726 0.254-1.060 0.437-0.116 0.062-0.249 0.071-0.374 0.027l-1.528-0.579-0.682 0.682 0.579 1.528c0.045 0.12 0.036 0.258-0.027 0.374-0.183 0.334-0.334 0.691-0.437 1.060-0.036 0.125-0.125 0.227-0.245 0.281l-1.488 0.673v0.962l1.488 0.673c0.12 0.053 0.209 0.156 0.245 0.281 0.107 0.37 0.254 0.726 0.437 1.060 0.062 0.116 0.071 0.249 0.027 0.374l-0.579 1.528 0.682 0.682 1.528-0.579c0.12-0.045 0.258-0.036 0.374 0.027 0.33 0.183 0.686 0.33 1.060 0.437 0.125 0.036 0.227 0.125 0.281 0.245l0.673 1.488z"></path>
</svg>
