<!-- Generated by IcoMoon.io -->
<svg version="1.1" xmlns="http://www.w3.org/2000/svg" width="32" height="32" viewBox="0 0 32 32">
<title>Icons_Server</title>
<path d="M29.119 30.484c-0.224 0-0.407-0.183-0.407-0.407v-1.051h-2.359c-0.224 0-0.407-0.183-0.407-0.407s0.183-0.407 0.407-0.407h3.716c0.314 0 0.57-0.106 0.791-0.326s0.326-0.477 0.326-0.791v-2.323h-7.265v2.323c0 0.534-0.187 0.99-0.562 1.365s-0.835 0.562-1.369 0.562h-0.542v1.051c0 0.224-0.183 0.407-0.407 0.407s-0.407-0.183-0.407-0.407v-1.051h-9.262v1.051c0 0.224-0.183 0.407-0.408 0.407s-0.408-0.183-0.408-0.407v-1.051h-0.542c-0.126 0-0.253-0.012-0.371-0.033-0.049 0.020-0.102 0.033-0.159 0.033h-6.194v1.051c0 0.224-0.183 0.407-0.407 0.407s-0.407-0.183-0.407-0.407v-1.051h-0.546c-0.534 0-0.994-0.192-1.365-0.562s-0.562-0.835-0.562-1.369v-19.877c0.012-0.526 0.2-0.97 0.562-1.328 0.375-0.375 0.831-0.562 1.365-0.562h6.153v-1.878c0-0.534 0.187-0.99 0.562-1.365s0.835-0.562 1.369-0.562h11.976c0.534 0 0.994 0.187 1.369 0.562s0.562 0.835 0.562 1.369v1.879h6.153c0.534 0 0.994 0.191 1.365 0.562 0.363 0.359 0.55 0.807 0.562 1.32v19.885c0 0.534-0.187 0.994-0.562 1.369s-0.835 0.562-1.365 0.562h-0.546v1.051c0 0.224-0.183 0.407-0.407 0.407zM21.039 28.21h0.949c0.314 0 0.575-0.106 0.791-0.326 0.22-0.22 0.326-0.477 0.326-0.791v-2.323h-14.209v2.323c0 0.314 0.106 0.57 0.326 0.791 0.216 0.216 0.477 0.326 0.791 0.326h11.027zM2.881 28.21h5.55c-0.232-0.322-0.35-0.697-0.35-1.117v-2.323h-7.266v2.323c0 0.314 0.106 0.575 0.326 0.791s0.477 0.326 0.791 0.326h0.954zM23.92 23.96h7.265v-16.74c-0.008-0.293-0.114-0.542-0.322-0.754-0.22-0.22-0.477-0.326-0.791-0.326h-6.153v17.819zM8.896 23.96h14.209v-20.509c0-0.314-0.106-0.57-0.326-0.791-0.216-0.216-0.477-0.322-0.791-0.322h-11.976c-0.314 0-0.575 0.106-0.791 0.326-0.22 0.22-0.326 0.477-0.326 0.791v1.879h11.043c0.224 0 0.407 0.183 0.407 0.407s-0.183 0.407-0.407 0.407h-11.043v17.819zM0.815 23.96h7.266v-17.819h-6.153c-0.314 0-0.57 0.106-0.791 0.326-0.212 0.212-0.318 0.46-0.326 0.762v16.731zM28.043 20.965h-1.687c-0.224 0-0.407-0.183-0.407-0.407s0.183-0.407 0.407-0.407h1.687c0.224 0 0.407 0.183 0.407 0.407s-0.183 0.407-0.407 0.407zM19.959 20.965h-7.918c-0.224 0-0.408-0.183-0.408-0.407s0.183-0.407 0.408-0.407h7.918c0.224 0 0.407 0.183 0.407 0.407s-0.183 0.407-0.407 0.407zM5.648 20.965h-1.687c-0.224 0-0.407-0.183-0.407-0.407s0.183-0.407 0.407-0.407h1.687c0.224 0 0.407 0.183 0.407 0.407s-0.183 0.407-0.407 0.407zM28.043 18.007h-1.687c-0.224 0-0.407-0.183-0.407-0.407s0.183-0.407 0.407-0.407h1.687c0.224 0 0.407 0.183 0.407 0.407s-0.183 0.407-0.407 0.407zM19.959 18.007h-7.918c-0.224 0-0.408-0.183-0.408-0.407s0.183-0.407 0.408-0.407h7.918c0.224 0 0.407 0.183 0.407 0.407s-0.183 0.407-0.407 0.407zM5.648 18.007h-1.687c-0.224 0-0.407-0.183-0.407-0.407s0.183-0.407 0.407-0.407h1.687c0.224 0 0.407 0.183 0.407 0.407s-0.183 0.407-0.407 0.407zM28.043 15.049h-1.687c-0.224 0-0.407-0.183-0.407-0.408s0.183-0.408 0.407-0.408h1.687c0.224 0 0.407 0.183 0.407 0.408s-0.183 0.408-0.407 0.408zM19.943 15.049h-7.901c-0.224 0-0.408-0.183-0.408-0.408s0.183-0.408 0.408-0.408h7.901c0.224 0 0.407 0.183 0.407 0.408s-0.183 0.408-0.407 0.408zM5.648 15.049h-1.687c-0.224 0-0.407-0.183-0.407-0.408s0.183-0.408 0.407-0.408h1.687c0.224 0 0.407 0.183 0.407 0.408s-0.183 0.408-0.407 0.408zM28.043 12.078h-1.687c-0.224 0-0.407-0.183-0.407-0.408s0.183-0.408 0.407-0.408h1.687c0.224 0 0.407 0.183 0.407 0.408s-0.183 0.408-0.407 0.408zM19.943 12.078h-7.901c-0.224 0-0.408-0.183-0.408-0.408s0.183-0.408 0.408-0.408h7.901c0.224 0 0.407 0.183 0.407 0.408s-0.183 0.408-0.407 0.408zM5.648 12.078h-1.687c-0.224 0-0.407-0.183-0.407-0.408s0.183-0.408 0.407-0.408h1.687c0.224 0 0.407 0.183 0.407 0.408s-0.183 0.408-0.407 0.408zM28.043 9.107h-1.687c-0.224 0-0.407-0.183-0.407-0.408s0.183-0.408 0.407-0.408h1.687c0.224 0 0.407 0.183 0.407 0.408s-0.183 0.408-0.407 0.408zM19.943 9.107h-7.901c-0.224 0-0.408-0.183-0.408-0.408s0.183-0.408 0.408-0.408h7.901c0.224 0 0.407 0.183 0.407 0.408s-0.183 0.408-0.407 0.408zM5.648 9.107h-1.687c-0.224 0-0.407-0.183-0.407-0.408s0.183-0.408 0.407-0.408h1.687c0.224 0 0.407 0.183 0.407 0.408s-0.183 0.408-0.407 0.408z"></path>
</svg>
