<!-- Generated by IcoMoon.io -->
<svg version="1.1" xmlns="http://www.w3.org/2000/svg" width="32" height="32" viewBox="0 0 32 32">
<title>Icons_Time-Hour-Glass</title>
<path d="M25.715 29.116c-0.191 0-0.363-0.139-0.399-0.334-0.815-4.415-3.507-7.365-6.432-10.24-0.684-0.672-1.356-1.409-1.422-2.383-0.081-1.202 0.807-2.151 1.646-2.949 2.68-2.55 5.283-5.515 6.187-9.923 0.045-0.22 0.257-0.363 0.481-0.318 0.22 0.045 0.363 0.261 0.318 0.481-0.949 4.627-3.65 7.707-6.424 10.35-0.737 0.701-1.45 1.454-1.393 2.301 0.045 0.688 0.583 1.271 1.177 1.857 3.022 2.969 5.804 6.024 6.66 10.676 0.041 0.22-0.106 0.432-0.326 0.473-0.024 0.004-0.049 0.008-0.073 0.008zM6.232 29.116c-0.024 0-0.049 0-0.073-0.008-0.22-0.041-0.367-0.253-0.326-0.473 0.839-4.55 3.434-7.446 6.741-10.762 0.53-0.53 1.055-1.104 1.104-1.76 0.061-0.827-0.656-1.593-1.328-2.244-3.312-3.189-5.682-6.183-6.493-10.411-0.041-0.22 0.102-0.436 0.322-0.477s0.436 0.102 0.477 0.322c0.77 4.016 3.059 6.892 6.257 9.976 0.807 0.778 1.662 1.711 1.576 2.888-0.069 0.933-0.701 1.633-1.34 2.273-3.206 3.21-5.723 6.008-6.517 10.33-0.037 0.196-0.208 0.334-0.399 0.334z"></path>
<path d="M26.53 3.67h-21.112c-0.53 0-0.957-0.432-0.957-0.957v-1.756c0-0.53 0.432-0.957 0.957-0.957h21.112c0.53 0 0.957 0.432 0.957 0.957v1.756c0 0.53-0.432 0.957-0.957 0.957zM5.417 0.815c-0.077 0-0.143 0.065-0.143 0.143v1.756c0 0.077 0.065 0.143 0.143 0.143h21.112c0.077 0 0.143-0.065 0.143-0.143v-1.756c0-0.077-0.065-0.143-0.143-0.143h-21.112z"></path>
<path d="M26.583 32h-21.112c-0.53 0-0.957-0.432-0.957-0.957v-1.756c0-0.53 0.432-0.957 0.957-0.957h21.112c0.53 0 0.957 0.432 0.957 0.957v1.756c0 0.53-0.432 0.957-0.957 0.957zM5.47 29.145c-0.077 0-0.143 0.065-0.143 0.143v1.756c0 0.077 0.065 0.143 0.143 0.143h21.112c0.077 0 0.143-0.065 0.143-0.143v-1.756c0-0.077-0.065-0.143-0.143-0.143h-21.112z"></path>
<path d="M10.285 25.466c-0.807 0-1.699-0.11-2.688-0.358-0.22-0.057-0.35-0.277-0.293-0.493 0.053-0.22 0.273-0.35 0.493-0.293 6.187 1.56 7.715-2.713 7.882-3.255v-7.471l-2.615-3.438c-0.094-0.122-0.11-0.289-0.041-0.428s0.212-0.228 0.367-0.228h5.711c0.159 0 0.305 0.094 0.371 0.236s0.041 0.314-0.061 0.436l-2.9 3.373s-0.012 0.012-0.016 0.020v7.552c0 0.037-0.004 0.073-0.012 0.106-0.444 1.646-2.273 4.236-6.195 4.236zM14.208 10.318l1.882 2.472 2.122-2.472h-4.004z"></path>
<path d="M21.312 24.244c-1.951 0-3.438-0.391-4.448-1.165-1.002-0.77-1.128-1.654-1.132-1.69-0.028-0.224 0.13-0.428 0.35-0.456 0.22-0.024 0.424 0.126 0.456 0.346 0.008 0.053 0.558 2.851 7.161 1.98 0.22-0.028 0.428 0.126 0.456 0.35s-0.126 0.428-0.35 0.456c-0.9 0.118-1.731 0.179-2.493 0.179z"></path>
</svg>
