<!-- Generated by IcoMoon.io -->
<svg version="1.1" xmlns="http://www.w3.org/2000/svg" width="32" height="32" viewBox="0 0 32 32">
<title>Icons_Bandaid-Recovery</title>
<path d="M13.304 32c-0.8 0-1.612-0.147-2.401-0.455v0l-1.681-0.657c-1.641-0.642-2.941-1.887-3.653-3.513s-0.753-3.425-0.11-5.066l7.059-18.091c0.642-1.641 1.887-2.937 3.513-3.653 1.623-0.712 3.425-0.753 5.066-0.11l1.681 0.657c1.641 0.642 2.941 1.887 3.653 3.513s0.753 3.425 0.11 5.066l-7.059 18.091c-1.021 2.614-3.528 4.218-6.178 4.218zM11.171 30.862c3.029 1.182 6.45-0.319 7.629-3.344l7.059-18.091c0.569-1.457 0.536-3.058-0.099-4.504s-1.788-2.555-3.245-3.124l-1.681-0.657c-1.461-0.569-3.058-0.536-4.504 0.099s-2.555 1.788-3.124 3.245l-7.059 18.091c-0.569 1.461-0.536 3.058 0.099 4.504s1.788 2.555 3.245 3.124l1.681 0.657z"></path>
<path d="M13.865 12.918c-0.147 0-0.294-0.026-0.437-0.081-0.617-0.242-0.921-0.94-0.683-1.557 0.242-0.617 0.936-0.925 1.557-0.683 0.617 0.242 0.921 0.94 0.683 1.557-0.184 0.474-0.639 0.764-1.12 0.764zM13.865 11.247c-0.187 0-0.363 0.114-0.437 0.297-0.092 0.239 0.026 0.51 0.264 0.606s0.51-0.026 0.606-0.264c0.092-0.239-0.026-0.51-0.264-0.606-0.055-0.022-0.114-0.033-0.169-0.033z"></path>
<path d="M12.727 15.836c-0.147 0-0.294-0.026-0.437-0.081-0.617-0.242-0.925-0.94-0.683-1.557 0.117-0.297 0.341-0.536 0.635-0.664s0.62-0.136 0.918-0.018c0.617 0.242 0.925 0.94 0.683 1.557-0.184 0.474-0.639 0.764-1.12 0.764zM12.727 14.166c-0.062 0-0.129 0.015-0.187 0.040-0.114 0.051-0.202 0.143-0.246 0.257-0.092 0.239 0.026 0.51 0.264 0.606 0.239 0.092 0.51-0.026 0.606-0.264 0.092-0.239-0.026-0.51-0.264-0.606-0.055-0.022-0.114-0.033-0.169-0.033z"></path>
<path d="M11.593 18.755c-0.147 0-0.297-0.029-0.437-0.084-0.617-0.242-0.921-0.94-0.683-1.557v0c0.117-0.297 0.341-0.536 0.635-0.664s0.62-0.136 0.918-0.018c0.617 0.242 0.921 0.94 0.683 1.557-0.117 0.297-0.341 0.536-0.635 0.664-0.154 0.070-0.319 0.103-0.481 0.103zM11.156 17.382c-0.092 0.239 0.026 0.51 0.264 0.606 0.117 0.044 0.242 0.044 0.356-0.007s0.202-0.143 0.246-0.257c0.092-0.239-0.026-0.51-0.264-0.606-0.117-0.044-0.242-0.044-0.356 0.007s-0.202 0.143-0.246 0.257v0z"></path>
<path d="M17.155 14.199c-0.147 0-0.294-0.029-0.437-0.084-0.617-0.242-0.925-0.94-0.683-1.557v0c0.242-0.617 0.94-0.925 1.557-0.683 0.301 0.117 0.536 0.341 0.664 0.635s0.136 0.62 0.018 0.918c-0.117 0.297-0.341 0.536-0.635 0.664-0.154 0.070-0.319 0.103-0.481 0.103zM16.718 12.826v0c-0.092 0.239 0.026 0.51 0.264 0.606 0.117 0.044 0.242 0.044 0.356-0.007s0.202-0.143 0.246-0.257c0.044-0.117 0.044-0.242-0.007-0.356s-0.143-0.202-0.257-0.246c-0.239-0.092-0.51 0.026-0.606 0.264z"></path>
<path d="M16.013 17.117c-0.147 0-0.294-0.029-0.437-0.084-0.617-0.242-0.921-0.94-0.683-1.557v0c0.242-0.617 0.94-0.925 1.557-0.683 0.301 0.117 0.536 0.341 0.664 0.635s0.136 0.62 0.018 0.918c-0.117 0.297-0.341 0.536-0.635 0.664-0.154 0.070-0.319 0.103-0.481 0.103zM15.576 15.744c-0.092 0.239 0.026 0.51 0.264 0.606 0.117 0.044 0.242 0.044 0.356-0.007s0.202-0.143 0.246-0.257c0.044-0.117 0.044-0.242-0.007-0.356s-0.143-0.202-0.257-0.246c-0.239-0.095-0.51 0.026-0.606 0.264v0z"></path>
<path d="M14.875 20.036c-0.147 0-0.294-0.029-0.437-0.084-0.297-0.117-0.536-0.341-0.664-0.635s-0.136-0.62-0.018-0.918 0.341-0.536 0.635-0.664c0.294-0.128 0.62-0.136 0.918-0.018s0.536 0.341 0.664 0.635c0.129 0.294 0.136 0.62 0.018 0.918s-0.341 0.536-0.635 0.664c-0.154 0.070-0.319 0.103-0.481 0.103zM14.875 18.366c-0.062 0-0.129 0.015-0.187 0.040-0.114 0.051-0.202 0.143-0.246 0.257v0c-0.044 0.117-0.044 0.242 0.007 0.356s0.143 0.202 0.257 0.246c0.117 0.044 0.242 0.044 0.356-0.007s0.202-0.143 0.246-0.257c0.044-0.117 0.044-0.242-0.007-0.356s-0.143-0.202-0.257-0.246c-0.055-0.022-0.114-0.033-0.169-0.033zM14.097 18.531v0z"></path>
<path d="M20.437 15.48c-0.147 0-0.294-0.026-0.437-0.081-0.301-0.117-0.536-0.341-0.664-0.635s-0.136-0.62-0.018-0.918 0.341-0.536 0.635-0.664c0.294-0.129 0.62-0.136 0.918-0.018 0.617 0.242 0.925 0.94 0.683 1.557-0.184 0.474-0.639 0.764-1.12 0.764zM20.437 13.81c-0.062 0-0.128 0.015-0.187 0.040-0.114 0.051-0.202 0.143-0.246 0.257v0c-0.044 0.117-0.044 0.242 0.007 0.356s0.143 0.202 0.257 0.246c0.239 0.092 0.51-0.026 0.606-0.264 0.092-0.239-0.026-0.51-0.264-0.606-0.055-0.022-0.114-0.033-0.169-0.033zM19.658 13.975v0z"></path>
<path d="M19.299 18.399c-0.147 0-0.294-0.026-0.437-0.081-0.297-0.117-0.536-0.341-0.664-0.635s-0.136-0.62-0.018-0.918 0.341-0.536 0.635-0.664c0.294-0.129 0.62-0.136 0.918-0.018s0.536 0.341 0.664 0.635c0.128 0.294 0.136 0.62 0.018 0.918-0.184 0.474-0.639 0.764-1.12 0.764zM19.299 16.728c-0.062 0-0.128 0.015-0.187 0.040-0.114 0.051-0.202 0.143-0.246 0.257v0c-0.044 0.117-0.044 0.242 0.007 0.356s0.143 0.202 0.257 0.246c0.239 0.095 0.51-0.026 0.606-0.264 0.044-0.117 0.044-0.242-0.007-0.356s-0.143-0.202-0.257-0.246c-0.055-0.022-0.114-0.033-0.169-0.033zM18.52 16.894v0z"></path>
<path d="M18.157 21.317c-0.143 0-0.29-0.026-0.433-0.081-0.617-0.242-0.921-0.94-0.683-1.557v0c0.117-0.297 0.341-0.536 0.635-0.664s0.62-0.136 0.918-0.018c0.617 0.242 0.921 0.94 0.683 1.557-0.184 0.474-0.639 0.764-1.12 0.764zM17.724 19.944c-0.092 0.239 0.026 0.51 0.264 0.606s0.51-0.026 0.606-0.264-0.026-0.51-0.264-0.606c-0.117-0.044-0.242-0.044-0.356 0.007s-0.202 0.143-0.246 0.257v0z"></path>
<path d="M24.431 13.564c-0.044 0-0.088-0.007-0.132-0.026l-12.735-4.971c-0.187-0.073-0.283-0.286-0.209-0.477s0.286-0.283 0.474-0.209l12.735 4.971c0.187 0.073 0.283 0.286 0.209 0.477-0.055 0.147-0.195 0.235-0.341 0.235z"></path>
<path d="M20.301 24.144c-0.044 0-0.088-0.007-0.132-0.026l-12.735-4.971c-0.187-0.073-0.283-0.286-0.209-0.477s0.286-0.283 0.474-0.209l12.735 4.971c0.187 0.073 0.283 0.286 0.209 0.477-0.055 0.147-0.195 0.235-0.341 0.235z"></path>
</svg>
