<!-- Generated by IcoMoon.io -->
<svg version="1.1" xmlns="http://www.w3.org/2000/svg" width="32" height="32" viewBox="0 0 32 32">
<title>Icons_Lightbulb</title>
<path d="M19.412 29.078h-6.823c-0.223 0-0.406-0.183-0.406-0.406v-5.232c0-0.56-0.317-1.080-0.82-1.356-3.263-1.786-5.187-5.208-5.017-8.929 0.223-4.936 4.424-9.068 9.364-9.214 2.642-0.073 5.134 0.893 7.022 2.728 1.891 1.835 2.93 4.298 2.93 6.933 0 3.531-1.924 6.778-5.021 8.479-0.507 0.28-0.824 0.8-0.824 1.36v5.228c0 0.223-0.183 0.406-0.406 0.406zM12.994 28.266h6.011v-4.822c0-0.856 0.479-1.648 1.246-2.070 2.837-1.559 4.603-4.534 4.603-7.769 0-2.415-0.954-4.672-2.687-6.352s-4.002-2.573-6.433-2.496c-4.526 0.134-8.373 3.917-8.576 8.438-0.154 3.409 1.607 6.543 4.599 8.183 0.763 0.418 1.238 1.21 1.238 2.066v4.826z"></path>
<path d="M15.998 32c-1.567 0-2.841-1.274-2.841-2.841v-0.487c0-0.223 0.183-0.406 0.406-0.406h4.875c0.223 0 0.406 0.183 0.406 0.406v0.487c0 1.567-1.274 2.841-2.841 2.841zM13.969 29.078v0.081c0 1.12 0.909 2.029 2.029 2.029s2.029-0.909 2.029-2.029v-0.081h-4.063z"></path>
<path d="M19.412 24.203h-6.823c-0.223 0-0.406-0.183-0.406-0.406s0.183-0.406 0.406-0.406h6.823c0.223 0 0.406 0.183 0.406 0.406s-0.183 0.406-0.406 0.406z"></path>
<path d="M17.463 24.203c-0.223 0-0.406-0.183-0.406-0.406v-9.339h-2.111v9.339c0 0.223-0.183 0.406-0.406 0.406s-0.406-0.183-0.406-0.406v-9.339h-1.055c-1.031 0-1.867-0.836-1.867-1.867s0.836-1.867 1.867-1.867 1.867 0.836 1.867 1.867v1.055h2.111v-1.055c0-1.031 0.836-1.867 1.867-1.867s1.867 0.836 1.867 1.867-0.836 1.867-1.867 1.867h-1.055v9.339c0 0.223-0.183 0.406-0.406 0.406zM17.869 13.646h1.055c0.58 0 1.055-0.475 1.055-1.055s-0.475-1.055-1.055-1.055-1.055 0.475-1.055 1.055v1.055zM13.076 11.535c-0.58 0-1.055 0.475-1.055 1.055s0.475 1.055 1.055 1.055h1.055v-1.055c0-0.58-0.475-1.055-1.055-1.055z"></path>
<path d="M19.412 26.638h-6.823c-0.223 0-0.406-0.183-0.406-0.406s0.183-0.406 0.406-0.406h6.823c0.223 0 0.406 0.183 0.406 0.406s-0.183 0.406-0.406 0.406z"></path>
<path d="M15.998 2.76c-0.223 0-0.406-0.183-0.406-0.406v-1.948c0-0.223 0.183-0.406 0.406-0.406s0.406 0.183 0.406 0.406v1.948c0 0.223-0.183 0.406-0.406 0.406z"></path>
<path d="M10.397 4.262c-0.142 0-0.276-0.073-0.353-0.203l-0.974-1.688c-0.114-0.195-0.045-0.442 0.15-0.556s0.442-0.045 0.556 0.15l0.974 1.688c0.114 0.195 0.045 0.442-0.15 0.556-0.065 0.037-0.134 0.053-0.203 0.053z"></path>
<path d="M6.293 8.365c-0.069 0-0.138-0.016-0.203-0.053l-1.688-0.974c-0.195-0.114-0.26-0.361-0.15-0.556 0.114-0.195 0.361-0.26 0.556-0.15l1.688 0.974c0.195 0.114 0.26 0.361 0.15 0.556-0.077 0.13-0.211 0.203-0.353 0.203z"></path>
<path d="M4.791 13.971h-1.948c-0.223 0-0.406-0.183-0.406-0.406s0.183-0.406 0.406-0.406h1.948c0.223 0 0.406 0.183 0.406 0.406s-0.183 0.406-0.406 0.406z"></path>
<path d="M4.605 20.55c-0.142 0-0.276-0.073-0.353-0.203-0.114-0.195-0.045-0.442 0.15-0.556l1.688-0.974c0.195-0.114 0.442-0.045 0.556 0.15s0.045 0.442-0.15 0.556l-1.688 0.974c-0.065 0.037-0.134 0.053-0.203 0.053z"></path>
<path d="M27.395 20.55c-0.069 0-0.138-0.016-0.203-0.053l-1.688-0.974c-0.195-0.114-0.26-0.361-0.15-0.556 0.114-0.195 0.361-0.26 0.556-0.15l1.688 0.974c0.195 0.114 0.26 0.361 0.15 0.556-0.077 0.13-0.211 0.203-0.353 0.203z"></path>
<path d="M29.157 13.971h-1.948c-0.223 0-0.406-0.183-0.406-0.406s0.183-0.406 0.406-0.406h1.948c0.223 0 0.406 0.183 0.406 0.406s-0.183 0.406-0.406 0.406z"></path>
<path d="M25.707 8.365c-0.142 0-0.276-0.073-0.353-0.203-0.114-0.195-0.045-0.442 0.15-0.556l1.688-0.974c0.195-0.114 0.442-0.045 0.556 0.15s0.045 0.442-0.15 0.556l-1.688 0.974c-0.065 0.037-0.134 0.053-0.203 0.053z"></path>
<path d="M21.603 4.262c-0.069 0-0.138-0.016-0.203-0.053-0.195-0.114-0.26-0.361-0.15-0.556l0.974-1.688c0.114-0.195 0.361-0.26 0.556-0.15 0.195 0.114 0.26 0.361 0.15 0.556l-0.974 1.688c-0.077 0.13-0.211 0.203-0.353 0.203z"></path>
</svg>
