<!-- Generated by IcoMoon.io -->
<svg version="1.1" xmlns="http://www.w3.org/2000/svg" width="32" height="32" viewBox="0 0 32 32">
<title>Icons_Quote</title>
<path d="M22.913 31.636h-1.078c-2.061 0-2.629-0.563-2.629-2.629v-24.771c0-2.757 1.125-3.882 3.882-3.882h6.104c1.863 0 2.809 0.407 2.809 2.629v0.719c0 2.222-0.946 2.629-2.809 2.629h-3.655v22.686c0 2.061-0.563 2.629-2.629 2.629zM23.092 1.3c-2.251 0-2.936 0.686-2.936 2.936v24.771c0 1.541 0.142 1.683 1.683 1.683h1.078c1.541 0 1.683-0.142 1.683-1.683v-23.631h4.601c1.617 0 1.863-0.217 1.863-1.683v-0.719c0-1.461-0.241-1.683-1.863-1.683h-6.104zM3.707 31.636h-1.078c-2.061 0-2.629-0.563-2.629-2.629v-24.771c0-2.757 1.125-3.882 3.882-3.882h6.284c2.061 0 2.629 0.563 2.629 2.629v0.719c0 2.061-0.563 2.629-2.629 2.629h-3.655v22.686c0 2.222-0.946 2.629-2.809 2.629zM3.887 1.3c-2.251 0-2.936 0.686-2.936 2.936v24.771c0 1.541 0.142 1.683 1.683 1.683h1.078c1.617 0 1.863-0.217 1.863-1.683v-23.631h4.601c1.541 0 1.683-0.142 1.683-1.683v-0.719c0-1.541-0.142-1.683-1.683-1.683h-6.284z"></path>
</svg>
