<!-- Generated by IcoMoon.io -->
<svg version="1.1" xmlns="http://www.w3.org/2000/svg" width="32" height="32" viewBox="0 0 32 32">
<title>Icons_Verify</title>
<path d="M28.608 28.198h-25.216c-1.871 0-3.392-1.521-3.392-3.392v-0.223c0-1.871 1.521-3.392 3.392-3.392h25.216c1.871 0 3.392 1.521 3.392 3.392v0.223c0 1.871-1.521 3.392-3.392 3.392zM3.392 21.857c-1.505 0-2.726 1.222-2.726 2.726v0.223c0 1.505 1.222 2.726 2.726 2.726h25.216c1.505 0 2.726-1.222 2.726-2.726v-0.223c0-1.505-1.222-2.726-2.726-2.726h-25.216z"></path>
<path d="M6.178 26.661h-2.583c-1.062 0-1.927-0.866-1.927-1.927v-0.083c0-1.062 0.866-1.927 1.927-1.927h2.583c0.183 0 0.333 0.15 0.333 0.333v3.272c0 0.183-0.15 0.333-0.333 0.333zM3.595 23.388c-0.696 0-1.262 0.566-1.262 1.262v0.083c0 0.696 0.566 1.262 1.262 1.262h2.25v-2.607h-2.25z"></path>
<path d="M28.335 26.661h-2.583c-0.183 0-0.333-0.15-0.333-0.333v-3.272c0-0.183 0.15-0.333 0.333-0.333h2.583c1.062 0 1.927 0.866 1.927 1.927v0.083c0 1.062-0.866 1.927-1.927 1.927zM26.085 25.995h2.25c0.696 0 1.262-0.566 1.262-1.262v-0.083c0-0.696-0.566-1.262-1.262-1.262h-2.25v2.607z"></path>
<path d="M10.719 26.654h-3.129c-0.183 0-0.333-0.15-0.333-0.333v-3.279c0-0.183 0.15-0.333 0.333-0.333h3.129c0.183 0 0.333 0.15 0.333 0.333v3.279c0 0.183-0.15 0.333-0.333 0.333zM7.923 25.988h2.463v-2.613h-2.463v2.613z"></path>
<path d="M15.259 26.654h-3.129c-0.183 0-0.333-0.15-0.333-0.333v-3.279c0-0.183 0.15-0.333 0.333-0.333h3.129c0.183 0 0.333 0.15 0.333 0.333v3.279c0 0.183-0.15 0.333-0.333 0.333zM12.463 25.988h2.463v-2.613h-2.463v2.613z"></path>
<path d="M19.8 26.654h-3.129c-0.183 0-0.333-0.15-0.333-0.333v-3.279c0-0.183 0.15-0.333 0.333-0.333h3.129c0.183 0 0.333 0.15 0.333 0.333v3.279c0 0.183-0.15 0.333-0.333 0.333zM17.004 25.988h2.463v-2.613h-2.463v2.613z"></path>
<path d="M24.34 26.654h-3.129c-0.183 0-0.333-0.15-0.333-0.333v-3.279c0-0.183 0.15-0.333 0.333-0.333h3.129c0.183 0 0.333 0.15 0.333 0.333v3.279c0 0.183-0.15 0.333-0.333 0.333zM21.544 25.988h2.463v-2.613h-2.463v2.613z"></path>
<path d="M15.469 20.040c-4.477 0-8.119-3.642-8.119-8.119s3.642-8.119 8.119-8.119 8.119 3.642 8.119 8.119-3.642 8.119-8.119 8.119zM15.469 4.464c-4.111 0-7.453 3.345-7.453 7.453s3.345 7.453 7.453 7.453 7.453-3.345 7.453-7.453-3.345-7.453-7.453-7.453z"></path>
<path d="M14.574 15.899c-0.093 0-0.183-0.040-0.246-0.107l-2.823-3.079c-0.123-0.136-0.117-0.346 0.020-0.469s0.346-0.113 0.469 0.020l2.467 2.69 3.282-8.089c0.070-0.17 0.263-0.253 0.433-0.183s0.253 0.263 0.183 0.433l-3.482 8.575c-0.043 0.107-0.136 0.183-0.25 0.203-0.020 0.003-0.040 0.007-0.060 0.007z"></path>
</svg>
