<!-- Generated by IcoMoon.io -->
<svg version="1.1" xmlns="http://www.w3.org/2000/svg" width="32" height="32" viewBox="0 0 32 32">
<title>Icons_Office-Moves</title>
<path d="M4 26.5c-0.145 0-0.28-0.060-0.375-0.17-0.15-0.17-3.625-4.185-3.625-7.83 0-2.205 1.795-4 4-4s4 1.795 4 4c0 3.645-3.475 7.66-3.625 7.83-0.095 0.11-0.23 0.17-0.375 0.17zM4 15.5c-1.655 0-3 1.345-3 3 0 2.605 2.12 5.585 3 6.71 0.88-1.125 3-4.105 3-6.71 0-1.655-1.345-3-3-3z"></path>
<path d="M28 12c-0.145 0-0.28-0.060-0.375-0.17-0.15-0.17-3.625-4.185-3.625-7.83 0-2.205 1.795-4 4-4s4 1.795 4 4c0 3.645-3.475 7.66-3.625 7.83-0.095 0.11-0.23 0.17-0.375 0.17zM28 1c-1.655 0-3 1.345-3 3 0 2.605 2.12 5.585 3 6.71 0.88-1.125 3-4.105 3-6.71 0-1.655-1.345-3-3-3z"></path>
<path d="M20 28c-0.275 0-0.5-0.225-0.5-0.5v-23c0-0.275 0.225-0.5 0.5-0.5s0.5 0.225 0.5 0.5v23c0 0.275-0.225 0.5-0.5 0.5zM12 28c-0.275 0-0.5-0.225-0.5-0.5v-23c0-0.275 0.225-0.5 0.5-0.5s0.5 0.225 0.5 0.5v23c0 0.275-0.225 0.5-0.5 0.5z"></path>
<path d="M20 5c-0.275 0-0.5-0.225-0.5-0.5 0-1.93-1.57-3.5-3.5-3.5s-3.5 1.57-3.5 3.5c0 0.275-0.225 0.5-0.5 0.5s-0.5-0.225-0.5-0.5c0-2.48 2.020-4.5 4.5-4.5s4.5 2.020 4.5 4.5c0 0.275-0.225 0.5-0.5 0.5z"></path>
<path d="M8 32c-2.48 0-4.5-2.020-4.5-4.5 0-0.275 0.225-0.5 0.5-0.5s0.5 0.225 0.5 0.5c0 1.93 1.57 3.5 3.5 3.5s3.5-1.57 3.5-3.5c0-0.275 0.225-0.5 0.5-0.5s0.5 0.225 0.5 0.5c0 2.48-2.020 4.5-4.5 4.5z"></path>
<path d="M24 32c-2.48 0-4.5-2.020-4.5-4.5 0-0.275 0.225-0.5 0.5-0.5s0.5 0.225 0.5 0.5c0 1.93 1.57 3.5 3.5 3.5s3.5-1.57 3.5-3.5c0-0.275 0.225-0.5 0.5-0.5s0.5 0.225 0.5 0.5c0 2.48-2.020 4.5-4.5 4.5z"></path>
<path d="M28 28c-0.275 0-0.5-0.225-0.5-0.5v-14c0-0.275 0.225-0.5 0.5-0.5s0.5 0.225 0.5 0.5v14c0 0.275-0.225 0.5-0.5 0.5z"></path>
<path d="M4.045 20.5c-1.175 0-2.135-0.96-2.135-2.135s0.96-2.135 2.135-2.135 2.135 0.96 2.135 2.135-0.96 2.135-2.135 2.135zM4.045 17.23c-0.625 0-1.135 0.51-1.135 1.135s0.51 1.135 1.135 1.135 1.135-0.51 1.135-1.135-0.51-1.135-1.135-1.135z"></path>
<path d="M28.075 6.135c-1.175 0-2.135-0.96-2.135-2.135s0.96-2.135 2.135-2.135 2.135 0.96 2.135 2.135-0.96 2.135-2.135 2.135zM28.075 2.865c-0.625 0-1.135 0.51-1.135 1.135s0.51 1.135 1.135 1.135 1.135-0.51 1.135-1.135-0.51-1.135-1.135-1.135z"></path>
</svg>
