<!-- Generated by IcoMoon.io -->
<svg version="1.1" xmlns="http://www.w3.org/2000/svg" width="32" height="32" viewBox="0 0 32 32">
<title>Icons_Global</title>
<path d="M21.010 31.998c-0.045 0-0.094-0.008-0.135-0.025-0.147-0.053-0.254-0.188-0.27-0.344l-1.409-14.011c-0.016-0.16 0.061-0.315 0.205-0.397 0.139-0.082 0.311-0.074 0.442 0.020l11.435 8.22c0.127 0.094 0.192 0.25 0.164 0.405s-0.143 0.283-0.299 0.324l-3.584 0.95 1.466 2.547c0.115 0.197 0.045 0.446-0.151 0.561l-2.936 1.696c-0.094 0.053-0.205 0.070-0.311 0.041s-0.192-0.098-0.25-0.192l-1.466-2.547-2.613 2.629c-0.078 0.078-0.184 0.123-0.291 0.123zM23.999 28.169s0.037 0 0.053 0c0.127 0.016 0.238 0.090 0.303 0.201l1.532 2.654 2.228-1.286-1.532-2.658c-0.066-0.111-0.074-0.246-0.025-0.36 0.049-0.119 0.151-0.205 0.274-0.238l3.264-0.864-9.993-7.184 1.229 12.246 2.38-2.396c0.078-0.078 0.18-0.123 0.291-0.123zM15.812 30.512c-0.033 0-0.061 0-0.094-0.012h-0.078s-0.008 0-0.012 0c-3.575-0.037-6.741-1.175-9.416-3.383-0.405-0.336-0.807-0.7-1.192-1.081-0.139-0.139-0.27-0.279-0.401-0.418h-0.004c-2.691-2.879-4.059-6.364-4.063-10.366 0-3.997 1.364-7.487 4.055-10.366l0.008-0.008c0.131-0.139 0.262-0.274 0.401-0.41 0.385-0.385 0.786-0.75 1.188-1.081 2.674-2.212 5.848-3.35 9.424-3.387h0.176c4.19 0 7.818 1.507 10.779 4.472 0.139 0.139 0.27 0.274 0.401 0.414v0c2.695 2.883 4.063 6.373 4.063 10.366v0 0.016c0 2.326-0.471 4.497-1.388 6.45-0.094 0.205-0.34 0.291-0.545 0.197-0.205-0.098-0.291-0.34-0.197-0.545 0.815-1.728 1.253-3.641 1.306-5.693h-6.59c-0.008 0.553-0.029 1.098-0.061 1.626-0.012 0.225-0.205 0.397-0.434 0.385-0.225-0.016-0.397-0.209-0.385-0.434 0.033-0.512 0.053-1.040 0.057-1.577h-6.606v4.509c0.455 0.012 0.901 0.037 1.339 0.082 0.225 0.025 0.389 0.225 0.365 0.451s-0.221 0.385-0.451 0.365c-0.41-0.041-0.827-0.070-1.253-0.078v8.674c0.774-0.020 1.511-0.094 2.22-0.213 0.225-0.037 0.434 0.111 0.471 0.336 0.037 0.221-0.111 0.434-0.336 0.471-0.774 0.131-1.577 0.209-2.392 0.225v0c-0.102 0.012-0.238 0.016-0.373 0.016zM9.681 22.317c0.283 1.003 0.635 1.962 1.048 2.85 0.061 0.135 0.127 0.266 0.192 0.397 0.192 0.381 0.377 0.717 0.565 1.024 1.139 1.88 2.453 2.912 3.911 3.072v-8.658c-2.064 0.049-3.985 0.491-5.721 1.315zM5.492 25.339c0.037 0.041 0.078 0.078 0.115 0.119 0.365 0.365 0.75 0.713 1.134 1.028 1.79 1.474 3.813 2.445 6.041 2.9-0.717-0.573-1.38-1.364-1.99-2.371-0.201-0.328-0.397-0.684-0.598-1.085-0.070-0.139-0.135-0.279-0.205-0.418-0.414-0.885-0.766-1.827-1.053-2.818-0.766 0.422-1.503 0.921-2.199 1.499-0.389 0.319-0.77 0.668-1.134 1.028-0.041 0.041-0.078 0.078-0.115 0.119zM1.388 15.661c0.090 3.469 1.282 6.516 3.547 9.076 0.033-0.033 0.061-0.061 0.094-0.094 0.385-0.381 0.786-0.745 1.192-1.081 0.786-0.651 1.626-1.212 2.502-1.679-0.467-1.888-0.717-3.977-0.745-6.217h-6.59zM8.797 15.661c0.025 2.105 0.254 4.067 0.676 5.844 1.81-0.831 3.801-1.274 5.93-1.327v-4.521h-6.61zM23.651 14.842h6.59c-0.086-3.469-1.278-6.52-3.547-9.080-0.033 0.033-0.066 0.066-0.098 0.102v0c-1.134 1.134-2.371 2.060-3.69 2.76 0.467 1.884 0.717 3.973 0.745 6.217zM16.226 14.842h6.606c-0.025-2.109-0.254-4.071-0.676-5.844-1.81 0.831-3.801 1.278-5.93 1.327v4.517zM8.797 14.842h6.61v-4.517c-2.13-0.049-4.12-0.496-5.93-1.327-0.422 1.773-0.651 3.735-0.676 5.844zM1.388 14.842h6.59c0.029-2.248 0.279-4.333 0.741-6.217-0.868-0.463-1.708-1.024-2.502-1.679-0.405-0.336-0.807-0.7-1.192-1.081-0.033-0.033-0.066-0.066-0.098-0.102-2.265 2.56-3.457 5.611-3.543 9.080zM9.681 8.191c1.737 0.823 3.661 1.261 5.721 1.315v-8.67c-1.462 0.164-2.781 1.196-3.919 3.080-0.188 0.315-0.377 0.663-0.561 1.028-0.066 0.131-0.131 0.266-0.192 0.397-0.418 0.889-0.77 1.847-1.048 2.85zM16.222 0.848v8.658c2.060-0.049 3.981-0.491 5.721-1.315-0.283-1.003-0.635-1.958-1.048-2.842-0.061-0.131-0.127-0.266-0.192-0.397-0.18-0.365-0.369-0.713-0.561-1.028-1.139-1.88-2.453-2.912-3.915-3.072zM5.484 5.164c0.041 0.041 0.078 0.082 0.119 0.119 0.365 0.365 0.745 0.713 1.134 1.032 0.7 0.577 1.438 1.077 2.199 1.495 0.287-0.991 0.639-1.937 1.053-2.822 0.066-0.139 0.135-0.279 0.201-0.414 0.192-0.385 0.393-0.75 0.594-1.085 0.61-1.012 1.278-1.802 1.995-2.375-2.232 0.455-4.255 1.425-6.045 2.904-0.381 0.315-0.762 0.663-1.13 1.028-0.041 0.041-0.078 0.082-0.119 0.119zM18.827 1.11c0.725 0.573 1.397 1.372 2.015 2.388 0.205 0.336 0.401 0.7 0.594 1.085 0.070 0.135 0.135 0.274 0.201 0.414 0.414 0.881 0.766 1.827 1.053 2.814 1.184-0.651 2.298-1.499 3.326-2.527v0c0.041-0.041 0.078-0.082 0.119-0.119-0.041-0.041-0.078-0.082-0.119-0.119-2.068-2.068-4.476-3.387-7.188-3.936z"></path>
</svg>
