<!-- Generated by IcoMoon.io -->
<svg version="1.1" xmlns="http://www.w3.org/2000/svg" width="32" height="32" viewBox="0 0 32 32">
<title>Icons_Office-365-Login</title>
<path d="M11.175 11.339h-10.486c-0.235 0-0.427-0.192-0.427-0.427v-10.486c0-0.235 0.192-0.427 0.427-0.427h10.486c0.235 0 0.427 0.192 0.427 0.427v10.486c0 0.235-0.192 0.427-0.427 0.427zM1.116 10.486h9.632v-9.632h-9.632v9.632z"></path>
<path d="M24.777 11.339h-10.486c-0.235 0-0.427-0.192-0.427-0.427v-10.486c0-0.235 0.192-0.427 0.427-0.427h10.486c0.235 0 0.427 0.192 0.427 0.427v10.486c0 0.235-0.192 0.427-0.427 0.427zM14.717 10.486h9.632v-9.632h-9.632v9.632z"></path>
<path d="M11.175 24.723h-10.486c-0.235 0-0.427-0.192-0.427-0.427v-10.486c0-0.235 0.192-0.427 0.427-0.427h10.486c0.235 0 0.427 0.192 0.427 0.427v10.486c0 0.235-0.192 0.427-0.427 0.427zM1.116 23.87h9.632v-9.632h-9.632v9.632z"></path>
<path d="M20.637 24.723h-6.346c-0.235 0-0.427-0.192-0.427-0.427v-10.486c0-0.235 0.192-0.427 0.427-0.427h10.486c0.235 0 0.427 0.192 0.427 0.427v2.851c0 0.235-0.192 0.427-0.427 0.427s-0.427-0.192-0.427-0.427v-2.424h-9.632v9.632h5.919c0.235 0 0.427 0.192 0.427 0.427s-0.192 0.427-0.427 0.427z"></path>
<path d="M30.619 32h-9.137c-0.619 0-1.118-0.504-1.118-1.118v-7.029c0-0.619 0.504-1.118 1.118-1.118h9.137c0.619 0 1.118 0.504 1.118 1.118v7.029c0 0.619-0.504 1.118-1.118 1.118zM21.482 23.584c-0.145 0-0.265 0.12-0.265 0.265v7.029c0 0.145 0.12 0.265 0.265 0.265h9.137c0.145 0 0.265-0.12 0.265-0.265v-7.029c0-0.145-0.12-0.265-0.265-0.265h-9.137z"></path>
<path d="M22.651 23.511c-0.235 0-0.427-0.192-0.427-0.427v-2.842c0-2.113 1.716-3.828 3.828-3.828s3.828 1.716 3.828 3.828c0 0.235-0.192 0.427-0.427 0.427s-0.427-0.192-0.427-0.427c0-1.639-1.336-2.975-2.975-2.975s-2.975 1.336-2.975 2.975v2.842c0 0.235-0.192 0.427-0.427 0.427z"></path>
<path d="M26.053 28.526c-0.235 0-0.427-0.192-0.427-0.427v-1.293c0-0.235 0.192-0.427 0.427-0.427s0.427 0.192 0.427 0.427v1.293c0 0.235-0.192 0.427-0.427 0.427z"></path>
</svg>
