<!-- Generated by IcoMoon.io -->
<svg version="1.1" xmlns="http://www.w3.org/2000/svg" width="32" height="32" viewBox="0 0 32 32">
<title>Icons_Deployment</title>
<path d="M24.060 20.186h-16.608c-0.183 0-0.333-0.15-0.333-0.333v-9.615c0-0.183 0.15-0.333 0.333-0.333h16.608c0.183 0 0.333 0.15 0.333 0.333v9.615c0 0.183-0.15 0.333-0.333 0.333zM7.786 19.52h15.941v-8.949h-15.941v8.949z"></path>
<path d="M27.557 27.179h-23.603c-0.117 0-0.223-0.060-0.283-0.157s-0.067-0.22-0.013-0.323l3.496-6.992c0.083-0.163 0.283-0.23 0.447-0.15 0.163 0.083 0.23 0.283 0.15 0.447l-3.256 6.512h22.523l-3.256-6.512c-0.083-0.163-0.017-0.363 0.15-0.447 0.163-0.083 0.363-0.017 0.447 0.15l3.496 6.992c0.053 0.103 0.047 0.227-0.013 0.323s-0.167 0.157-0.283 0.157z"></path>
<path d="M25.604 28.928h-19.694c-0.793 0-1.506-0.44-1.863-1.15l-0.39-0.783c-0.083-0.163-0.017-0.363 0.15-0.447 0.163-0.083 0.363-0.017 0.447 0.15l0.39 0.783c0.24 0.483 0.727 0.783 1.266 0.783h19.694c0.54 0 1.027-0.3 1.266-0.783l0.39-0.783c0.083-0.163 0.283-0.23 0.447-0.15 0.163 0.083 0.23 0.283 0.15 0.447l-0.39 0.783c-0.353 0.71-1.070 1.15-1.863 1.15z"></path>
<path d="M18.818 27.179c-0.123 0-0.24-0.067-0.3-0.183l-0.783-1.563h-3.959l-0.783 1.563c-0.083 0.163-0.283 0.23-0.447 0.15-0.163-0.083-0.23-0.283-0.15-0.447l0.873-1.75c0.057-0.113 0.173-0.183 0.297-0.183h4.369c0.127 0 0.24 0.070 0.297 0.183l0.873 1.75c0.083 0.163 0.017 0.363-0.15 0.447-0.047 0.023-0.1 0.037-0.15 0.037z"></path>
<path d="M18.815 23.683h-6.119c-0.183 0-0.333-0.15-0.333-0.333s0.15-0.333 0.333-0.333h6.119c0.183 0 0.333 0.15 0.333 0.333s-0.15 0.333-0.333 0.333z"></path>
<path d="M21.438 23.683h-0.873c-0.183 0-0.333-0.15-0.333-0.333s0.15-0.333 0.333-0.333h0.873c0.183 0 0.333 0.15 0.333 0.333s-0.15 0.333-0.333 0.333z"></path>
<path d="M24.060 23.683h-0.873c-0.183 0-0.333-0.15-0.333-0.333s0.15-0.333 0.333-0.333h0.873c0.183 0 0.333 0.15 0.333 0.333s-0.15 0.333-0.333 0.333z"></path>
<path d="M8.326 23.683h-0.873c-0.183 0-0.333-0.15-0.333-0.333s0.15-0.333 0.333-0.333h0.873c0.183 0 0.333 0.15 0.333 0.333s-0.15 0.333-0.333 0.333z"></path>
<path d="M10.949 23.683h-0.873c-0.183 0-0.333-0.15-0.333-0.333s0.15-0.333 0.333-0.333h0.873c0.183 0 0.333 0.15 0.333 0.333s-0.15 0.333-0.333 0.333z"></path>
<path d="M9.199 21.936h-0.873c-0.183 0-0.333-0.15-0.333-0.333s0.15-0.333 0.333-0.333h0.873c0.183 0 0.333 0.15 0.333 0.333s-0.15 0.333-0.333 0.333z"></path>
<path d="M11.999 21.936h-0.873c-0.183 0-0.333-0.15-0.333-0.333s0.15-0.333 0.333-0.333h0.873c0.183 0 0.333 0.15 0.333 0.333s-0.15 0.333-0.333 0.333z"></path>
<path d="M14.795 21.936h-0.873c-0.183 0-0.333-0.15-0.333-0.333s0.15-0.333 0.333-0.333h0.873c0.183 0 0.333 0.15 0.333 0.333s-0.15 0.333-0.333 0.333z"></path>
<path d="M17.591 21.936h-0.873c-0.183 0-0.333-0.15-0.333-0.333s0.15-0.333 0.333-0.333h0.873c0.183 0 0.333 0.15 0.333 0.333s-0.15 0.333-0.333 0.333z"></path>
<path d="M20.391 21.936h-0.873c-0.183 0-0.333-0.15-0.333-0.333s0.15-0.333 0.333-0.333h0.873c0.183 0 0.333 0.15 0.333 0.333s-0.15 0.333-0.333 0.333z"></path>
<path d="M23.187 21.936h-0.873c-0.183 0-0.333-0.15-0.333-0.333s0.15-0.333 0.333-0.333h0.873c0.183 0 0.333 0.15 0.333 0.333s-0.15 0.333-0.333 0.333z"></path>
<path d="M31.343 16.26h-9.435c-0.183 0-0.333-0.15-0.333-0.333s0.15-0.333 0.333-0.333h9.435c0.183 0 0.333 0.15 0.333 0.333s-0.15 0.333-0.333 0.333z"></path>
<path d="M28.657 18.85c-0.093 0-0.187-0.040-0.253-0.117-0.12-0.14-0.107-0.35 0.033-0.47l2.693-2.33-3.026-2.233c-0.147-0.11-0.18-0.317-0.070-0.467 0.11-0.147 0.317-0.18 0.467-0.070l3.363 2.48c0.080 0.060 0.13 0.153 0.137 0.257s-0.040 0.2-0.113 0.267l-3.010 2.603c-0.063 0.053-0.14 0.080-0.217 0.080z"></path>
<path d="M15.718 13.504c-0.183 0-0.333-0.15-0.333-0.333v-9.435c0-0.183 0.15-0.333 0.333-0.333s0.333 0.15 0.333 0.333v9.435c0 0.183-0.15 0.333-0.333 0.333z"></path>
<path d="M13.225 7.105c-0.070 0-0.137-0.020-0.197-0.067-0.147-0.11-0.18-0.317-0.070-0.467l2.48-3.363c0.060-0.080 0.153-0.13 0.257-0.137 0.11-0.007 0.2 0.040 0.263 0.113l2.603 3.010c0.12 0.14 0.107 0.35-0.033 0.47s-0.35 0.107-0.47-0.033l-2.33-2.693-2.233 3.026c-0.067 0.090-0.167 0.137-0.27 0.137z"></path>
<path d="M10.096 16.354h-9.435c-0.183 0-0.333-0.15-0.333-0.333s0.15-0.333 0.333-0.333h9.435c0.183 0 0.333 0.15 0.333 0.333s-0.15 0.333-0.333 0.333z"></path>
<path d="M3.697 18.85c-0.070 0-0.137-0.020-0.197-0.067l-3.363-2.48c-0.080-0.060-0.13-0.153-0.137-0.257s0.040-0.2 0.113-0.267l3.010-2.603c0.14-0.12 0.35-0.107 0.47 0.033s0.107 0.35-0.033 0.47l-2.693 2.33 3.026 2.233c0.147 0.11 0.18 0.317 0.070 0.467-0.067 0.090-0.167 0.137-0.27 0.137z"></path>
</svg>
