<!-- Generated by IcoMoon.io -->
<svg version="1.1" xmlns="http://www.w3.org/2000/svg" width="32" height="32" viewBox="0 0 32 32">
<title>Icons_Access-Computer</title>
<path d="M21.95 16.897h-17.362c-0.204 0-0.372-0.167-0.372-0.372v-11.603c0-0.204 0.167-0.372 0.372-0.372h20.044c0.204 0 0.372 0.167 0.372 0.372v4.429c0 0.204-0.167 0.372-0.372 0.372s-0.372-0.167-0.372-0.372v-4.057h-19.301v10.86h16.99c0.204 0 0.372 0.167 0.372 0.372s-0.167 0.372-0.372 0.372z"></path>
<path d="M28.853 25.339h-28.482c-0.13 0-0.249-0.067-0.316-0.175s-0.074-0.245-0.015-0.36l4.221-8.441c0.093-0.182 0.316-0.256 0.498-0.167 0.182 0.093 0.256 0.316 0.167 0.498l-3.949 7.903h27.293l-1.665-3.507c-0.089-0.186-0.007-0.409 0.175-0.494 0.186-0.089 0.405-0.007 0.494 0.175l1.917 4.039c0.056 0.115 0.045 0.249-0.022 0.357s-0.186 0.175-0.312 0.175z"></path>
<path d="M26.494 27.449h-23.764c-0.947 0-1.795-0.528-2.218-1.371l-0.472-0.944c-0.093-0.182-0.019-0.405 0.167-0.498 0.182-0.093 0.405-0.019 0.498 0.167l0.472 0.944c0.297 0.594 0.892 0.962 1.553 0.962h23.764c0.661 0 1.26-0.368 1.557-0.962l0.472-0.944c0.093-0.182 0.316-0.256 0.498-0.167 0.182 0.093 0.256 0.316 0.167 0.498l-0.472 0.944c-0.424 0.847-1.274 1.371-2.218 1.371z"></path>
<path d="M18.305 25.339c-0.137 0-0.267-0.074-0.334-0.204l-0.951-1.906h-4.815l-0.951 1.906c-0.093 0.182-0.316 0.256-0.498 0.167-0.182-0.093-0.256-0.316-0.167-0.498l1.055-2.11c0.063-0.126 0.193-0.204 0.331-0.204h5.276c0.141 0 0.267 0.078 0.331 0.204l1.055 2.11c0.093 0.182 0.019 0.405-0.167 0.498-0.052 0.026-0.111 0.041-0.167 0.041z"></path>
<path d="M18.305 21.118h-7.386c-0.204 0-0.372-0.167-0.372-0.372s0.167-0.372 0.372-0.372h7.386c0.204 0 0.372 0.167 0.372 0.372s-0.167 0.372-0.372 0.372z"></path>
<path d="M21.471 21.118h-1.055c-0.204 0-0.372-0.167-0.372-0.372s0.167-0.372 0.372-0.372h1.055c0.204 0 0.372 0.167 0.372 0.372s-0.167 0.372-0.372 0.372z"></path>
<path d="M5.643 21.118h-1.055c-0.204 0-0.372-0.167-0.372-0.372s0.167-0.372 0.372-0.372h1.055c0.204 0 0.372 0.167 0.372 0.372s-0.167 0.372-0.372 0.372z"></path>
<path d="M8.809 21.118h-1.055c-0.204 0-0.372-0.167-0.372-0.372s0.167-0.372 0.372-0.372h1.055c0.204 0 0.372 0.167 0.372 0.372s-0.167 0.372-0.372 0.372z"></path>
<path d="M6.698 19.008h-1.055c-0.204 0-0.372-0.167-0.372-0.372s0.167-0.372 0.372-0.372h1.055c0.204 0 0.372 0.167 0.372 0.372s-0.167 0.372-0.372 0.372z"></path>
<path d="M10.076 19.008h-1.055c-0.204 0-0.372-0.167-0.372-0.372s0.167-0.372 0.372-0.372h1.055c0.204 0 0.372 0.167 0.372 0.372s-0.167 0.372-0.372 0.372z"></path>
<path d="M13.453 19.008h-1.055c-0.204 0-0.372-0.167-0.372-0.372s0.167-0.372 0.372-0.372h1.055c0.204 0 0.372 0.167 0.372 0.372s-0.167 0.372-0.372 0.372z"></path>
<path d="M16.826 19.008h-1.055c-0.204 0-0.372-0.167-0.372-0.372s0.167-0.372 0.372-0.372h1.055c0.204 0 0.372 0.167 0.372 0.372s-0.167 0.372-0.372 0.372z"></path>
<path d="M20.204 19.008h-1.055c-0.204 0-0.372-0.167-0.372-0.372s0.167-0.372 0.372-0.372h1.055c0.204 0 0.372 0.167 0.372 0.372s-0.167 0.372-0.372 0.372z"></path>
<path d="M20.456 12.784h-11.945c-1.304 0-2.363-1.059-2.363-2.363s1.059-2.363 2.363-2.363h11.945c1.304 0 2.363 1.059 2.363 2.363s-1.059 2.363-2.363 2.363zM8.511 8.801c-0.892 0-1.62 0.728-1.62 1.62s0.728 1.62 1.62 1.62h11.945c0.892 0 1.62-0.728 1.62-1.62s-0.728-1.62-1.62-1.62h-11.945z"></path>
<path d="M9.953 11.521c-0.059 0-0.119-0.015-0.171-0.041l-0.331-0.175-0.331 0.175c-0.123 0.067-0.279 0.056-0.39-0.030-0.115-0.082-0.171-0.223-0.149-0.364l0.063-0.368-0.267-0.26c-0.1-0.1-0.137-0.245-0.093-0.379s0.16-0.234 0.301-0.253l0.372-0.056 0.164-0.334c0.063-0.126 0.193-0.208 0.334-0.208v0c0.141 0 0.271 0.082 0.334 0.208l0.167 0.334 0.372 0.056c0.141 0.019 0.256 0.119 0.301 0.253s0.007 0.282-0.093 0.379l-0.267 0.26 0.063 0.368c0.022 0.141-0.033 0.279-0.149 0.364-0.063 0.048-0.141 0.071-0.219 0.071zM9.448 10.514s0.030 0 0.045 0c0.007-0.030 0.015-0.056 0.026-0.082-0.026-0.015-0.048-0.030-0.071-0.052-0.022 0.019-0.045 0.037-0.071 0.052 0.011 0.026 0.022 0.052 0.026 0.082 0.015 0 0.030 0 0.045 0zM9.195 10.109v0z"></path>
<path d="M12.234 11.521c-0.078 0-0.152-0.022-0.219-0.071-0.115-0.082-0.171-0.223-0.149-0.364l0.063-0.368-0.267-0.26c-0.1-0.1-0.137-0.245-0.093-0.379s0.16-0.234 0.301-0.253l0.372-0.056 0.167-0.334c0.063-0.126 0.193-0.208 0.334-0.208v0c0.141 0 0.271 0.082 0.334 0.208l0.164 0.334 0.372 0.056c0.141 0.019 0.256 0.119 0.301 0.253s0.007 0.282-0.093 0.379l-0.267 0.26 0.063 0.368c0.022 0.141-0.033 0.279-0.149 0.364-0.115 0.082-0.267 0.093-0.39 0.030l-0.331-0.175-0.331 0.175c-0.056 0.030-0.115 0.041-0.171 0.041zM12.669 10.432c0.011 0.026 0.022 0.052 0.026 0.082 0.030 0 0.056 0 0.085 0 0.007-0.030 0.015-0.056 0.026-0.082-0.026-0.015-0.048-0.030-0.071-0.052-0.022 0.019-0.045 0.037-0.071 0.052z"></path>
<path d="M15.522 11.521c-0.078 0-0.152-0.022-0.219-0.071-0.115-0.082-0.171-0.223-0.149-0.364l0.063-0.368-0.267-0.26c-0.1-0.1-0.137-0.245-0.093-0.379s0.16-0.234 0.301-0.253l0.372-0.056 0.167-0.334c0.126-0.253 0.542-0.253 0.665 0l0.167 0.334 0.372 0.056c0.141 0.019 0.256 0.119 0.301 0.253s0.007 0.282-0.093 0.379l-0.267 0.26 0.063 0.368c0.022 0.141-0.033 0.279-0.149 0.364-0.115 0.082-0.267 0.093-0.39 0.030l-0.331-0.175-0.331 0.175c-0.056 0.030-0.115 0.041-0.171 0.041zM15.957 10.432c0.011 0.026 0.022 0.052 0.026 0.082 0.030 0 0.056 0 0.085 0 0.007-0.030 0.015-0.056 0.026-0.082-0.026-0.015-0.048-0.030-0.071-0.052-0.022 0.019-0.045 0.037-0.071 0.052z"></path>
<path d="M19.817 11.521c-0.059 0-0.119-0.015-0.171-0.041l-0.331-0.175-0.331 0.175c-0.126 0.067-0.279 0.056-0.39-0.030-0.115-0.082-0.171-0.223-0.149-0.364l0.063-0.368-0.267-0.26c-0.1-0.1-0.137-0.245-0.093-0.379s0.16-0.234 0.301-0.253l0.372-0.056 0.167-0.334c0.126-0.253 0.542-0.253 0.665 0l0.167 0.334 0.372 0.056c0.141 0.019 0.256 0.119 0.301 0.253s0.007 0.282-0.093 0.379l-0.267 0.26 0.063 0.368c0.022 0.141-0.033 0.279-0.149 0.364-0.063 0.048-0.141 0.071-0.219 0.071zM19.312 10.514s0.030 0 0.045 0c0.007-0.030 0.015-0.056 0.026-0.082-0.026-0.015-0.048-0.030-0.071-0.052-0.022 0.019-0.045 0.037-0.071 0.052 0.011 0.026 0.022 0.052 0.026 0.082 0.015 0 0.030 0 0.045 0z"></path>
<path d="M31.027 21.252h-7.955c-0.539 0-0.973-0.438-0.973-0.973v-6.119c0-0.539 0.438-0.973 0.973-0.973h7.955c0.539 0 0.973 0.438 0.973 0.973v6.119c0 0.539-0.438 0.973-0.973 0.973zM23.072 13.925c-0.126 0-0.23 0.104-0.23 0.23v6.119c0 0.126 0.104 0.23 0.23 0.23h7.955c0.126 0 0.23-0.104 0.23-0.23v-6.119c0-0.126-0.104-0.23-0.23-0.23h-7.955z"></path>
<path d="M24.090 13.858c-0.204 0-0.372-0.167-0.372-0.372v-2.474c0-1.839 1.494-3.333 3.333-3.333s3.333 1.494 3.333 3.333c0 0.204-0.167 0.372-0.372 0.372s-0.372-0.167-0.372-0.372c0-1.427-1.159-2.59-2.59-2.59s-2.59 1.163-2.59 2.59v2.474c0 0.204-0.167 0.372-0.372 0.372z"></path>
<path d="M27.051 18.227c-0.204 0-0.372-0.167-0.372-0.372v-1.126c0-0.204 0.167-0.372 0.372-0.372s0.372 0.167 0.372 0.372v1.126c0 0.204-0.167 0.372-0.372 0.372z"></path>
</svg>
