<!-- Generated by IcoMoon.io -->
<svg version="1.1" xmlns="http://www.w3.org/2000/svg" width="32" height="32" viewBox="0 0 32 32">
<title>Icons_Artificial-Intelligence</title>
<path d="M4.525 11.072c-0.141 0-0.281-0.063-0.378-0.184-0.655-0.815-1.009-1.838-1.009-2.881 0-1.232 0.49-2.391 1.368-3.259s2.037-1.343 3.274-1.343c0.092 0 0.184 0 0.272 0.010 1.474 0.087 2.837 0.873 3.637 2.11 0.146 0.223 0.082 0.524-0.141 0.669s-0.524 0.082-0.669-0.141c-0.635-0.98-1.712-1.6-2.876-1.668-0.073 0-0.146-0.005-0.218-0.005-0.975 0-1.896 0.378-2.59 1.062-0.694 0.689-1.077 1.6-1.082 2.57 0 0.834 0.272 1.62 0.795 2.275 0.17 0.209 0.136 0.514-0.078 0.684-0.087 0.073-0.199 0.107-0.301 0.107z"></path>
<path d="M10.845 19.662c-0.233 0-0.437-0.17-0.48-0.403-0.044-0.262 0.136-0.514 0.398-0.558 0.732-0.121 1.368-0.597 1.707-1.266 0.019-0.044 0.039-0.082 0.058-0.121 0.519-1.188-0.010-2.57-1.179-3.085-0.485-0.213-1.014-0.252-1.523-0.112-0.262 0.068-0.524-0.082-0.597-0.339s0.082-0.524 0.339-0.597c0.718-0.199 1.489-0.141 2.173 0.16 1.659 0.727 2.41 2.687 1.678 4.36-0.024 0.058-0.053 0.116-0.082 0.175-0.47 0.936-1.373 1.605-2.41 1.78-0.029 0-0.053 0.005-0.082 0.005z"></path>
<path d="M7.741 27.756c-2.561-0.005-4.641-1.993-4.637-4.428 0-1.503 0.8-2.891 2.134-3.705 0.664-0.407 1.431-0.645 2.221-0.694 0.267-0.015 0.495 0.189 0.514 0.456 0.015 0.267-0.189 0.495-0.456 0.514-0.63 0.039-1.242 0.228-1.77 0.553-1.043 0.64-1.668 1.717-1.668 2.881 0 1.901 1.639 3.453 3.667 3.458h0.141c0.262 0 0.48 0.209 0.485 0.475s-0.209 0.49-0.475 0.495h-0.155z"></path>
<path d="M5.82 20.336s-0.029 0-0.048 0c-2.643-0.257-4.637-2.478-4.627-5.175 0.005-2.401 1.615-4.472 3.919-5.034 0.388-0.097 0.791-0.146 1.203-0.146h0.015c0.611 0 1.208 0.112 1.775 0.325 0.252 0.097 0.378 0.373 0.281 0.626s-0.373 0.378-0.626 0.281c-0.456-0.175-0.941-0.262-1.436-0.262-0.315-0.015-0.664 0.039-0.98 0.116-1.867 0.456-3.172 2.139-3.177 4.093 0 2.192 1.61 4.001 3.754 4.21 0.267 0.024 0.461 0.262 0.436 0.529-0.024 0.252-0.238 0.436-0.48 0.436z"></path>
<path d="M12.212 32h-0.010c-2.648-0.005-4.801-2.153-4.797-4.787 0-1.3 0.524-2.517 1.465-3.424 0.194-0.184 0.5-0.179 0.684 0.015s0.179 0.5-0.015 0.684c-0.752 0.723-1.169 1.693-1.169 2.726 0 2.1 1.712 3.807 3.831 3.817h0.010c1.023 0 1.984-0.393 2.706-1.111 0.727-0.718 1.125-1.673 1.13-2.687l0.049-22.441c0-2.1-1.712-3.807-3.827-3.817h-0.010c-1.809 0-3.385 1.266-3.754 3.017-0.053 0.262-0.31 0.432-0.577 0.373-0.262-0.053-0.432-0.31-0.373-0.577 0.466-2.197 2.44-3.788 4.704-3.788h0.015c2.648 0.005 4.801 2.153 4.797 4.787v1.222l-0.049 21.219c0 1.276-0.504 2.473-1.416 3.376-0.907 0.897-2.11 1.387-3.39 1.387z"></path>
<path d="M29.042 17.824v0c-0.999 0-1.809-0.82-1.809-1.819 0-0.485 0.189-0.941 0.534-1.28s0.795-0.529 1.28-0.529v0c0.999 0 1.809 0.82 1.809 1.819v0c0 0.999-0.815 1.814-1.814 1.814zM29.042 15.161c-0.223 0-0.436 0.087-0.592 0.247-0.16 0.16-0.247 0.373-0.247 0.597 0 0.466 0.373 0.844 0.839 0.849v0c0.466 0 0.839-0.378 0.844-0.844 0-0.466-0.378-0.849-0.839-0.849v0zM30.37 16.010v0z"></path>
<path d="M26.253 16.49h-7.687c-0.267 0-0.485-0.218-0.485-0.485s0.218-0.485 0.485-0.485h7.687c0.267 0 0.485 0.218 0.485 0.485s-0.218 0.485-0.485 0.485z"></path>
<path d="M16.558 16.49h-3.371c-0.267 0-0.485-0.218-0.485-0.485s0.218-0.485 0.485-0.485h3.371c0.267 0 0.485 0.218 0.485 0.485s-0.218 0.485-0.485 0.485z"></path>
<path d="M27.955 4.021c-0.48 0-0.936-0.189-1.276-0.529-0.344-0.344-0.534-0.795-0.534-1.28 0-0.999 0.81-1.819 1.809-1.819v0c0.999 0 1.809 0.81 1.814 1.809 0 0.999-0.81 1.819-1.809 1.819h-0.005zM27.955 1.358v0c-0.466 0-0.839 0.383-0.839 0.849 0 0.228 0.087 0.437 0.247 0.597s0.369 0.247 0.592 0.247v0c0.466 0 0.844-0.383 0.839-0.849 0-0.466-0.378-0.844-0.844-0.844z"></path>
<path d="M18.561 4.84c-0.126 0-0.247-0.048-0.344-0.141-0.189-0.189-0.189-0.495 0-0.684l2.144-2.149c0.092-0.092 0.213-0.141 0.344-0.141h4.457c0.267 0 0.485 0.218 0.485 0.485s-0.218 0.485-0.485 0.485h-4.258l-2.003 2.008c-0.097 0.097-0.218 0.141-0.344 0.141z"></path>
<path d="M25.36 10.922c-0.485 0-0.936-0.189-1.28-0.529-0.344-0.344-0.534-0.795-0.534-1.28 0-0.999 0.81-1.819 1.809-1.819v0c0.485 0 0.936 0.189 1.28 0.529 0.344 0.344 0.534 0.795 0.534 1.28s-0.184 0.941-0.529 1.285c-0.34 0.344-0.795 0.534-1.28 0.534v0zM25.36 8.26v0c-0.466 0-0.839 0.383-0.839 0.849 0 0.228 0.087 0.441 0.247 0.597 0.16 0.16 0.369 0.247 0.592 0.247v0c0.223 0 0.436-0.087 0.597-0.247s0.247-0.373 0.247-0.597v0c0-0.228-0.087-0.437-0.247-0.597s-0.369-0.247-0.592-0.247z"></path>
<path d="M18.561 12.188c-0.126 0-0.247-0.049-0.344-0.141-0.189-0.189-0.189-0.495 0-0.684l2.585-2.595c0.092-0.092 0.213-0.141 0.344-0.141h1.421c0.267 0 0.485 0.218 0.485 0.485s-0.218 0.485-0.485 0.485h-1.217l-2.444 2.449c-0.097 0.097-0.218 0.141-0.344 0.141z"></path>
<path d="M27.96 31.622h-0.005c-0.999 0-1.809-0.82-1.809-1.819s0.815-1.814 1.814-1.814v0c0.999 0 1.809 0.82 1.809 1.819v0c0 0.485-0.189 0.941-0.534 1.28s-0.795 0.529-1.28 0.529zM27.96 28.959c-0.466 0-0.839 0.378-0.844 0.844 0 0.466 0.373 0.849 0.839 0.849v0c0.223 0 0.436-0.087 0.592-0.247 0.16-0.16 0.247-0.373 0.247-0.597 0-0.466-0.378-0.844-0.839-0.849v0z"></path>
<path d="M25.166 30.288h-4.457c-0.131 0-0.252-0.053-0.344-0.141l-2.144-2.149c-0.189-0.189-0.189-0.495 0-0.684s0.495-0.189 0.684 0l2.003 2.008h4.258c0.267 0 0.485 0.218 0.485 0.485s-0.218 0.485-0.485 0.485z"></path>
<path d="M25.365 24.72v0c-0.999 0-1.809-0.82-1.809-1.819 0-0.485 0.189-0.941 0.534-1.28s0.795-0.529 1.28-0.529h0.005c0.999 0 1.809 0.82 1.809 1.819v0c0 0.485-0.189 0.941-0.534 1.28s-0.795 0.529-1.28 0.529zM25.365 22.058c-0.223 0-0.436 0.087-0.592 0.247-0.16 0.16-0.247 0.373-0.247 0.597 0 0.466 0.373 0.849 0.839 0.849v0c0.223 0 0.436-0.087 0.592-0.247 0.16-0.16 0.247-0.373 0.247-0.597v0c0-0.466-0.373-0.849-0.839-0.849v0z"></path>
<path d="M22.572 23.391h-1.421c-0.131 0-0.252-0.053-0.344-0.141l-2.585-2.595c-0.189-0.189-0.189-0.495 0-0.684s0.495-0.189 0.684 0l2.444 2.449h1.217c0.267 0 0.485 0.218 0.485 0.485s-0.218 0.485-0.485 0.485z"></path>
<path d="M15.607 10.937c-2.158 0-3.269-0.781-4.108-2.798-0.102-0.247 0.015-0.529 0.262-0.635 0.242-0.102 0.529 0.015 0.635 0.262 0.679 1.63 1.387 2.338 3.817 2.182 0.262-0.019 0.5 0.184 0.514 0.456 0.015 0.267-0.184 0.5-0.456 0.514-0.233 0.015-0.456 0.024-0.664 0.024z"></path>
<path d="M11.945 24.871c-0.063 0-0.126-0.010-0.184-0.039-0.247-0.102-0.364-0.388-0.262-0.635 0.921-2.212 2.168-2.944 4.772-2.774 0.267 0.015 0.47 0.247 0.456 0.514-0.019 0.267-0.247 0.461-0.514 0.456-2.43-0.155-3.138 0.548-3.817 2.182-0.078 0.184-0.257 0.301-0.446 0.301z"></path>
</svg>
