<!-- Generated by IcoMoon.io -->
<svg version="1.1" xmlns="http://www.w3.org/2000/svg" width="32" height="32" viewBox="0 0 32 32">
<title>Icons_Merge</title>
<path d="M20.625 19.799h-19.973c-0.308 0-0.56-0.252-0.56-0.56v-18.679c0-0.308 0.252-0.56 0.56-0.56h19.973c0.308 0 0.56 0.252 0.56 0.56v18.679c0 0.308-0.252 0.56-0.56 0.56zM1.212 18.679h18.853v-17.559h-18.853v17.559z"></path>
<path d="M31.348 32h-19.973c-0.308 0-0.56-0.252-0.56-0.56v-18.679c0-0.308 0.252-0.56 0.56-0.56h19.973c0.308 0 0.56 0.252 0.56 0.56v18.679c0 0.308-0.252 0.56-0.56 0.56zM11.935 30.88h18.853v-17.559h-18.853v17.559z"></path>
<path d="M8.788 8.791c-0.045 0-0.084 0-0.129-0.017l-3.516-0.834c-0.302-0.073-0.487-0.375-0.414-0.672 0.073-0.302 0.375-0.487 0.672-0.414l2.553 0.605-0.812-2.57c-0.095-0.297 0.067-0.61 0.364-0.7 0.297-0.095 0.61 0.073 0.7 0.364l1.109 3.511c0.062 0.19 0.011 0.403-0.123 0.549-0.106 0.118-0.258 0.179-0.409 0.179z"></path>
<path d="M8.788 8.791c-0.134 0-0.269-0.050-0.381-0.146l-5.549-5.084c-0.23-0.207-0.241-0.566-0.034-0.789 0.207-0.23 0.56-0.241 0.789-0.034l5.549 5.084c0.23 0.207 0.241 0.566 0.034 0.789-0.112 0.118-0.263 0.179-0.414 0.179z"></path>
<path d="M24.505 28.024c-0.235 0-0.459-0.151-0.532-0.392l-1.109-3.511c-0.062-0.19-0.011-0.403 0.123-0.549 0.14-0.146 0.347-0.213 0.538-0.162l3.516 0.834c0.302 0.073 0.487 0.375 0.414 0.672-0.073 0.302-0.375 0.487-0.672 0.414l-2.553-0.605 0.812 2.57c0.095 0.297-0.067 0.61-0.364 0.7-0.056 0.017-0.112 0.028-0.168 0.028z"></path>
<path d="M28.946 29.598c-0.134 0-0.269-0.050-0.381-0.146l-5.549-5.084c-0.23-0.207-0.241-0.566-0.034-0.789 0.207-0.23 0.56-0.241 0.789-0.034l5.549 5.084c0.23 0.207 0.241 0.566 0.034 0.789-0.112 0.118-0.263 0.179-0.414 0.179z"></path>
</svg>
