<!-- Generated by IcoMoon.io -->
<svg version="1.1" xmlns="http://www.w3.org/2000/svg" width="32" height="32" viewBox="0 0 32 32">
<title>Icons_Money</title>
<path d="M16.842 17.148c-0.315 0-0.64-0.041-0.965-0.122-2.205-0.559-3.932-2.632-3.932-4.715 0-1.057 0.442-2.012 1.214-2.611 0.793-0.62 1.875-0.813 2.967-0.538 2.205 0.559 3.932 2.632 3.932 4.715 0 1.057-0.442 2.012-1.214 2.611-0.559 0.437-1.26 0.66-2.007 0.66zM15.155 10.050c-0.518 0-0.991 0.152-1.372 0.447-0.528 0.412-0.823 1.057-0.823 1.809 0 1.641 1.392 3.282 3.165 3.729 0.798 0.203 1.539 0.076 2.093-0.356 0.528-0.412 0.823-1.057 0.823-1.809 0-1.641-1.392-3.282-3.165-3.729-0.249-0.061-0.493-0.091-0.727-0.091z"></path>
<path d="M25.037 16.507c-0.991 0-1.799-0.808-1.799-1.799s0.808-1.799 1.799-1.799 1.799 0.808 1.799 1.799-0.808 1.799-1.799 1.799zM25.037 13.927c-0.432 0-0.782 0.351-0.782 0.782s0.351 0.782 0.782 0.782 0.782-0.351 0.782-0.782-0.351-0.782-0.782-0.782z"></path>
<path d="M6.965 13.927c-0.991 0-1.799-0.808-1.799-1.799s0.808-1.799 1.799-1.799 1.799 0.808 1.799 1.799-0.808 1.799-1.799 1.799zM6.965 11.346c-0.432 0-0.782 0.351-0.782 0.782s0.351 0.782 0.782 0.782 0.782-0.351 0.782-0.782-0.351-0.782-0.782-0.782z"></path>
<path d="M25.245 23.605c-3.109 0-5.99-0.828-8.82-1.646-5.050-1.453-9.821-2.825-15.673 0.315-0.157 0.086-0.345 0.081-0.503-0.010-0.152-0.091-0.249-0.259-0.249-0.437v-16.136c0-0.188 0.102-0.361 0.269-0.447 6.219-3.338 11.411-1.844 16.435-0.396 4.715 1.356 9.17 2.637 14.586 0.376 0.157-0.066 0.335-0.051 0.478 0.046s0.229 0.254 0.229 0.422v16.136c0 0.203-0.122 0.391-0.31 0.467-2.276 0.95-4.405 1.306-6.442 1.306zM8.053 19.368c3.038 0 5.873 0.818 8.657 1.621 4.623 1.331 8.998 2.591 14.271 0.503v-15.048c-5.441 2.012-10.070 0.676-14.556-0.615-4.974-1.433-9.678-2.784-15.409 0.178v14.998c2.484-1.199 4.811-1.636 7.031-1.636z"></path>
<path d="M25.245 26.186c-3.109 0-5.99-0.828-8.82-1.641-5.050-1.453-9.821-2.825-15.673 0.315-0.249 0.132-0.554 0.041-0.686-0.208s-0.041-0.554 0.208-0.686c6.219-3.338 11.411-1.844 16.435-0.396 4.715 1.356 9.17 2.642 14.586 0.376 0.259-0.107 0.559 0.015 0.666 0.274s-0.015 0.559-0.274 0.666c-2.276 0.95-4.405 1.306-6.442 1.306z"></path>
<path d="M25.245 28.767c-3.109 0-5.99-0.828-8.82-1.641-5.050-1.453-9.821-2.825-15.673 0.315-0.249 0.132-0.554 0.041-0.686-0.208s-0.041-0.554 0.208-0.686c6.219-3.338 11.411-1.844 16.435-0.396 4.715 1.356 9.17 2.642 14.586 0.376 0.259-0.107 0.559 0.015 0.666 0.274s-0.015 0.559-0.274 0.666c-2.276 0.95-4.405 1.306-6.442 1.306z"></path>
<path d="M25.245 21.669c-2.83 0-5.472-0.762-8.276-1.565-2.845-0.818-5.771-1.661-8.921-1.661-1.097 0-2.185 0.112-3.328 0.346-0.264 0.056-0.523-0.107-0.594-0.366-0.203-0.767-0.894-1.301-1.682-1.301-0.279 0-0.508-0.229-0.508-0.508v-7.453c0-0.279 0.229-0.508 0.508-0.508 0.965 0 1.753-0.787 1.753-1.753 0-0.188-0.036-0.381-0.112-0.589-0.046-0.132-0.041-0.279 0.025-0.406s0.183-0.218 0.315-0.254c1.194-0.325 2.378-0.483 3.617-0.483 2.749 0 5.36 0.752 8.124 1.545 2.876 0.828 5.838 1.682 9.069 1.682 0.671 0 1.356-0.041 2.032-0.117 0.269-0.030 0.513 0.152 0.559 0.417 0.152 0.833 0.874 1.438 1.717 1.438 0.279 0 0.508 0.229 0.508 0.508v7.59c0 0.279-0.229 0.508-0.508 0.508-0.965 0-1.753 0.787-1.753 1.753 0 0.122 0.015 0.254 0.051 0.401 0.030 0.137 0.005 0.285-0.076 0.401s-0.203 0.198-0.346 0.218c-0.727 0.112-1.463 0.168-2.195 0.168zM8.053 17.427c3.292 0 6.29 0.864 9.186 1.697 2.743 0.787 5.324 1.529 8.007 1.529 0.513 0 1.031-0.030 1.544-0.086 0-0.025 0-0.056 0-0.081 0-1.351 0.975-2.479 2.261-2.718v-6.666c-0.955-0.178-1.753-0.854-2.088-1.768-0.574 0.051-1.148 0.081-1.717 0.081-3.373 0-6.412-0.874-9.348-1.717-2.698-0.777-5.243-1.509-7.844-1.509-0.981 0-1.926 0.107-2.865 0.325 0.020 0.132 0.030 0.264 0.030 0.391 0 1.351-0.975 2.479-2.261 2.718v6.534c0.874 0.163 1.621 0.747 1.997 1.56 1.052-0.188 2.073-0.285 3.099-0.285z"></path>
</svg>
