<!-- Generated by IcoMoon.io -->
<svg version="1.1" xmlns="http://www.w3.org/2000/svg" width="32" height="32" viewBox="0 0 32 32">
<title>Icons_New-User</title>
<path d="M13.461 19.457c-2.445 0-4.812-2.309-5.477-5.305-0.617-0.203-1.445-0.898-1.445-2.555 0-0.379 0.051-0.719 0.148-1.008 0.16-0.48 0.625-0.785 1.133-0.738 4.109 0.375 7.535-0.691 8.195-0.914 0.543-0.859 0.758-2.75 0.793-3.43 0.008-0.137 0.086-0.258 0.207-0.324 0.121-0.063 0.266-0.063 0.383 0.008 1.543 0.918 1.59 3.938 1.59 4.066 0.008 0.16 0.074 0.547 0.574 0.547 0.082 0 0.164 0.027 0.23 0.074 0.063 0.047 0.594 0.473 0.594 1.715 0 1.656-0.828 2.352-1.445 2.555-0.668 2.992-3.031 5.305-5.477 5.305zM7.715 10.629c-0.133 0-0.25 0.082-0.293 0.211-0.070 0.211-0.105 0.465-0.105 0.758 0 1.664 0.934 1.828 1.039 1.84 0.168 0.020 0.309 0.148 0.344 0.316 0.574 3.039 2.918 4.918 4.762 4.918s4.191-1.883 4.762-4.918c0.031-0.172 0.176-0.301 0.348-0.316 0.102-0.012 1.031-0.176 1.031-1.84 0-0.586-0.145-0.891-0.23-1.020-0.84-0.094-1.164-0.813-1.172-1.309-0.008-0.598-0.156-2.027-0.699-2.879-0.113 0.91-0.371 2.336-0.93 3.102-0.047 0.063-0.109 0.109-0.18 0.137-0.156 0.059-3.91 1.43-8.652 1v0s-0.020 0-0.027 0z"></path>
<path d="M0.391 29.727c-0.215 0-0.391-0.176-0.391-0.391 0-1.859 1.051-3.645 2.953-5.031 0.176-0.129 0.418-0.090 0.547 0.086 0.125 0.176 0.090 0.418-0.086 0.547-2.176 1.582-2.633 3.266-2.633 4.398 0 0.215-0.176 0.391-0.391 0.391z"></path>
<path d="M19.391 22.938c-0.047 0-0.098-0.008-0.145-0.027-1.754-0.699-3.379-1.559-3.379-3.102v-1.875c0-0.215 0.176-0.391 0.391-0.391s0.391 0.176 0.391 0.391v1.875c0 1.078 1.387 1.781 2.883 2.375 0.199 0.078 0.297 0.309 0.219 0.508-0.063 0.152-0.207 0.246-0.363 0.246z"></path>
<path d="M0.391 29.727c-0.215 0-0.391-0.176-0.391-0.391 0-0.090 0-0.195 0.012-0.313v0s0-0.023 0-0.051v-0.051c0.008-0.078 0.016-0.137 0.023-0.195 0-0.047 0.016-0.133 0.031-0.215 0.008-0.051 0.016-0.113 0.031-0.184 0.012-0.059 0.020-0.109 0.035-0.164 0.004-0.035 0.020-0.094 0.039-0.152 0.008-0.031 0.016-0.063 0.027-0.094l0.020-0.066c0.039-0.133 0.086-0.262 0.137-0.387 0.027-0.078 0.059-0.148 0.094-0.223 0.035-0.094 0.094-0.219 0.164-0.34 0-0.012 0.031-0.063 0.063-0.117l0.023-0.043c0.031-0.059 0.070-0.129 0.117-0.199 0.023-0.043 0.063-0.109 0.109-0.172 0.039-0.063 0.082-0.125 0.133-0.195 0.027-0.043 0.074-0.109 0.129-0.18 0.305-0.402 0.664-0.781 1.066-1.129 0.059-0.059 0.141-0.125 0.219-0.188 0.063-0.055 0.148-0.121 0.234-0.188l0.063-0.047c0.066-0.051 0.133-0.102 0.203-0.148 0.344-0.254 0.766-0.523 1.238-0.785 0.063-0.035 0.133-0.074 0.203-0.105 0.195-0.090 0.43-0.004 0.52 0.191s0.004 0.43-0.191 0.52c-0.051 0.023-0.102 0.051-0.148 0.078-0.449 0.25-0.844 0.5-1.176 0.746-0.066 0.047-0.121 0.086-0.172 0.125l-0.066 0.051c-0.074 0.055-0.144 0.109-0.211 0.168-0.074 0.059-0.137 0.113-0.195 0.168-0.371 0.32-0.695 0.664-0.969 1.023-0.043 0.055-0.078 0.109-0.113 0.156-0.051 0.066-0.078 0.109-0.105 0.152-0.008 0.012-0.016 0.023-0.023 0.035-0.031 0.043-0.063 0.090-0.086 0.133-0.043 0.063-0.066 0.105-0.090 0.148l-0.031 0.059c-0.020 0.031-0.035 0.063-0.047 0.094-0.070 0.125-0.113 0.215-0.148 0.305-0.039 0.078-0.055 0.125-0.070 0.168-0.051 0.129-0.090 0.234-0.121 0.332-0.004 0.020-0.016 0.051-0.023 0.086l-0.020 0.066c-0.012 0.047-0.023 0.086-0.031 0.129-0.016 0.063-0.023 0.098-0.027 0.129-0.020 0.082-0.023 0.129-0.031 0.172 0 0.008-0.004 0.035-0.008 0.043-0.012 0.047-0.016 0.094-0.020 0.137-0.012 0.070-0.012 0.113-0.016 0.148 0 0.016 0 0.043-0.004 0.070v0.051c-0.012 0.094-0.012 0.176-0.012 0.246 0 0.215-0.176 0.391-0.391 0.391z"></path>
<path d="M10.66 29.258c-0.027 0-0.055 0-0.082-0.008-2.762-0.586-4.891-2.059-6.32-4.379-0.039-0.063-0.059-0.133-0.059-0.207 0-0.082 0-0.227-0.008-0.426-0.113-6.578 0.254-18.18 4.008-22 0.848-0.863 1.832-1.301 2.926-1.301 1.504 0 2.418 0.523 2.832 0.836 0.293-0.164 0.805-0.371 1.516-0.371 0.566 0 1.703 0.184 2.918 1.402 1.809 1.813 3.957 6.106 3.93 16.246 0 0.215-0.176 0.391-0.391 0.391v0c-0.215 0-0.391-0.176-0.391-0.391 0.027-9.875-1.996-13.984-3.699-15.691-1.020-1.020-1.918-1.172-2.367-1.172-0.844 0-1.273 0.355-1.293 0.371-0.16 0.137-0.402 0.125-0.543-0.031-0.027-0.031-0.785-0.809-2.512-0.809-0.887 0-1.66 0.348-2.367 1.066-2.633 2.68-3.977 10.293-3.781 21.441 0 0.133 0.004 0.242 0.004 0.324 1.23 1.945 3.004 3.227 5.285 3.82v-8.375c0-0.215 0.176-0.391 0.391-0.391s0.391 0.176 0.391 0.391v8.867c0 0.117-0.055 0.23-0.145 0.305-0.070 0.059-0.156 0.086-0.246 0.086z"></path>
<path d="M13.469 24.59c-0.281 0.008-0.602-0.016-0.898-0.051-0.215-0.023-0.367-0.219-0.344-0.434s0.219-0.367 0.434-0.344c0.266 0.031 0.535 0.047 0.805 0.047h0.008c1.801 0 3.555-0.66 4.934-1.863 0.164-0.141 0.41-0.125 0.551 0.039s0.125 0.41-0.039 0.551c-1.523 1.324-3.457 2.055-5.445 2.055z"></path>
<path d="M25.191 27.469c-0.215 0-0.391-0.176-0.391-0.391v-5.293c0-0.215 0.176-0.391 0.391-0.391s0.391 0.176 0.391 0.391v5.293c0 0.215-0.176 0.391-0.391 0.391z"></path>
<path d="M27.84 24.824h-5.293c-0.215 0-0.391-0.176-0.391-0.391s0.176-0.391 0.391-0.391h5.293c0.215 0 0.391 0.176 0.391 0.391s-0.176 0.391-0.391 0.391z"></path>
<path d="M25.371 31.063c-3.656 0-6.629-2.973-6.629-6.629s2.973-6.629 6.629-6.629 6.629 2.973 6.629 6.629-2.973 6.629-6.629 6.629zM25.371 18.586c-3.223 0-5.848 2.625-5.848 5.848s2.625 5.848 5.848 5.848 5.848-2.625 5.848-5.848-2.625-5.848-5.848-5.848z"></path>
</svg>
