<!-- Generated by IcoMoon.io -->
<svg version="1.1" xmlns="http://www.w3.org/2000/svg" width="32" height="32" viewBox="0 0 32 32">
<title>Icons_Computer</title>
<path d="M26.989 16.952h-21.983c-0.206 0-0.374-0.168-0.374-0.374v-12.728c0-0.206 0.168-0.374 0.374-0.374h21.983c0.206 0 0.374 0.168 0.374 0.374v12.728c0 0.206-0.168 0.374-0.374 0.374zM5.381 16.204h21.235v-11.979h-21.235v11.979z"></path>
<path d="M31.615 26.207h-31.238c-0.131 0-0.251-0.067-0.318-0.176s-0.075-0.247-0.015-0.363l4.629-9.255c0.094-0.183 0.318-0.258 0.502-0.168 0.183 0.094 0.258 0.318 0.168 0.502l-4.356 8.716h30.029l-4.356-8.716c-0.094-0.183-0.019-0.408 0.168-0.502 0.183-0.094 0.408-0.019 0.502 0.168l4.629 9.255c0.060 0.116 0.052 0.255-0.015 0.363s-0.187 0.176-0.318 0.176z"></path>
<path d="M29.029 28.524h-26.066c-1.025 0-1.946-0.569-2.406-1.486l-0.516-1.037c-0.094-0.183-0.019-0.408 0.168-0.502 0.183-0.094 0.408-0.019 0.501 0.168l0.516 1.037c0.329 0.662 0.995 1.074 1.736 1.074h26.066c0.741 0 1.403-0.412 1.736-1.074l0.516-1.037c0.094-0.183 0.318-0.258 0.502-0.168 0.183 0.094 0.258 0.318 0.168 0.502l-0.516 1.037c-0.457 0.917-1.381 1.486-2.406 1.486z"></path>
<path d="M20.047 26.207c-0.138 0-0.269-0.075-0.337-0.206l-1.055-2.107h-5.322l-1.055 2.107c-0.094 0.187-0.318 0.258-0.502 0.168-0.183-0.094-0.258-0.318-0.168-0.502l1.156-2.313c0.064-0.127 0.195-0.206 0.333-0.206h5.786c0.142 0 0.269 0.079 0.333 0.206l1.156 2.313c0.094 0.183 0.019 0.408-0.168 0.502-0.052 0.026-0.112 0.041-0.168 0.041z"></path>
<path d="M20.047 21.582h-8.099c-0.206 0-0.374-0.168-0.374-0.374s0.168-0.374 0.374-0.374h8.099c0.206 0 0.374 0.168 0.374 0.374s-0.168 0.374-0.374 0.374z"></path>
<path d="M23.517 21.582h-1.156c-0.206 0-0.374-0.168-0.374-0.374s0.168-0.374 0.374-0.374h1.156c0.206 0 0.374 0.168 0.374 0.374s-0.168 0.374-0.374 0.374z"></path>
<path d="M26.989 21.582h-1.156c-0.206 0-0.374-0.168-0.374-0.374s0.168-0.374 0.374-0.374h1.156c0.206 0 0.374 0.168 0.374 0.374s-0.168 0.374-0.374 0.374z"></path>
<path d="M6.163 21.582h-1.156c-0.206 0-0.374-0.168-0.374-0.374s0.168-0.374 0.374-0.374h1.156c0.206 0 0.374 0.168 0.374 0.374s-0.168 0.374-0.374 0.374z"></path>
<path d="M9.632 21.582h-1.156c-0.206 0-0.374-0.168-0.374-0.374s0.168-0.374 0.374-0.374h1.156c0.206 0 0.374 0.168 0.374 0.374s-0.168 0.374-0.374 0.374z"></path>
<path d="M7.319 19.265h-1.156c-0.206 0-0.374-0.168-0.374-0.374s0.168-0.374 0.374-0.374h1.156c0.206 0 0.374 0.168 0.374 0.374s-0.168 0.374-0.374 0.374z"></path>
<path d="M11.021 19.265h-1.156c-0.206 0-0.374-0.168-0.374-0.374s0.168-0.374 0.374-0.374h1.156c0.206 0 0.374 0.168 0.374 0.374s-0.168 0.374-0.374 0.374z"></path>
<path d="M14.726 19.265h-1.156c-0.206 0-0.374-0.168-0.374-0.374s0.168-0.374 0.374-0.374h1.156c0.206 0 0.374 0.168 0.374 0.374s-0.168 0.374-0.374 0.374z"></path>
<path d="M18.427 19.265h-1.156c-0.206 0-0.374-0.168-0.374-0.374s0.168-0.374 0.374-0.374h1.156c0.206 0 0.374 0.168 0.374 0.374s-0.168 0.374-0.374 0.374z"></path>
<path d="M22.128 19.265h-1.156c-0.206 0-0.374-0.168-0.374-0.374s0.168-0.374 0.374-0.374h1.156c0.206 0 0.374 0.168 0.374 0.374s-0.168 0.374-0.374 0.374z"></path>
<path d="M25.833 19.265h-1.156c-0.206 0-0.374-0.168-0.374-0.374s0.168-0.374 0.374-0.374h1.156c0.206 0 0.374 0.168 0.374 0.374s-0.168 0.374-0.374 0.374z"></path>
</svg>
