<!-- Generated by IcoMoon.io -->
<svg version="1.1" xmlns="http://www.w3.org/2000/svg" width="32" height="32" viewBox="0 0 32 32">
<title>Icons_Invalid-Password</title>
<path d="M26.878 20.287h-21.843c-0.237 0-0.431-0.194-0.431-0.431v-12.665c0-0.237 0.194-0.431 0.431-0.431h13.761c0.237 0 0.431 0.194 0.431 0.431s-0.194 0.431-0.431 0.431h-13.329v11.802h21.411c0.237 0 0.431 0.194 0.431 0.431s-0.194 0.431-0.431 0.431z"></path>
<path d="M31.521 29.495h-31.090c-0.151 0-0.289-0.078-0.367-0.203s-0.086-0.285-0.017-0.419l4.604-9.213c0.108-0.216 0.367-0.298 0.578-0.194 0.211 0.108 0.298 0.367 0.194 0.578l-4.293 8.587h29.692l-4.199-8.427c-0.108-0.211-0.017-0.47 0.194-0.578s0.47-0.017 0.578 0.194l4.509 9.053c0.065 0.134 0.060 0.293-0.017 0.419s-0.216 0.203-0.367 0.203z"></path>
<path d="M28.945 31.8h-25.938c-1.044 0-1.981-0.578-2.447-1.51l-0.513-1.031c-0.108-0.211-0.022-0.47 0.194-0.578 0.211-0.108 0.47-0.022 0.578 0.194l0.514 1.031c0.319 0.639 0.962 1.036 1.674 1.036h25.938c0.712 0 1.355-0.397 1.674-1.036l0.514-1.031c0.108-0.211 0.367-0.298 0.578-0.194 0.211 0.108 0.298 0.367 0.194 0.578l-0.514 1.031c-0.466 0.932-1.402 1.51-2.447 1.51z"></path>
<path d="M20.008 29.495c-0.16 0-0.311-0.086-0.388-0.237l-1.031-2.063h-5.226l-1.031 2.063c-0.108 0.211-0.367 0.298-0.578 0.194-0.211-0.108-0.298-0.367-0.194-0.578l1.152-2.304c0.073-0.147 0.224-0.237 0.384-0.237h5.756c0.164 0 0.311 0.091 0.384 0.237l1.152 2.304c0.108 0.211 0.022 0.47-0.194 0.578-0.060 0.030-0.129 0.047-0.194 0.047z"></path>
<path d="M20.008 24.891h-8.061c-0.237 0-0.431-0.194-0.431-0.431s0.194-0.431 0.431-0.431h8.061c0.237 0 0.431 0.194 0.431 0.431s-0.194 0.431-0.431 0.431z"></path>
<path d="M23.46 24.891h-1.152c-0.237 0-0.431-0.194-0.431-0.431s0.194-0.431 0.431-0.431h1.152c0.237 0 0.431 0.194 0.431 0.431s-0.194 0.431-0.431 0.431z"></path>
<path d="M27.077 24.891h-1.152c-0.237 0-0.431-0.194-0.431-0.431s0.194-0.431 0.431-0.431h1.152c0.237 0 0.431 0.194 0.431 0.431s-0.194 0.431-0.431 0.431z"></path>
<path d="M6.187 24.891h-1.152c-0.237 0-0.431-0.194-0.431-0.431s0.194-0.431 0.431-0.431h1.152c0.237 0 0.431 0.194 0.431 0.431s-0.194 0.431-0.431 0.431z"></path>
<path d="M9.644 24.891h-1.152c-0.237 0-0.431-0.194-0.431-0.431s0.194-0.431 0.431-0.431h1.152c0.237 0 0.431 0.194 0.431 0.431s-0.194 0.431-0.431 0.431z"></path>
<path d="M7.339 22.587h-1.152c-0.237 0-0.431-0.194-0.431-0.431s0.194-0.431 0.431-0.431h1.152c0.237 0 0.431 0.194 0.431 0.431s-0.194 0.431-0.431 0.431z"></path>
<path d="M11.024 22.587h-1.152c-0.237 0-0.431-0.194-0.431-0.431s0.194-0.431 0.431-0.431h1.152c0.237 0 0.431 0.194 0.431 0.431s-0.194 0.431-0.431 0.431z"></path>
<path d="M14.71 22.587h-1.152c-0.237 0-0.431-0.194-0.431-0.431s0.194-0.431 0.431-0.431h1.152c0.237 0 0.431 0.194 0.431 0.431s-0.194 0.431-0.431 0.431z"></path>
<path d="M18.395 22.587h-1.152c-0.237 0-0.431-0.194-0.431-0.431s0.194-0.431 0.431-0.431h1.152c0.237 0 0.431 0.194 0.431 0.431s-0.194 0.431-0.431 0.431z"></path>
<path d="M22.080 22.587h-1.152c-0.237 0-0.431-0.194-0.431-0.431s0.194-0.431 0.431-0.431h1.152c0.237 0 0.431 0.194 0.431 0.431s-0.194 0.431-0.431 0.431z"></path>
<path d="M25.696 22.587h-1.152c-0.237 0-0.431-0.194-0.431-0.431s0.194-0.431 0.431-0.431h1.152c0.237 0 0.431 0.194 0.431 0.431s-0.194 0.431-0.431 0.431z"></path>
<path d="M22.356 15.795h-13.040c-1.437 0-2.606-1.169-2.606-2.606s1.169-2.606 2.606-2.606h10.999c0.237 0 0.431 0.194 0.431 0.431s-0.194 0.431-0.431 0.431h-10.999c-0.962 0-1.743 0.781-1.743 1.743s0.781 1.743 1.743 1.743h13.040c1.023 0 1.679-0.583 1.679-1.48 0-0.237 0.194-0.431 0.431-0.431s0.431 0.194 0.431 0.431c0 1.381-1.044 2.343-2.542 2.343z"></path>
<path d="M10.895 14.418c-0.069 0-0.138-0.017-0.198-0.047l-0.35-0.181-0.35 0.181c-0.147 0.078-0.319 0.065-0.453-0.035-0.134-0.095-0.198-0.259-0.173-0.423l0.065-0.388-0.28-0.276c-0.116-0.116-0.16-0.285-0.108-0.44s0.186-0.272 0.35-0.293l0.388-0.056 0.173-0.354c0.147-0.293 0.63-0.293 0.772 0l0.173 0.354 0.388 0.056c0.164 0.022 0.298 0.138 0.35 0.293s0.009 0.328-0.108 0.44l-0.28 0.276 0.065 0.388c0.026 0.164-0.039 0.324-0.173 0.423-0.073 0.056-0.164 0.082-0.255 0.082zM10.347 13.266s0.017 0 0.026 0c0.004-0.017 0.009-0.035 0.017-0.052-0.013-0.009-0.030-0.022-0.043-0.030-0.013 0.013-0.030 0.022-0.043 0.030 0.004 0.017 0.013 0.035 0.017 0.052 0.009 0 0.017 0 0.026 0z"></path>
<path d="M14.481 14.418c-0.069 0-0.138-0.017-0.198-0.047l-0.35-0.181-0.35 0.181c-0.147 0.078-0.324 0.065-0.453-0.035-0.134-0.095-0.198-0.259-0.173-0.423l0.065-0.388-0.28-0.276c-0.116-0.116-0.16-0.285-0.108-0.44s0.186-0.272 0.35-0.293l0.388-0.056 0.173-0.354c0.147-0.293 0.63-0.293 0.772 0l0.173 0.354 0.388 0.056c0.164 0.022 0.298 0.138 0.35 0.293s0.009 0.328-0.108 0.44l-0.28 0.276 0.065 0.388c0.026 0.164-0.039 0.324-0.173 0.423-0.073 0.056-0.164 0.082-0.255 0.082zM13.933 13.266s0.017 0 0.026 0c0.004-0.017 0.009-0.035 0.017-0.052-0.013-0.009-0.030-0.022-0.043-0.030-0.013 0.013-0.030 0.022-0.043 0.030 0.004 0.017 0.013 0.035 0.017 0.052 0.009 0 0.017 0 0.026 0z"></path>
<path d="M18.067 14.418c-0.069 0-0.138-0.017-0.198-0.047l-0.349-0.181-0.349 0.181c-0.147 0.078-0.324 0.065-0.453-0.035-0.134-0.095-0.198-0.259-0.173-0.423l0.065-0.388-0.28-0.276c-0.116-0.116-0.16-0.285-0.108-0.44s0.186-0.272 0.349-0.293l0.388-0.056 0.173-0.354c0.073-0.147 0.224-0.242 0.388-0.242v0c0.164 0 0.315 0.095 0.388 0.242l0.177 0.354 0.388 0.056c0.164 0.022 0.298 0.138 0.349 0.293s0.009 0.328-0.108 0.44l-0.28 0.276 0.065 0.388c0.026 0.164-0.039 0.324-0.173 0.423-0.073 0.056-0.164 0.082-0.255 0.082zM17.519 13.266s0.017 0 0.026 0c0.004-0.017 0.009-0.035 0.017-0.052-0.013-0.009-0.030-0.022-0.043-0.030-0.013 0.013-0.030 0.022-0.043 0.030 0.004 0.017 0.013 0.035 0.017 0.052 0.009 0 0.017 0 0.026 0zM17.242 12.852v0z"></path>
<path d="M21.657 14.418c-0.069 0-0.138-0.017-0.198-0.047l-0.349-0.181-0.349 0.181c-0.147 0.078-0.319 0.065-0.453-0.035-0.134-0.095-0.198-0.259-0.173-0.423l0.065-0.388-0.28-0.276c-0.116-0.116-0.16-0.285-0.108-0.44s0.186-0.272 0.349-0.293l0.388-0.056 0.173-0.354c0.147-0.293 0.63-0.293 0.772 0l0.173 0.354 0.388 0.056c0.164 0.022 0.298 0.138 0.349 0.293s0.009 0.328-0.108 0.44l-0.28 0.276 0.065 0.388c0.026 0.164-0.039 0.324-0.173 0.423-0.073 0.056-0.164 0.082-0.255 0.082zM21.109 13.266s0.017 0 0.026 0c0.004-0.017 0.009-0.035 0.017-0.052-0.013-0.009-0.030-0.022-0.043-0.030-0.013 0.013-0.030 0.022-0.043 0.030 0.004 0.017 0.013 0.035 0.017 0.052 0.009 0 0.017 0 0.026 0z"></path>
<path d="M25.221 13.754c-3.737 0-6.775-3.038-6.775-6.775s3.038-6.779 6.775-6.779 6.779 3.038 6.779 6.779-3.038 6.775-6.779 6.775zM25.221 1.063c-3.262 0-5.912 2.654-5.912 5.916s2.654 5.912 5.912 5.912 5.916-2.654 5.916-5.912-2.654-5.916-5.916-5.916z"></path>
<path d="M22.848 9.784c-0.112 0-0.22-0.043-0.306-0.125-0.168-0.168-0.168-0.44 0-0.608l4.751-4.751c0.168-0.168 0.44-0.168 0.608 0s0.168 0.44 0 0.608l-4.751 4.751c-0.086 0.086-0.194 0.125-0.306 0.125z"></path>
<path d="M27.599 9.784c-0.112 0-0.22-0.043-0.306-0.125l-4.751-4.751c-0.168-0.168-0.168-0.44 0-0.608s0.44-0.168 0.608 0l4.751 4.751c0.168 0.168 0.168 0.44 0 0.608-0.086 0.086-0.194 0.125-0.306 0.125z"></path>
<path d="M26.835 20.222c-0.237 0-0.431-0.194-0.431-0.431v-6.606c0-0.237 0.194-0.431 0.431-0.431s0.431 0.194 0.431 0.431v6.606c0 0.237-0.194 0.431-0.431 0.431z"></path>
</svg>
