<!-- Generated by IcoMoon.io -->
<svg version="1.1" xmlns="http://www.w3.org/2000/svg" width="32" height="32" viewBox="0 0 32 32">
<title>Icons_Digitization</title>
<path d="M26.258 29.027h-16.265s-0.043 0-0.047 0h-0.891s-0.035 0-0.043 0c-0.129-0.008-0.246-0.020-0.36-0.043-0.008 0-0.012 0-0.016 0-0.438-0.078-0.829-0.281-1.157-0.61-0.45-0.446-0.676-0.981-0.676-1.607 0-0.035 0.004-0.074 0.016-0.11l2.663-9.004c0.063-0.207 0.278-0.325 0.485-0.266 0.207 0.063 0.325 0.278 0.266 0.485l-2.643 8.95c0.012 0.387 0.156 0.712 0.438 0.989 0.219 0.215 0.457 0.344 0.731 0.395 0.012 0 0.020 0 0.027 0.004 0.086 0.016 0.176 0.027 0.266 0.031h17.211c0.387 0 0.759-0.137 1.126-0.414 0.004-0.004 0.008-0.008 0.016-0.012 0.368-0.285 0.606-0.614 0.727-1.005 0-0.008 0-0.016 0.008-0.023l3.007-10.244c0.121-0.418 0.086-0.755-0.11-1.036-0.008-0.012-0.016-0.020-0.023-0.031-0.195-0.289-0.477-0.43-0.884-0.442h-6.877c-0.125 0-0.246-0.063-0.321-0.164l-1.329-1.869s-0.016-0.016-0.031-0.023l-0.043-0.012h-5.755c-0.407-0.020-0.766 0.125-1.13 0.403-0.008 0.008-0.016 0.012-0.020 0.016-0.375 0.289-0.61 0.622-0.723 1.017l-3.624 12.347c-0.063 0.207-0.278 0.325-0.485 0.266-0.207-0.063-0.325-0.278-0.266-0.485l3.624-12.347c0.156-0.543 0.489-1.017 0.981-1.404 0.008-0.004 0.012-0.012 0.020-0.016 0.508-0.395 1.040-0.598 1.634-0.579h5.747c0.141 0 0.274 0.031 0.399 0.098 0.121 0.059 0.227 0.149 0.309 0.262l1.216 1.709h6.686c0.665 0.016 1.169 0.274 1.509 0.762 0.004 0.004 0.008 0.012 0.012 0.016 0.348 0.485 0.43 1.063 0.235 1.728l-2.999 10.22s-0.004 0.020-0.008 0.031c-0.164 0.551-0.5 1.028-0.993 1.411-0.008 0.008-0.016 0.012-0.020 0.016-0.508 0.383-1.052 0.583-1.611 0.583z"></path>
<path d="M22.571 25.356c-0.305 0-0.602-0.020-0.891-0.063-0.102-0.016-0.203-0.031-0.305-0.051-0.121-0.020-0.242-0.047-0.368-0.082-1.509-0.395-2.819-1.388-3.906-2.96l-2.021 0.938c-0.141 0.063-0.305 0.043-0.418-0.059-0.117-0.098-0.164-0.258-0.121-0.407l1.814-6.217c0.023-0.094 0.082-0.176 0.164-0.227 0.11-0.070 0.25-0.086 0.371-0.031l5.935 2.631c0.141 0.063 0.231 0.199 0.231 0.356s-0.086 0.293-0.227 0.36l-2.092 0.974c0.637 1.189 1.509 2.037 2.596 2.53 0.195 0.090 0.285 0.321 0.195 0.516s-0.321 0.285-0.516 0.195c-1.368-0.618-2.428-1.716-3.159-3.261-0.043-0.094-0.051-0.203-0.016-0.301s0.11-0.176 0.203-0.223l1.677-0.778-4.739-2.104-1.451 4.973 1.544-0.716c0.18-0.082 0.387-0.020 0.493 0.145 1.013 1.568 2.232 2.545 3.632 2.909 0.102 0.027 0.207 0.051 0.317 0.070 0.094 0.020 0.184 0.035 0.274 0.047 1.314 0.188 2.835-0.113 4.512-0.903 0.195-0.094 0.426-0.008 0.52 0.188 0.090 0.195 0.008 0.43-0.188 0.52-1.462 0.688-2.827 1.032-4.066 1.032z"></path>
<path d="M25.633 14.983c-0.035 0-0.066-0.004-0.102-0.016-0.207-0.055-0.332-0.27-0.274-0.481l0.508-1.928c-0.004-0.407-0.145-0.747-0.43-1.036-0.293-0.293-0.633-0.434-1.044-0.434h-2.823c-0.215 0-0.391-0.176-0.391-0.391s0.176-0.391 0.391-0.391h2.823c0.618 0 1.157 0.223 1.595 0.661 0.434 0.442 0.653 0.974 0.661 1.587v0.102c0 0.035-0.004 0.070-0.016 0.102l-0.524 1.931c-0.047 0.176-0.203 0.289-0.375 0.289z"></path>
<path d="M3.761 11.906c-0.149 0-0.285-0.082-0.356-0.223-0.387-0.817-0.583-1.693-0.583-2.604 0-3.366 2.741-6.107 6.107-6.107 2.71 0 5.122 1.818 5.869 4.418 0.059 0.207-0.059 0.422-0.266 0.485-0.211 0.059-0.422-0.059-0.485-0.27-0.653-2.268-2.756-3.851-5.118-3.851-2.936 0-5.325 2.389-5.325 5.325 0 0.794 0.172 1.556 0.508 2.268 0.094 0.195 0.008 0.43-0.188 0.52-0.055 0.027-0.11 0.039-0.168 0.039z"></path>
<path d="M19.627 12.016c-0.063 0-0.125-0.016-0.18-0.043-0.192-0.102-0.266-0.336-0.164-0.528 0.281-0.536 0.422-1.118 0.422-1.728 0-2.049-1.669-3.718-3.718-3.718-0.661 0-1.31 0.176-1.877 0.508-0.188 0.109-0.426 0.047-0.536-0.141s-0.047-0.426 0.141-0.536c0.688-0.403 1.47-0.614 2.272-0.614 2.483 0 4.5 2.017 4.5 4.5 0 0.727-0.176 1.451-0.512 2.092-0.070 0.133-0.207 0.211-0.348 0.211z"></path>
<path d="M12.492 18.115h-8.328c-2.295 0-4.164-1.869-4.164-4.164 0-1.912 1.294-3.574 3.147-4.039 0.211-0.051 0.422 0.074 0.473 0.285s-0.074 0.422-0.285 0.473c-1.505 0.375-2.557 1.728-2.557 3.28 0 1.865 1.517 3.382 3.382 3.382h8.328c0.215 0 0.391 0.176 0.391 0.391s-0.176 0.391-0.391 0.391z"></path>
<path d="M23.138 14.929c-0.020 0-0.039 0-0.063-0.004-0.211-0.031-0.36-0.235-0.325-0.446 0.027-0.172 0.039-0.348 0.039-0.528 0-1.583-1.122-2.975-2.666-3.308-0.211-0.047-0.344-0.254-0.301-0.465s0.254-0.344 0.465-0.301c1.9 0.411 3.284 2.123 3.284 4.070 0 0.219-0.016 0.434-0.051 0.645-0.031 0.192-0.195 0.332-0.387 0.332z"></path>
</svg>
