<!-- Generated by IcoMoon.io -->
<svg version="1.1" xmlns="http://www.w3.org/2000/svg" width="32" height="32" viewBox="0 0 32 32">
<title>Icons_New-Email</title>
<path d="M19.149 23.932h-17.311c-1.013 0-1.838-0.824-1.838-1.838v-16.747c0-1.013 0.824-1.838 1.838-1.838h26.030c1.013 0 1.838 0.824 1.838 1.838v11.499c0 0.217-0.177 0.394-0.394 0.394s-0.394-0.177-0.394-0.394v-11.499c0-0.576-0.469-1.049-1.049-1.049h-26.030c-0.576 0-1.049 0.469-1.049 1.049v16.747c0 0.576 0.469 1.049 1.049 1.049h17.311c0.217 0 0.394 0.177 0.394 0.394s-0.177 0.394-0.394 0.394z"></path>
<path d="M14.985 17.753c-0.524 0-1.002-0.213-1.27-0.402-0.016-0.012-0.032-0.024-0.043-0.035l-13.23-12.374c-0.158-0.15-0.166-0.398-0.020-0.556 0.15-0.158 0.398-0.166 0.556-0.020l13.206 12.354c0.13 0.083 0.856 0.505 1.416 0.012 0.84-0.733 13.052-12.043 13.175-12.157 0.158-0.15 0.41-0.138 0.556 0.020 0.15 0.162 0.138 0.41-0.020 0.556-0.505 0.465-12.343 11.428-13.19 12.173-0.359 0.315-0.761 0.426-1.14 0.426z"></path>
<path d="M0.82 23.506c-0.126 0-0.248-0.059-0.323-0.17-0.126-0.177-0.079-0.426 0.099-0.548l11.12-7.737c0.177-0.126 0.426-0.079 0.548 0.099 0.126 0.177 0.079 0.426-0.099 0.548l-11.12 7.737c-0.067 0.047-0.146 0.071-0.225 0.071z"></path>
<path d="M20.797 17.678c-0.083 0-0.17-0.028-0.241-0.083l-2.8-2.173c-0.174-0.134-0.205-0.382-0.071-0.552 0.134-0.174 0.382-0.205 0.552-0.071l2.8 2.173c0.174 0.134 0.205 0.382 0.071 0.552-0.079 0.099-0.193 0.154-0.312 0.154z"></path>
<path d="M25.131 24.863c-0.217 0-0.394-0.177-0.394-0.394v-5.343c0-0.217 0.177-0.394 0.394-0.394s0.394 0.177 0.394 0.394v5.343c0 0.217-0.177 0.394-0.394 0.394z"></path>
<path d="M27.804 22.193h-5.343c-0.217 0-0.394-0.177-0.394-0.394s0.177-0.394 0.394-0.394h5.343c0.217 0 0.394 0.177 0.394 0.394s-0.177 0.394-0.394 0.394z"></path>
<path d="M25.308 28.49c-3.691 0-6.692-3.001-6.692-6.692s3.001-6.692 6.692-6.692 6.692 3.001 6.692 6.692-3.001 6.692-6.692 6.692zM25.308 15.895c-3.253 0-5.903 2.65-5.903 5.903s2.65 5.903 5.903 5.903 5.903-2.65 5.903-5.903-2.65-5.903-5.903-5.903z"></path>
</svg>
