<!-- Generated by IcoMoon.io -->
<svg version="1.1" xmlns="http://www.w3.org/2000/svg" width="32" height="32" viewBox="0 0 32 32">
<title>Icons_EHR-EMR</title>
<path d="M22.758 30.267h-22.312c-0.241 0-0.438-0.197-0.438-0.438v-16.243c0-0.241 0.197-0.438 0.438-0.438h22.312c0.241 0 0.438 0.197 0.438 0.438v16.243c0 0.241-0.197 0.438-0.438 0.438zM0.885 29.391h21.436v-15.367h-21.436v15.367z"></path>
<path d="M10.608 14.024s-0.022 0-0.031 0c-0.241-0.018-0.421-0.228-0.403-0.469 0.053-0.741-0.031-1.959-0.381-2.34-0.066-0.070-0.123-0.096-0.206-0.096h-8.106c-0.083 0-0.14 0.026-0.206 0.096-0.355 0.381-0.438 1.595-0.386 2.34 0.018 0.241-0.162 0.451-0.403 0.469-0.237 0.022-0.451-0.162-0.469-0.403-0.018-0.223-0.136-2.191 0.613-3.002 0.228-0.245 0.521-0.377 0.85-0.377h8.106c0.324 0 0.618 0.131 0.85 0.377 0.754 0.811 0.631 2.778 0.613 3.002-0.018 0.232-0.21 0.408-0.438 0.408z"></path>
<path d="M11.326 26.635c-0.911 0-1.656-0.745-1.656-1.656v-1.485h-1.485c-0.911 0-1.656-0.745-1.656-1.656s0.745-1.656 1.656-1.656h1.485v-1.485c0-0.911 0.745-1.656 1.656-1.656s1.656 0.745 1.656 1.656v1.485h1.485c0.911 0 1.656 0.745 1.656 1.656s-0.745 1.656-1.656 1.656h-1.485v1.485c0 0.911-0.745 1.656-1.656 1.656zM8.185 21.057c-0.429 0-0.78 0.351-0.78 0.78s0.351 0.78 0.78 0.78h1.924c0.241 0 0.438 0.197 0.438 0.438v1.924c0 0.429 0.351 0.78 0.78 0.78s0.78-0.351 0.78-0.78v-1.924c0-0.241 0.197-0.438 0.438-0.438h1.924c0.429 0 0.78-0.351 0.78-0.78s-0.351-0.78-0.78-0.78h-1.924c-0.241 0-0.438-0.197-0.438-0.438v-1.924c0-0.429-0.351-0.78-0.78-0.78s-0.78 0.351-0.78 0.78v1.924c0 0.241-0.197 0.438-0.438 0.438h-1.924z"></path>
<path d="M31.553 21.762h-8.764c-0.241 0-0.438-0.197-0.438-0.438s0.197-0.438 0.438-0.438h8.325v-15.367h-21.436v5.057c0 0.241-0.197 0.438-0.438 0.438s-0.438-0.197-0.438-0.438v-5.495c0-0.241 0.197-0.438 0.438-0.438h22.312c0.241 0 0.438 0.197 0.438 0.438v16.243c0 0.241-0.197 0.438-0.438 0.438z"></path>
<path d="M21.391 5.519c-0.228 0-0.421-0.175-0.438-0.408-0.018-0.223-0.136-2.191 0.613-3.002 0.228-0.245 0.521-0.377 0.85-0.377h8.106c0.324 0 0.618 0.131 0.846 0.377 0.754 0.811 0.631 2.778 0.613 3.002-0.018 0.241-0.228 0.421-0.469 0.403s-0.421-0.228-0.403-0.469c0.053-0.745-0.031-1.959-0.381-2.34-0.066-0.070-0.123-0.096-0.206-0.096h-8.106c-0.083 0-0.14 0.026-0.206 0.096-0.355 0.381-0.438 1.595-0.381 2.34 0.018 0.241-0.162 0.451-0.403 0.469-0.013 0-0.022 0-0.031 0z"></path>
<path d="M23.814 14.988h-1.030c-0.241 0-0.438-0.197-0.438-0.438s0.197-0.438 0.438-0.438h1.030c0.429 0 0.78-0.351 0.78-0.78s-0.351-0.78-0.78-0.78h-1.924c-0.241 0-0.438-0.197-0.438-0.438v-1.924c0-0.429-0.351-0.78-0.78-0.78s-0.78 0.351-0.78 0.78v1.924c0 0.241-0.197 0.438-0.438 0.438h-1.924c-0.429 0-0.78 0.351-0.78 0.78 0 0.241-0.197 0.438-0.438 0.438s-0.438-0.197-0.438-0.438c0-0.911 0.745-1.656 1.656-1.656h1.485v-1.485c0-0.911 0.745-1.656 1.656-1.656s1.656 0.745 1.656 1.656v1.485h1.485c0.911 0 1.656 0.745 1.656 1.656s-0.745 1.656-1.656 1.656z"></path>
</svg>
