<?xml version="1.0" encoding="UTF-8" standalone="no"?>
<!DOCTYPE svg PUBLIC "-//W3C//DTD SVG 1.1//EN" "http://www.w3.org/Graphics/SVG/1.1/DTD/svg11.dtd">
<svg width="100%" height="100%" viewBox="0 0 1257 191" version="1.1" xmlns="http://www.w3.org/2000/svg" xmlns:xlink="http://www.w3.org/1999/xlink" xml:space="preserve" xmlns:serif="http://www.serif.com/" style="fill-rule:evenodd;clip-rule:evenodd;stroke-linejoin:round;stroke-miterlimit:2;">
    <g transform="matrix(4.16667,0,0,4.16667,-413.575,-946.292)">
        <g id="Warstwa-1" serif:id="Warstwa 1">
            <g transform="matrix(1,0,0,1,181.142,227.453)">
                <path d="M0,21.985L0,0.082C0.779,0.082 1.521,0.076 2.263,0.09C2.375,0.092 2.532,0.16 2.591,0.248C3.547,1.685 4.485,3.135 5.44,4.573C6.045,5.484 6.675,6.379 7.285,7.288C8.159,8.589 9.023,9.897 9.896,11.198C10.053,11.433 10.236,11.652 10.455,11.942C11.537,10.266 12.554,8.666 13.597,7.084C14.242,6.103 14.933,5.153 15.591,4.181C16.348,3.061 17.118,1.949 17.827,0.799C18.16,0.258 18.535,0 19.183,0.067C19.733,0.124 20.295,0.079 20.903,0.079L20.903,21.975L18.383,21.975L18.383,5.033C18.308,5.001 18.234,4.969 18.16,4.937C15.598,8.706 13.036,12.476 10.393,16.365C7.77,12.527 5.199,8.763 2.628,5C2.566,5.029 2.505,5.058 2.444,5.087L2.444,21.985L0,21.985Z" style="fill:rgb(35,31,32);fill-rule:nonzero;"/>
            </g>
            <g transform="matrix(1,0,0,1,126.647,238.303)">
                <path d="M0,0.491C1.842,0.491 3.587,0.573 5.32,0.465C6.714,0.378 8.112,0.139 9.474,-0.176C10.937,-0.514 12.392,-2.838 12.059,-4.49C11.602,-6.755 9.821,-8.271 7.489,-8.277C5.238,-8.283 2.986,-8.28 0.735,-8.276C0.502,-8.276 0.269,-8.247 0,-8.229L0,0.491M-2.77,-10.772L-0.254,-10.772C2.184,-10.772 4.622,-10.764 7.061,-10.774C9.488,-10.783 11.657,-10.031 13.312,-8.264C14.214,-7.302 14.682,-5.993 14.755,-4.621C14.875,-2.342 14.141,-0.388 12.258,0.948C11.309,1.621 10.164,2.017 9.04,2.571C11.121,5.354 13.237,8.182 15.474,11.173C14.331,11.173 13.321,11.274 12.352,11.122C11.971,11.062 11.652,10.453 11.355,10.057C9.682,7.828 8.014,5.596 6.372,3.344C6.071,2.931 5.762,2.767 5.251,2.776C3.539,2.808 1.825,2.788 -0.007,2.788L-0.007,11.123L-2.77,11.123L-2.77,-10.772" style="fill:rgb(35,31,32);fill-rule:nonzero;"/>
            </g>
            <g transform="matrix(1,0,0,1,160.69,247.49)">
                <path d="M0,-17.947C-1.116,-17.716 -2.312,-17.666 -3.331,-17.216C-5.408,-16.298 -7,-14.759 -7.832,-12.6C-8.514,-10.831 -8.608,-8.986 -8.322,-7.098C-7.952,-4.66 -6.698,-2.739 -4.732,-1.42C-2.259,0.238 0.458,0.663 3.32,-0.595C4.615,-1.163 5.76,-1.934 6.593,-3.026C7.35,-4.019 7.918,-5.14 8.212,-6.426C8.901,-9.442 8.484,-12.26 6.618,-14.672C5.01,-16.751 2.749,-17.871 0,-17.947M0.069,-20.319C2.356,-20.626 4.352,-19.718 6.196,-18.611C8.358,-17.313 9.882,-15.331 10.658,-12.931C11.363,-10.749 11.375,-8.466 10.942,-6.202C10.285,-2.777 8.242,-0.334 5.275,1.294C4.14,1.917 2.774,2.241 1.475,2.415C-0.493,2.679 -2.425,2.416 -4.336,1.687C-7.727,0.393 -9.629,-2.173 -10.852,-5.4C-10.999,-5.788 -11.023,-6.234 -11.044,-6.656C-11.188,-9.484 -11.282,-12.236 -9.68,-14.855C-7.912,-17.745 -5.403,-19.374 -2.246,-20.173C-1.509,-20.359 -0.704,-20.277 0.069,-20.319" style="fill:rgb(35,31,32);fill-rule:nonzero;"/>
            </g>
            <g transform="matrix(1,0,0,1,239.625,229.66)">
                <path d="M0,17.625C2.394,17.53 4.698,17.533 6.981,17.318C8.821,17.145 10.477,16.307 11.748,14.965C12.743,13.914 13.485,12.687 13.813,11.183C14.294,8.971 14.141,6.829 13.155,4.867C11.974,2.517 9.914,0.989 7.335,0.569C5.349,0.245 3.282,0.413 1.251,0.366C0.835,0.356 0.418,0.365 0,0.365L0,17.625M-2.488,19.833L-2.488,-2.088C-2.186,-2.103 -1.926,-2.127 -1.665,-2.127C0.881,-2.13 3.43,-2.208 5.971,-2.094C7.173,-2.04 8.403,-1.741 9.539,-1.329C10.718,-0.901 11.933,-0.368 12.893,0.414C14.588,1.793 15.889,3.517 16.389,5.747C16.89,7.981 16.896,10.224 16.332,12.409C15.843,14.304 14.675,15.879 13.186,17.153C11.131,18.912 8.737,19.832 6.013,19.833L-2.488,19.833" style="fill:rgb(35,31,32);fill-rule:nonzero;"/>
            </g>
            <g transform="matrix(1,0,0,1,212.198,227.578)">
                <path d="M0,21.861L0,0L15.853,0L15.853,2.419L2.651,2.419L2.651,9.6C2.95,9.614 3.26,9.64 3.57,9.64C6.895,9.644 10.22,9.663 13.545,9.627C14.291,9.618 14.522,9.846 14.495,10.584C14.435,12.258 14.647,12.058 13.039,12.063C9.902,12.071 6.764,12.065 3.627,12.065L2.63,12.065L2.63,19.604L15.895,19.604L15.895,21.861L0,21.861" style="fill:rgb(35,31,32);fill-rule:nonzero;"/>
            </g>
            <g transform="matrix(1,0,0,1,314.831,246.278)">
                <path d="M0,-15.655C-1.635,-12.014 -3.212,-8.503 -4.814,-4.937L4.801,-4.937C3.194,-8.524 1.631,-12.013 0,-15.655M-11.207,3.215C-9.704,-0.071 -8.283,-3.178 -6.862,-6.285C-5.912,-8.361 -4.957,-10.434 -4.015,-12.514C-3.161,-14.398 -2.306,-16.283 -1.485,-18.182C-1.255,-18.714 -0.967,-18.922 -0.36,-18.93C0.69,-18.945 1.429,-18.927 1.867,-17.608C2.557,-15.531 3.614,-13.573 4.54,-11.576C5.309,-9.916 6.137,-8.282 6.897,-6.618C7.554,-5.178 8.134,-3.703 8.781,-2.258C9.467,-0.729 10.196,0.781 10.898,2.304C11.014,2.556 11.091,2.826 11.215,3.168L8.405,3.168C7.639,1.483 6.85,-0.226 6.087,-1.947C5.927,-2.307 5.737,-2.463 5.321,-2.461C1.757,-2.444 -1.806,-2.435 -5.37,-2.461C-6.321,-2.468 -6.266,-1.65 -6.509,-1.146C-7.097,0.067 -7.558,1.341 -8.087,2.583C-8.276,3.027 -8.568,3.29 -9.131,3.23C-9.761,3.164 -10.403,3.215 -11.207,3.215" style="fill:rgb(35,31,32);fill-rule:nonzero;"/>
            </g>
            <g transform="matrix(1,0,0,1,101.737,237.57)">
                <path d="M0,1.814C0.146,1.842 0.198,1.86 0.25,1.86C1.857,1.864 3.466,1.809 5.07,1.884C6.653,1.959 8.075,1.616 9.373,0.701C10.635,-0.188 11.436,-1.984 11.26,-3.423C10.938,-6.06 8.251,-7.618 6.221,-7.561C5.002,-7.527 3.778,-7.665 2.555,-7.7C1.71,-7.724 0.863,-7.704 0,-7.704L0,1.814M-0.039,4.361L-0.039,11.855L-2.479,11.855L-2.479,-10C-2.214,-10.012 -1.933,-10.036 -1.652,-10.036C1,-10.039 3.652,-10.041 6.304,-10.037C7.633,-10.035 8.897,-9.741 10.043,-9.061C10.828,-8.595 11.723,-8.19 12.296,-7.523C12.914,-6.806 13.454,-5.852 13.596,-4.935C13.804,-3.594 13.896,-2.123 13.558,-0.833C12.826,1.963 10.658,3.387 7.958,4.001C6.901,4.242 5.793,4.307 4.704,4.347C3.158,4.403 1.608,4.361 -0.039,4.361" style="fill:rgb(35,31,32);fill-rule:nonzero;"/>
            </g>
            <g transform="matrix(1,0,0,1,297.455,246.791)">
                <path d="M0,-16.106C-0.658,-15.392 -1.221,-14.78 -1.795,-14.155C-2.528,-14.674 -3.284,-15.188 -4.016,-15.734C-5.88,-17.122 -7.995,-17.223 -10.192,-17.007C-12.42,-16.788 -14.11,-15.568 -15.404,-13.914C-16.228,-12.86 -17.006,-11.632 -17.007,-10.156C-17.007,-8.773 -17.115,-7.378 -16.971,-6.009C-16.807,-4.46 -15.969,-3.141 -14.952,-1.998C-13.481,-0.344 -11.597,0.608 -9.376,0.756C-8.54,0.812 -7.661,0.779 -6.854,0.575C-5.269,0.175 -3.767,-0.443 -2.621,-1.712C-2.368,-1.993 -1.971,-2.144 -1.623,-2.366C-1.19,-1.971 -0.754,-1.596 -0.346,-1.191C-0.042,-0.889 -0.009,-0.627 -0.379,-0.26C-3.383,2.711 -7.001,3.716 -11.086,2.996C-13.865,2.506 -16.173,1.095 -17.813,-1.236C-19.12,-3.093 -20.056,-5.108 -19.821,-7.481C-19.792,-7.773 -19.788,-8.074 -19.821,-8.365C-20.058,-10.446 -19.505,-12.359 -18.472,-14.118C-17.392,-15.956 -15.899,-17.353 -13.981,-18.398C-11.394,-19.806 -8.688,-19.822 -5.953,-19.386C-4.214,-19.108 -2.615,-18.309 -1.277,-17.083C-0.899,-16.735 -0.46,-16.454 0,-16.106" style="fill:rgb(35,31,32);fill-rule:nonzero;"/>
            </g>
            <g transform="matrix(1,0,0,1,390.781,247.302)">
                <path d="M0,-17.285L-7.364,-17.285L-7.364,-19.722L9.961,-19.722L9.961,-17.306L2.646,-17.306L2.646,2.394C1.842,2.394 1.121,2.437 0.414,2.362C0.253,2.345 0.024,1.919 0.019,1.678C-0.016,-0.036 0,-1.751 0,-3.465L0,-17.285" style="fill:rgb(35,31,32);fill-rule:nonzero;"/>
            </g>
            <g transform="matrix(1,0,0,1,336.908,229.809)">
                <path d="M0,17.403L12.18,17.403L12.18,19.633L-2.573,19.633L-2.573,-2.23L0,-2.23L0,17.403" style="fill:rgb(35,31,32);fill-rule:nonzero;"/>
            </g>
            <g transform="matrix(1,0,0,1,373.321,249.734)">
                <path d="M0,-22.166L2.466,-22.166L2.466,-0.037C1.77,-0.037 1.056,0 0.353,-0.067C0.2,-0.081 -0.024,-0.464 -0.033,-0.684C-0.075,-1.701 -0.053,-2.721 -0.053,-3.74C-0.053,-9.531 -0.054,-15.322 -0.051,-21.114C-0.05,-21.454 -0.019,-21.794 0,-22.166" style="fill:rgb(35,31,32);fill-rule:nonzero;"/>
            </g>
            <g transform="matrix(1,0,0,1,265.621,249.426)">
                <path d="M0,-21.854L2.553,-21.854L2.553,0L0,0L0,-21.854" style="fill:rgb(35,31,32);fill-rule:nonzero;"/>
            </g>
            <g transform="matrix(1,0,0,1,264.307,267.753)">
                <path d="M0,1.015L-0.744,-0.966C-0.84,-1.217 -0.939,-1.524 -1.041,-1.89C-1.106,-1.61 -1.198,-1.303 -1.317,-0.966L-2.07,1.015L0,1.015ZM1.028,3.718L0.232,1.683L-2.332,1.683L-3.119,3.718L-3.872,3.718L-1.343,-2.703L-0.718,-2.703L1.798,3.718L1.028,3.718Z" style="fill:rgb(245,131,85);fill-rule:nonzero;"/>
            </g>
            <g transform="matrix(1,0,0,1,360.805,270.881)">
                <path d="M0,-5.243C-0.703,-5.243 -1.257,-5.009 -1.664,-4.542C-2.071,-4.073 -2.274,-3.433 -2.274,-2.618C-2.274,-1.782 -2.078,-1.135 -1.686,-0.679C-1.294,-0.222 -0.735,0.007 -0.008,0.007C0.438,0.007 0.947,-0.075 1.519,-0.235L1.519,0.417C1.075,0.584 0.529,0.666 -0.123,0.666C-1.064,0.666 -1.79,0.381 -2.302,-0.191C-2.814,-0.762 -3.069,-1.575 -3.069,-2.628C-3.069,-3.287 -2.948,-3.865 -2.701,-4.361C-2.455,-4.855 -2.099,-5.238 -1.633,-5.505C-1.169,-5.774 -0.619,-5.909 0.01,-5.909C0.68,-5.909 1.266,-5.786 1.768,-5.54L1.453,-4.903C0.969,-5.13 0.485,-5.243 0,-5.243" style="fill:rgb(245,131,85);fill-rule:nonzero;"/>
            </g>
            <g transform="matrix(1,0,0,1,364.175,268.263)">
                <path d="M0,-0.005C0,0.863 0.184,1.518 0.553,1.966C0.922,2.414 1.458,2.637 2.159,2.637C2.869,2.637 3.404,2.415 3.765,1.969C4.128,1.522 4.308,0.865 4.308,-0.005C4.308,-0.865 4.129,-1.518 3.768,-1.962C3.408,-2.407 2.875,-2.63 2.169,-2.63C1.46,-2.63 0.921,-2.405 0.553,-1.957C0.184,-1.51 0,-0.859 0,-0.005M5.095,-0.005C5.095,1.02 4.837,1.825 4.32,2.41C3.803,2.998 3.082,3.289 2.159,3.289C1.218,3.289 0.491,3.003 -0.02,2.425C-0.532,1.85 -0.787,1.037 -0.787,-0.013C-0.787,-1.054 -0.531,-1.861 -0.018,-2.434C0.495,-3.008 1.225,-3.294 2.169,-3.294C3.087,-3.294 3.805,-3.002 4.322,-2.42C4.837,-1.836 5.095,-1.031 5.095,-0.005" style="fill:rgb(245,131,85);fill-rule:nonzero;"/>
            </g>
            <g transform="matrix(1,0,0,1,373.527,265.069)">
                <path d="M0,6.396L-2.169,0.726L-2.205,0.726C-2.163,1.175 -2.144,1.709 -2.144,2.327L-2.144,6.396L-2.83,6.396L-2.83,0L-1.71,0L0.315,5.276L0.349,5.276L2.392,0L3.504,0L3.504,6.396L2.759,6.396L2.759,2.275C2.759,1.803 2.781,1.289 2.822,0.735L2.788,0.735L0.6,6.396L0,6.396Z" style="fill:rgb(245,131,85);fill-rule:nonzero;"/>
            </g>
            <g transform="matrix(1,0,0,1,379.529,268.224)">
                <path d="M0,0.086L0.669,0.086C1.328,0.086 1.806,-0.02 2.1,-0.233C2.395,-0.445 2.542,-0.787 2.542,-1.257C2.542,-1.679 2.404,-1.994 2.127,-2.201C1.849,-2.408 1.417,-2.511 0.832,-2.511L0,-2.511L0,0.086ZM3.312,-1.291C3.312,-0.644 3.091,-0.147 2.649,0.202C2.208,0.551 1.574,0.726 0.753,0.726L0,0.726L0,3.241L-0.742,3.241L-0.742,-3.155L0.915,-3.155C2.514,-3.155 3.312,-2.534 3.312,-1.291" style="fill:rgb(245,131,85);fill-rule:nonzero;"/>
            </g>
            <g transform="matrix(1,0,0,1,387.173,267.747)">
                <path d="M0,1.015L-0.745,-0.966C-0.84,-1.217 -0.939,-1.524 -1.042,-1.89C-1.106,-1.61 -1.198,-1.303 -1.317,-0.966L-2.07,1.015L0,1.015ZM1.028,3.718L0.232,1.683L-2.332,1.683L-3.12,3.718L-3.872,3.718L-1.344,-2.703L-0.718,-2.703L1.797,3.718L1.028,3.718Z" style="fill:rgb(245,131,85);fill-rule:nonzero;"/>
            </g>
            <g transform="matrix(1,0,0,1,394.845,265.069)">
                <path d="M0,6.396L-0.847,6.396L-4.344,1.029L-4.379,1.029C-4.332,1.659 -4.308,2.236 -4.308,2.761L-4.308,6.396L-4.994,6.396L-4.994,0L-4.155,0L-0.668,5.347L-0.634,5.347C-0.64,5.267 -0.653,5.015 -0.672,4.588C-0.694,4.16 -0.701,3.854 -0.695,3.671L-0.695,0L0,0L0,6.396Z" style="fill:rgb(245,131,85);fill-rule:nonzero;"/>
            </g>
            <g transform="matrix(1,0,0,1,398.232,268.267)">
                <path d="M0,0.001L1.705,-3.197L2.51,-3.197L0.375,0.719L0.375,3.198L-0.378,3.198L-0.378,0.754L-2.507,-3.197L-1.693,-3.197L0,0.001Z" style="fill:rgb(245,131,85);fill-rule:nonzero;"/>
            </g>
            <g transform="matrix(1,0,0,1,275.371,272.884)">
                <path d="M0,-9.745L2.41,-2.19L4.947,-9.745L7.949,-9.745L7.949,-0.065L5.989,-0.065L5.989,-7.33L3.46,-0.065L1.341,-0.065L-1.051,-7.33L-1.051,-0.065L-3.008,-0.065L-3.008,-9.745L0,-9.745ZM17.186,-9.745L17.186,-8.034L14.501,-8.034C13.798,-8.034 13.285,-7.986 12.965,-7.885C12.648,-7.788 12.383,-7.6 12.168,-7.32C12.026,-7.129 11.93,-6.936 11.877,-6.74C11.825,-6.547 11.783,-6.214 11.743,-5.74L17.184,-5.74L17.184,-4.029L11.743,-4.029C11.811,-3.187 12.058,-2.603 12.473,-2.272C12.888,-1.944 13.594,-1.778 14.592,-1.778L17.184,-1.778L17.184,-0.065L14.499,-0.065C13.772,-0.065 13.129,-0.111 12.579,-0.201C11.711,-0.34 11.017,-0.724 10.501,-1.344C9.769,-2.232 9.405,-3.439 9.405,-4.96C9.405,-6.648 9.923,-7.96 10.954,-8.896C11.309,-9.214 11.687,-9.435 12.088,-9.557C12.492,-9.684 13.028,-9.745 13.705,-9.745L17.186,-9.745ZM18.816,-9.745L22.924,-9.745C23.948,-9.745 24.741,-9.641 25.305,-9.44C26.336,-9.068 27.027,-8.377 27.374,-7.37C27.638,-6.596 27.771,-5.77 27.771,-4.888C27.771,-4.007 27.644,-3.187 27.395,-2.413C27.144,-1.619 26.725,-1.037 26.138,-0.66C25.77,-0.426 25.369,-0.266 24.932,-0.188C24.493,-0.108 23.826,-0.065 22.924,-0.065L18.816,-0.065L18.816,-9.745ZM20.877,-8.034L20.877,-1.78L22.924,-1.78C23.819,-1.78 24.437,-1.981 24.784,-2.386C24.996,-2.631 25.168,-2.986 25.297,-3.444C25.426,-3.901 25.49,-4.391 25.49,-4.907C25.49,-5.475 25.413,-5.999 25.26,-6.477C25.106,-6.957 24.903,-7.311 24.649,-7.544C24.282,-7.873 23.705,-8.036 22.921,-8.036L20.874,-8.036L20.877,-8.034ZM29.22,-9.745L31.28,-9.745L31.28,-0.065L29.22,-0.065L29.22,-9.745ZM40.611,-1.778L40.611,-0.065L37.238,-0.065C36.598,-0.065 36.105,-0.1 35.768,-0.166C34.585,-0.399 33.742,-1.061 33.241,-2.158C32.911,-2.891 32.743,-3.799 32.743,-4.883C32.743,-6.182 32.995,-7.243 33.5,-8.059C33.863,-8.647 34.352,-9.073 34.96,-9.346C35.574,-9.613 36.363,-9.75 37.335,-9.75L40.608,-9.75L40.608,-8.039L37.568,-8.039C36.653,-8.039 35.979,-7.793 35.55,-7.298C35.198,-6.891 35.021,-6.15 35.021,-5.079C35.021,-3.648 35.297,-2.703 35.847,-2.254C36.233,-1.942 36.834,-1.785 37.645,-1.785L40.608,-1.785L40.611,-1.778ZM44.02,-9.745L44.02,-3.941C44.02,-3.479 44.06,-3.119 44.134,-2.862C44.208,-2.606 44.338,-2.388 44.521,-2.209C44.93,-1.815 45.497,-1.616 46.219,-1.616C46.682,-1.616 47.082,-1.693 47.425,-1.848C47.769,-2.007 48.01,-2.217 48.139,-2.487C48.277,-2.758 48.346,-3.246 48.346,-3.941L48.346,-9.745L50.407,-9.745L50.407,-4.042C50.407,-3.291 50.33,-2.669 50.171,-2.18C50.018,-1.687 49.77,-1.293 49.435,-1C48.674,-0.33 47.589,0.005 46.182,0.005C44.69,0.005 43.6,-0.323 42.909,-0.978C42.55,-1.322 42.301,-1.704 42.163,-2.123C42.026,-2.542 41.957,-3.132 41.957,-3.891L41.957,-9.745L44.02,-9.745ZM52.237,-0.065L52.237,-1.778L56.658,-1.778C57.369,-1.778 57.843,-1.848 58.081,-1.989C58.421,-2.195 58.594,-2.5 58.594,-2.909C58.594,-3.38 58.396,-3.724 57.995,-3.941C57.769,-4.065 57.407,-4.126 56.909,-4.126L55.113,-4.126C54.015,-4.126 53.224,-4.325 52.74,-4.721C52.438,-4.972 52.2,-5.287 52.031,-5.669C51.858,-6.05 51.774,-6.454 51.774,-6.883C51.774,-7.565 51.972,-8.187 52.371,-8.751C52.758,-9.293 53.383,-9.608 54.24,-9.698C54.531,-9.727 54.959,-9.742 55.533,-9.742L60.337,-9.742L60.337,-8.031L56.001,-8.031C55.354,-8.026 54.922,-7.997 54.707,-7.943C54.271,-7.835 54.054,-7.504 54.054,-6.948C54.054,-6.481 54.236,-6.166 54.602,-6.001C54.848,-5.894 55.258,-5.838 55.827,-5.838L57.38,-5.838C58.178,-5.838 58.771,-5.77 59.165,-5.631C59.852,-5.401 60.323,-4.997 60.581,-4.414C60.787,-3.95 60.893,-3.447 60.893,-2.912C60.893,-2.328 60.757,-1.801 60.487,-1.336C60.107,-0.674 59.535,-0.28 58.773,-0.154C58.406,-0.092 57.851,-0.06 57.112,-0.06L52.245,-0.06L52.237,-0.065ZM65.984,-9.745L68.045,-9.745L68.045,-0.065L65.984,-0.065L65.984,-9.745ZM72.18,-8.034L69.103,-8.034L69.103,-9.745L77.447,-9.745L77.447,-8.034L74.241,-8.034L74.241,-0.065L72.18,-0.065L72.18,-8.034Z" style="fill:rgb(30,41,69);fill-rule:nonzero;"/>
            </g>
        </g>
    </g>
</svg>
