<?xml version="1.0" encoding="UTF-8"?>
<svg id="SVGDoc" width="158" height="158" xmlns="http://www.w3.org/2000/svg" version="1.1" xmlns:xlink="http://www.w3.org/1999/xlink" xmlns:avocode="https://avocode.com/" viewBox="0 0 158 158"><defs></defs><desc>Generated with Avocode.</desc><g><g clip-path="url(#clip-5BA7A34B-FC63-4600-8F6E-74404AF3E0C8)"><title>Fill 1</title><path d="M79,0c43.56134,0 79,35.43945 79,79c0,43.56055 -35.43866,79 -79,79c-43.56042,0 -79,-35.43945 -79,-79c0,-43.56055 35.43958,-79 79,-79zM79,156.20728c42.57175,0 77.20731,-34.63525 77.20731,-77.20728c0,-42.57202 -34.63556,-77.20728 -77.20731,-77.20728c-42.57178,0 -77.20731,34.63525 -77.20731,77.20728c0,42.57202 34.63553,77.20728 77.20731,77.20728zM79,11.68286c37.11932,0 67.31796,30.19849 67.31796,67.31714c0,37.11963 -30.19864,67.31714 -67.31796,67.31714c-37.11932,0 -67.31708,-30.19751 -67.31708,-67.31714c0,-37.11865 30.19775,-67.31714 67.31708,-67.31714zM79,144.52441c36.13065,0 65.5253,-29.39453 65.5253,-65.52441c0,-36.12988 -29.39465,-65.52441 -65.5253,-65.52441c-36.12976,0 -65.52438,29.39453 -65.52438,65.52441c0,36.12988 29.39462,65.52441 65.52438,65.52441zM105.80688,49.3479c3.5289,0 5.32071,0.76978 5.32071,4.979v1.36255c0,4.20923 -1.79181,4.97998 -5.32071,4.97998h-6.93048v43.00366c0,3.90967 -1.07025,4.97998 -4.98099,4.97998h-2.04099c-3.90982,0 -4.98096,-1.07031 -4.98096,-4.97998v-46.96265c0,-5.22925 2.12653,-7.36255 7.36255,-7.36255zM109.3349,54.3269c0,-2.76953 -0.46161,-3.18652 -3.52802,-3.18652h-11.57086c-4.23602,0 -5.56989,1.30151 -5.56989,5.57007v46.96265c0,2.91919 0.26804,3.18726 3.18829,3.18726h2.04099c2.92029,0 3.18829,-0.26807 3.18829,-3.18726v-44.79639h8.72318c3.06641,0 3.52802,-0.41675 3.52802,-3.18726zM69.73361,49.3479c3.90985,0 4.98007,1.07007 4.98007,4.979v1.36255c0,3.90894 -1.07022,4.97998 -4.98007,4.97998h-6.93051v43.00366c0,4.20923 -1.8031,4.97998 -5.32068,4.97998h-2.04187c-3.90897,0 -4.98007,-1.07031 -4.98007,-4.97998v-46.96265c0,-5.22925 2.13327,-7.36255 7.36166,-7.36255zM72.92099,54.3269c0,-2.91846 -0.26797,-3.18652 -3.18738,-3.18652h-11.9115c-4.26749,0 -5.56897,1.30151 -5.56897,5.57007v46.96265c0,2.91919 0.26801,3.18726 3.18741,3.18726h2.04187c3.06638,0 3.51758,-0.41675 3.51758,-3.18726v-44.79639h8.73361c2.9194,0 3.18738,-0.26782 3.18738,-3.18726z" fill="#fefefe" fill-opacity="1"></path></g></g></svg>